<mxfile host="65bd71144e" pages="10">
    <diagram id="4q6JMV2QWJp7L5wy0KHO" name="数据库更新流程">
        <mxGraphModel dx="2707" dy="993" grid="1" gridSize="10" guides="1" tooltips="1" connect="1" arrows="1" fold="1" page="1" pageScale="1" pageWidth="827" pageHeight="1169" math="0" shadow="0">
            <root>
                <mxCell id="0"/>
                <mxCell id="1" parent="0"/>
                <mxCell id="AAM7cWJRhjay-pPcj6Ib-11" value="" style="edgeStyle=orthogonalEdgeStyle;rounded=0;orthogonalLoop=1;jettySize=auto;html=1;" parent="1" source="AAM7cWJRhjay-pPcj6Ib-8" target="AAM7cWJRhjay-pPcj6Ib-10" edge="1">
                    <mxGeometry relative="1" as="geometry"/>
                </mxCell>
                <mxCell id="AAM7cWJRhjay-pPcj6Ib-8" value="gou/process.go" style="rounded=1;whiteSpace=wrap;html=1;" parent="1" vertex="1">
                    <mxGeometry x="-380" y="310" width="220" height="60" as="geometry"/>
                </mxCell>
                <mxCell id="AAM7cWJRhjay-pPcj6Ib-35" value="" style="edgeStyle=orthogonalEdgeStyle;rounded=0;orthogonalLoop=1;jettySize=auto;html=1;" parent="1" source="AAM7cWJRhjay-pPcj6Ib-10" target="AAM7cWJRhjay-pPcj6Ib-32" edge="1">
                    <mxGeometry relative="1" as="geometry"/>
                </mxCell>
                <mxCell id="AAM7cWJRhjay-pPcj6Ib-10" value="ProcessSave" style="rounded=1;whiteSpace=wrap;html=1;" parent="1" vertex="1">
                    <mxGeometry x="-80" y="310" width="220" height="60" as="geometry"/>
                </mxCell>
                <mxCell id="AAM7cWJRhjay-pPcj6Ib-17" value="" style="edgeStyle=orthogonalEdgeStyle;rounded=0;orthogonalLoop=1;jettySize=auto;html=1;" parent="1" source="AAM7cWJRhjay-pPcj6Ib-14" target="AAM7cWJRhjay-pPcj6Ib-16" edge="1">
                    <mxGeometry relative="1" as="geometry"/>
                </mxCell>
                <mxCell id="AAM7cWJRhjay-pPcj6Ib-14" value="gou/process.go" style="rounded=1;whiteSpace=wrap;html=1;" parent="1" vertex="1">
                    <mxGeometry x="-380" y="170" width="220" height="60" as="geometry"/>
                </mxCell>
                <mxCell id="AAM7cWJRhjay-pPcj6Ib-29" value="" style="edgeStyle=orthogonalEdgeStyle;rounded=0;orthogonalLoop=1;jettySize=auto;html=1;" parent="1" source="AAM7cWJRhjay-pPcj6Ib-16" target="AAM7cWJRhjay-pPcj6Ib-10" edge="1">
                    <mxGeometry relative="1" as="geometry"/>
                </mxCell>
                <mxCell id="AAM7cWJRhjay-pPcj6Ib-16" value="Run()" style="rounded=1;whiteSpace=wrap;html=1;" parent="1" vertex="1">
                    <mxGeometry x="-80" y="170" width="220" height="60" as="geometry"/>
                </mxCell>
                <mxCell id="AAM7cWJRhjay-pPcj6Ib-26" value="" style="edgeStyle=orthogonalEdgeStyle;rounded=0;orthogonalLoop=1;jettySize=auto;html=1;" parent="1" source="AAM7cWJRhjay-pPcj6Ib-23" target="AAM7cWJRhjay-pPcj6Ib-25" edge="1">
                    <mxGeometry relative="1" as="geometry"/>
                </mxCell>
                <mxCell id="AAM7cWJRhjay-pPcj6Ib-23" value="gou/api.http.go" style="rounded=1;whiteSpace=wrap;html=1;" parent="1" vertex="1">
                    <mxGeometry x="-380" y="30" width="220" height="60" as="geometry"/>
                </mxCell>
                <mxCell id="AAM7cWJRhjay-pPcj6Ib-52" value="" style="edgeStyle=orthogonalEdgeStyle;rounded=0;orthogonalLoop=1;jettySize=auto;html=1;" parent="1" source="AAM7cWJRhjay-pPcj6Ib-25" target="AAM7cWJRhjay-pPcj6Ib-16" edge="1">
                    <mxGeometry relative="1" as="geometry"/>
                </mxCell>
                <mxCell id="AAM7cWJRhjay-pPcj6Ib-25" value="Route()" style="rounded=1;whiteSpace=wrap;html=1;" parent="1" vertex="1">
                    <mxGeometry x="-80" y="30" width="220" height="60" as="geometry"/>
                </mxCell>
                <mxCell id="AAM7cWJRhjay-pPcj6Ib-33" value="" style="edgeStyle=orthogonalEdgeStyle;rounded=0;orthogonalLoop=1;jettySize=auto;html=1;" parent="1" source="AAM7cWJRhjay-pPcj6Ib-30" target="AAM7cWJRhjay-pPcj6Ib-32" edge="1">
                    <mxGeometry relative="1" as="geometry"/>
                </mxCell>
                <mxCell id="AAM7cWJRhjay-pPcj6Ib-30" value="yao/table/process.go" style="rounded=1;whiteSpace=wrap;html=1;" parent="1" vertex="1">
                    <mxGeometry x="-380" y="450" width="220" height="60" as="geometry"/>
                </mxCell>
                <mxCell id="AAM7cWJRhjay-pPcj6Ib-40" value="" style="edgeStyle=orthogonalEdgeStyle;rounded=0;orthogonalLoop=1;jettySize=auto;html=1;" parent="1" source="AAM7cWJRhjay-pPcj6Ib-32" target="AAM7cWJRhjay-pPcj6Ib-38" edge="1">
                    <mxGeometry relative="1" as="geometry"/>
                </mxCell>
                <mxCell id="AAM7cWJRhjay-pPcj6Ib-107" style="edgeStyle=orthogonalEdgeStyle;rounded=0;orthogonalLoop=1;jettySize=auto;html=1;exitX=1;exitY=0.5;exitDx=0;exitDy=0;" parent="1" source="AAM7cWJRhjay-pPcj6Ib-32" target="AAM7cWJRhjay-pPcj6Ib-106" edge="1">
                    <mxGeometry relative="1" as="geometry"/>
                </mxCell>
                <mxCell id="AAM7cWJRhjay-pPcj6Ib-32" value="Before Hook" style="rounded=1;whiteSpace=wrap;html=1;" parent="1" vertex="1">
                    <mxGeometry x="-80" y="450" width="220" height="60" as="geometry"/>
                </mxCell>
                <mxCell id="AAM7cWJRhjay-pPcj6Ib-39" value="" style="edgeStyle=orthogonalEdgeStyle;rounded=0;orthogonalLoop=1;jettySize=auto;html=1;" parent="1" source="AAM7cWJRhjay-pPcj6Ib-36" target="AAM7cWJRhjay-pPcj6Ib-38" edge="1">
                    <mxGeometry relative="1" as="geometry"/>
                </mxCell>
                <mxCell id="AAM7cWJRhjay-pPcj6Ib-36" value="yao/table/process.go" style="rounded=1;whiteSpace=wrap;html=1;" parent="1" vertex="1">
                    <mxGeometry x="-380" y="580" width="220" height="60" as="geometry"/>
                </mxCell>
                <mxCell id="AAM7cWJRhjay-pPcj6Ib-42" value="" style="edgeStyle=orthogonalEdgeStyle;rounded=0;orthogonalLoop=1;jettySize=auto;html=1;" parent="1" source="AAM7cWJRhjay-pPcj6Ib-38" target="AAM7cWJRhjay-pPcj6Ib-41" edge="1">
                    <mxGeometry relative="1" as="geometry"/>
                </mxCell>
                <mxCell id="AAM7cWJRhjay-pPcj6Ib-38" value="Run()" style="rounded=1;whiteSpace=wrap;html=1;" parent="1" vertex="1">
                    <mxGeometry x="-80" y="580" width="220" height="60" as="geometry"/>
                </mxCell>
                <mxCell id="AAM7cWJRhjay-pPcj6Ib-50" value="" style="edgeStyle=orthogonalEdgeStyle;rounded=0;orthogonalLoop=1;jettySize=auto;html=1;" parent="1" source="AAM7cWJRhjay-pPcj6Ib-41" target="AAM7cWJRhjay-pPcj6Ib-48" edge="1">
                    <mxGeometry relative="1" as="geometry"/>
                </mxCell>
                <mxCell id="AAM7cWJRhjay-pPcj6Ib-41" value="processSave" style="rounded=1;whiteSpace=wrap;html=1;" parent="1" vertex="1">
                    <mxGeometry x="-80" y="720" width="220" height="60" as="geometry"/>
                </mxCell>
                <mxCell id="AAM7cWJRhjay-pPcj6Ib-45" value="" style="edgeStyle=orthogonalEdgeStyle;rounded=0;orthogonalLoop=1;jettySize=auto;html=1;" parent="1" source="AAM7cWJRhjay-pPcj6Ib-43" target="AAM7cWJRhjay-pPcj6Ib-41" edge="1">
                    <mxGeometry relative="1" as="geometry"/>
                </mxCell>
                <mxCell id="AAM7cWJRhjay-pPcj6Ib-43" value="gou/model.process.go" style="rounded=1;whiteSpace=wrap;html=1;" parent="1" vertex="1">
                    <mxGeometry x="-380" y="720" width="220" height="60" as="geometry"/>
                </mxCell>
                <mxCell id="AAM7cWJRhjay-pPcj6Ib-49" value="" style="edgeStyle=orthogonalEdgeStyle;rounded=0;orthogonalLoop=1;jettySize=auto;html=1;" parent="1" source="AAM7cWJRhjay-pPcj6Ib-46" target="AAM7cWJRhjay-pPcj6Ib-48" edge="1">
                    <mxGeometry relative="1" as="geometry"/>
                </mxCell>
                <mxCell id="AAM7cWJRhjay-pPcj6Ib-46" value="gou/model.atomic.go" style="rounded=1;whiteSpace=wrap;html=1;" parent="1" vertex="1">
                    <mxGeometry x="-380" y="860" width="220" height="60" as="geometry"/>
                </mxCell>
                <mxCell id="AAM7cWJRhjay-pPcj6Ib-57" value="" style="edgeStyle=orthogonalEdgeStyle;rounded=0;orthogonalLoop=1;jettySize=auto;html=1;" parent="1" source="AAM7cWJRhjay-pPcj6Ib-48" target="AAM7cWJRhjay-pPcj6Ib-55" edge="1">
                    <mxGeometry relative="1" as="geometry"/>
                </mxCell>
                <mxCell id="AAM7cWJRhjay-pPcj6Ib-48" value="MustSave()" style="rounded=1;whiteSpace=wrap;html=1;" parent="1" vertex="1">
                    <mxGeometry x="-80" y="860" width="220" height="60" as="geometry"/>
                </mxCell>
                <mxCell id="AAM7cWJRhjay-pPcj6Ib-56" value="" style="edgeStyle=orthogonalEdgeStyle;rounded=0;orthogonalLoop=1;jettySize=auto;html=1;" parent="1" source="AAM7cWJRhjay-pPcj6Ib-53" target="AAM7cWJRhjay-pPcj6Ib-55" edge="1">
                    <mxGeometry relative="1" as="geometry"/>
                </mxCell>
                <mxCell id="AAM7cWJRhjay-pPcj6Ib-53" value="gou/model.atomic.go" style="rounded=1;whiteSpace=wrap;html=1;" parent="1" vertex="1">
                    <mxGeometry x="-380" y="1000" width="220" height="60" as="geometry"/>
                </mxCell>
                <mxCell id="AAM7cWJRhjay-pPcj6Ib-67" value="" style="edgeStyle=orthogonalEdgeStyle;rounded=0;orthogonalLoop=1;jettySize=auto;html=1;" parent="1" source="AAM7cWJRhjay-pPcj6Ib-55" target="AAM7cWJRhjay-pPcj6Ib-65" edge="1">
                    <mxGeometry relative="1" as="geometry"/>
                </mxCell>
                <mxCell id="AAM7cWJRhjay-pPcj6Ib-72" value="" style="edgeStyle=orthogonalEdgeStyle;rounded=0;orthogonalLoop=1;jettySize=auto;html=1;" parent="1" source="AAM7cWJRhjay-pPcj6Ib-55" target="AAM7cWJRhjay-pPcj6Ib-71" edge="1">
                    <mxGeometry relative="1" as="geometry"/>
                </mxCell>
                <mxCell id="AAM7cWJRhjay-pPcj6Ib-55" value="Save()" style="rounded=1;whiteSpace=wrap;html=1;" parent="1" vertex="1">
                    <mxGeometry x="-80" y="1000" width="220" height="60" as="geometry"/>
                </mxCell>
                <mxCell id="AAM7cWJRhjay-pPcj6Ib-61" value="" style="edgeStyle=orthogonalEdgeStyle;rounded=0;orthogonalLoop=1;jettySize=auto;html=1;" parent="1" source="AAM7cWJRhjay-pPcj6Ib-58" target="AAM7cWJRhjay-pPcj6Ib-60" edge="1">
                    <mxGeometry relative="1" as="geometry"/>
                </mxCell>
                <mxCell id="AAM7cWJRhjay-pPcj6Ib-58" value="gou/column.go" style="rounded=1;whiteSpace=wrap;html=1;" parent="1" vertex="1">
                    <mxGeometry x="-380" y="1260" width="220" height="60" as="geometry"/>
                </mxCell>
                <mxCell id="AAM7cWJRhjay-pPcj6Ib-76" value="" style="edgeStyle=orthogonalEdgeStyle;rounded=0;orthogonalLoop=1;jettySize=auto;html=1;" parent="1" source="AAM7cWJRhjay-pPcj6Ib-60" target="AAM7cWJRhjay-pPcj6Ib-75" edge="1">
                    <mxGeometry relative="1" as="geometry"/>
                </mxCell>
                <mxCell id="AAM7cWJRhjay-pPcj6Ib-91" value="" style="edgeStyle=orthogonalEdgeStyle;rounded=0;orthogonalLoop=1;jettySize=auto;html=1;" parent="1" source="AAM7cWJRhjay-pPcj6Ib-60" target="AAM7cWJRhjay-pPcj6Ib-90" edge="1">
                    <mxGeometry relative="1" as="geometry"/>
                </mxCell>
                <mxCell id="AAM7cWJRhjay-pPcj6Ib-60" value="FliterIn" style="rounded=1;whiteSpace=wrap;html=1;" parent="1" vertex="1">
                    <mxGeometry x="-80" y="1260" width="220" height="60" as="geometry"/>
                </mxCell>
                <mxCell id="AAM7cWJRhjay-pPcj6Ib-66" value="" style="edgeStyle=orthogonalEdgeStyle;rounded=0;orthogonalLoop=1;jettySize=auto;html=1;" parent="1" source="AAM7cWJRhjay-pPcj6Ib-63" target="AAM7cWJRhjay-pPcj6Ib-65" edge="1">
                    <mxGeometry relative="1" as="geometry"/>
                </mxCell>
                <mxCell id="AAM7cWJRhjay-pPcj6Ib-63" value="gou/model.filter.go" style="rounded=1;whiteSpace=wrap;html=1;" parent="1" vertex="1">
                    <mxGeometry x="-380" y="1140" width="220" height="60" as="geometry"/>
                </mxCell>
                <mxCell id="AAM7cWJRhjay-pPcj6Ib-68" value="" style="edgeStyle=orthogonalEdgeStyle;rounded=0;orthogonalLoop=1;jettySize=auto;html=1;" parent="1" source="AAM7cWJRhjay-pPcj6Ib-65" target="AAM7cWJRhjay-pPcj6Ib-60" edge="1">
                    <mxGeometry relative="1" as="geometry"/>
                </mxCell>
                <mxCell id="AAM7cWJRhjay-pPcj6Ib-70" value="" style="edgeStyle=orthogonalEdgeStyle;rounded=0;orthogonalLoop=1;jettySize=auto;html=1;" parent="1" source="AAM7cWJRhjay-pPcj6Ib-65" target="AAM7cWJRhjay-pPcj6Ib-69" edge="1">
                    <mxGeometry relative="1" as="geometry"/>
                </mxCell>
                <mxCell id="AAM7cWJRhjay-pPcj6Ib-65" value="FliterIn" style="rounded=1;whiteSpace=wrap;html=1;" parent="1" vertex="1">
                    <mxGeometry x="-80" y="1140" width="220" height="60" as="geometry"/>
                </mxCell>
                <mxCell id="AAM7cWJRhjay-pPcj6Ib-69" value="如果有外键，不会检查" style="rounded=1;whiteSpace=wrap;html=1;" parent="1" vertex="1">
                    <mxGeometry x="220" y="1140" width="220" height="60" as="geometry"/>
                </mxCell>
                <mxCell id="AAM7cWJRhjay-pPcj6Ib-71" value="Save 保存单条数据, 不存在创建记录, 存在更新记录,&amp;nbsp; 返回数据ID" style="rounded=1;whiteSpace=wrap;html=1;" parent="1" vertex="1">
                    <mxGeometry x="220" y="1000" width="220" height="60" as="geometry"/>
                </mxCell>
                <mxCell id="AAM7cWJRhjay-pPcj6Ib-77" value="" style="edgeStyle=orthogonalEdgeStyle;rounded=0;orthogonalLoop=1;jettySize=auto;html=1;" parent="1" source="AAM7cWJRhjay-pPcj6Ib-73" target="AAM7cWJRhjay-pPcj6Ib-75" edge="1">
                    <mxGeometry relative="1" as="geometry"/>
                </mxCell>
                <mxCell id="AAM7cWJRhjay-pPcj6Ib-73" value="gou/model.atomic.go" style="rounded=1;whiteSpace=wrap;html=1;" parent="1" vertex="1">
                    <mxGeometry x="-380" y="1590" width="220" height="60" as="geometry"/>
                </mxCell>
                <mxCell id="AAM7cWJRhjay-pPcj6Ib-79" value="" style="edgeStyle=orthogonalEdgeStyle;rounded=0;orthogonalLoop=1;jettySize=auto;html=1;" parent="1" source="AAM7cWJRhjay-pPcj6Ib-75" target="AAM7cWJRhjay-pPcj6Ib-78" edge="1">
                    <mxGeometry relative="1" as="geometry"/>
                </mxCell>
                <mxCell id="AAM7cWJRhjay-pPcj6Ib-81" value="" style="edgeStyle=orthogonalEdgeStyle;rounded=0;orthogonalLoop=1;jettySize=auto;html=1;" parent="1" source="AAM7cWJRhjay-pPcj6Ib-75" target="AAM7cWJRhjay-pPcj6Ib-80" edge="1">
                    <mxGeometry relative="1" as="geometry"/>
                </mxCell>
                <mxCell id="AAM7cWJRhjay-pPcj6Ib-75" value="更新" style="rounded=1;whiteSpace=wrap;html=1;" parent="1" vertex="1">
                    <mxGeometry x="-80" y="1590" width="220" height="60" as="geometry"/>
                </mxCell>
                <mxCell id="AAM7cWJRhjay-pPcj6Ib-78" value="if row.Has(mod.PrimaryKey)" style="rounded=1;whiteSpace=wrap;html=1;" parent="1" vertex="1">
                    <mxGeometry x="220" y="1590" width="220" height="60" as="geometry"/>
                </mxCell>
                <mxCell id="AAM7cWJRhjay-pPcj6Ib-86" value="" style="edgeStyle=orthogonalEdgeStyle;rounded=0;orthogonalLoop=1;jettySize=auto;html=1;" parent="1" source="AAM7cWJRhjay-pPcj6Ib-80" target="AAM7cWJRhjay-pPcj6Ib-85" edge="1">
                    <mxGeometry relative="1" as="geometry"/>
                </mxCell>
                <mxCell id="AAM7cWJRhjay-pPcj6Ib-80" value="Update" style="rounded=1;whiteSpace=wrap;html=1;" parent="1" vertex="1">
                    <mxGeometry x="-80" y="1730" width="220" height="60" as="geometry"/>
                </mxCell>
                <mxCell id="AAM7cWJRhjay-pPcj6Ib-84" value="" style="edgeStyle=orthogonalEdgeStyle;rounded=0;orthogonalLoop=1;jettySize=auto;html=1;" parent="1" source="AAM7cWJRhjay-pPcj6Ib-82" target="AAM7cWJRhjay-pPcj6Ib-80" edge="1">
                    <mxGeometry relative="1" as="geometry"/>
                </mxCell>
                <mxCell id="AAM7cWJRhjay-pPcj6Ib-82" value="xun/dbal/query/update.go" style="rounded=1;whiteSpace=wrap;html=1;" parent="1" vertex="1">
                    <mxGeometry x="-380" y="1730" width="220" height="60" as="geometry"/>
                </mxCell>
                <mxCell id="AAM7cWJRhjay-pPcj6Ib-113" value="" style="edgeStyle=orthogonalEdgeStyle;rounded=0;orthogonalLoop=1;jettySize=auto;html=1;" parent="1" source="AAM7cWJRhjay-pPcj6Ib-85" target="AAM7cWJRhjay-pPcj6Ib-112" edge="1">
                    <mxGeometry relative="1" as="geometry"/>
                </mxCell>
                <mxCell id="AAM7cWJRhjay-pPcj6Ib-85" value="CompileUpdate" style="rounded=1;whiteSpace=wrap;html=1;" parent="1" vertex="1">
                    <mxGeometry x="-80" y="1870" width="220" height="60" as="geometry"/>
                </mxCell>
                <mxCell id="AAM7cWJRhjay-pPcj6Ib-89" value="" style="edgeStyle=orthogonalEdgeStyle;rounded=0;orthogonalLoop=1;jettySize=auto;html=1;" parent="1" source="AAM7cWJRhjay-pPcj6Ib-87" target="AAM7cWJRhjay-pPcj6Ib-85" edge="1">
                    <mxGeometry relative="1" as="geometry"/>
                </mxCell>
                <mxCell id="AAM7cWJRhjay-pPcj6Ib-87" value="xun/grammar/sqlite3/update.go" style="rounded=1;whiteSpace=wrap;html=1;" parent="1" vertex="1">
                    <mxGeometry x="-380" y="1870" width="220" height="60" as="geometry"/>
                </mxCell>
                <mxCell id="AAM7cWJRhjay-pPcj6Ib-96" value="" style="edgeStyle=orthogonalEdgeStyle;rounded=0;orthogonalLoop=1;jettySize=auto;html=1;" parent="1" source="AAM7cWJRhjay-pPcj6Ib-90" target="AAM7cWJRhjay-pPcj6Ib-92" edge="1">
                    <mxGeometry relative="1" as="geometry"/>
                </mxCell>
                <mxCell id="AAM7cWJRhjay-pPcj6Ib-98" value="" style="edgeStyle=orthogonalEdgeStyle;rounded=0;orthogonalLoop=1;jettySize=auto;html=1;" parent="1" source="AAM7cWJRhjay-pPcj6Ib-90" target="AAM7cWJRhjay-pPcj6Ib-97" edge="1">
                    <mxGeometry relative="1" as="geometry"/>
                </mxCell>
                <mxCell id="AAM7cWJRhjay-pPcj6Ib-90" value="column.crypt&lt;br&gt;加密字段处理" style="rounded=1;whiteSpace=wrap;html=1;" parent="1" vertex="1">
                    <mxGeometry x="220" y="1260" width="220" height="60" as="geometry"/>
                </mxCell>
                <mxCell id="AAM7cWJRhjay-pPcj6Ib-95" value="" style="edgeStyle=orthogonalEdgeStyle;rounded=0;orthogonalLoop=1;jettySize=auto;html=1;" parent="1" source="AAM7cWJRhjay-pPcj6Ib-92" target="AAM7cWJRhjay-pPcj6Ib-94" edge="1">
                    <mxGeometry relative="1" as="geometry"/>
                </mxCell>
                <mxCell id="AAM7cWJRhjay-pPcj6Ib-100" value="" style="edgeStyle=orthogonalEdgeStyle;rounded=0;orthogonalLoop=1;jettySize=auto;html=1;" parent="1" source="AAM7cWJRhjay-pPcj6Ib-92" target="AAM7cWJRhjay-pPcj6Ib-99" edge="1">
                    <mxGeometry relative="1" as="geometry"/>
                </mxCell>
                <mxCell id="AAM7cWJRhjay-pPcj6Ib-92" value="column.type = json&lt;br&gt;JSON字段处理" style="rounded=1;whiteSpace=wrap;html=1;" parent="1" vertex="1">
                    <mxGeometry x="220" y="1370" width="220" height="60" as="geometry"/>
                </mxCell>
                <mxCell id="AAM7cWJRhjay-pPcj6Ib-102" value="" style="edgeStyle=orthogonalEdgeStyle;rounded=0;orthogonalLoop=1;jettySize=auto;html=1;" parent="1" source="AAM7cWJRhjay-pPcj6Ib-94" target="AAM7cWJRhjay-pPcj6Ib-101" edge="1">
                    <mxGeometry relative="1" as="geometry"/>
                </mxCell>
                <mxCell id="AAM7cWJRhjay-pPcj6Ib-94" value="日期字段处理" style="rounded=1;whiteSpace=wrap;html=1;" parent="1" vertex="1">
                    <mxGeometry x="220" y="1480" width="220" height="60" as="geometry"/>
                </mxCell>
                <mxCell id="AAM7cWJRhjay-pPcj6Ib-97" value="可选PSSWORD/AES加密" style="rounded=1;whiteSpace=wrap;html=1;" parent="1" vertex="1">
                    <mxGeometry x="520" y="1260" width="220" height="60" as="geometry"/>
                </mxCell>
                <mxCell id="AAM7cWJRhjay-pPcj6Ib-99" value="保存时把传入的值转换成Json，&lt;br&gt;读取时把Json转换成对象" style="rounded=1;whiteSpace=wrap;html=1;" parent="1" vertex="1">
                    <mxGeometry x="520" y="1370" width="220" height="60" as="geometry"/>
                </mxCell>
                <mxCell id="AAM7cWJRhjay-pPcj6Ib-101" value="日期类型的字段作校验" style="rounded=1;whiteSpace=wrap;html=1;" parent="1" vertex="1">
                    <mxGeometry x="520" y="1480" width="220" height="60" as="geometry"/>
                </mxCell>
                <mxCell id="AAM7cWJRhjay-pPcj6Ib-105" value="" style="edgeStyle=orthogonalEdgeStyle;rounded=0;orthogonalLoop=1;jettySize=auto;html=1;" parent="1" source="AAM7cWJRhjay-pPcj6Ib-103" target="AAM7cWJRhjay-pPcj6Ib-104" edge="1">
                    <mxGeometry relative="1" as="geometry"/>
                </mxCell>
                <mxCell id="AAM7cWJRhjay-pPcj6Ib-103" value="api" style="rounded=1;whiteSpace=wrap;html=1;" parent="1" vertex="1">
                    <mxGeometry x="-580" y="30" width="120" height="60" as="geometry"/>
                </mxCell>
                <mxCell id="AAM7cWJRhjay-pPcj6Ib-116" value="" style="edgeStyle=orthogonalEdgeStyle;rounded=0;orthogonalLoop=1;jettySize=auto;html=1;" parent="1" source="AAM7cWJRhjay-pPcj6Ib-104" target="AAM7cWJRhjay-pPcj6Ib-115" edge="1">
                    <mxGeometry relative="1" as="geometry"/>
                </mxCell>
                <mxCell id="AAM7cWJRhjay-pPcj6Ib-104" value="gou.process" style="rounded=1;whiteSpace=wrap;html=1;" parent="1" vertex="1">
                    <mxGeometry x="-580" y="170" width="120" height="60" as="geometry"/>
                </mxCell>
                <mxCell id="AAM7cWJRhjay-pPcj6Ib-106" value="&lt;div&gt;BeforeSave:&quot;&quot;&lt;/div&gt;&lt;div&gt;BeforeDelete:&quot;&quot;&lt;/div&gt;&lt;div&gt;BeforeInsert:&quot;&quot;&lt;/div&gt;&lt;div&gt;BeforeDeleteIn:&quot;&quot;&lt;/div&gt;&lt;div&gt;BeforeDeleteWhere:&quot;&quot;&lt;/div&gt;&lt;div&gt;BeforeUpdateIn:&quot;&quot;&lt;/div&gt;&lt;div&gt;BeforeUpdateWhere:&quot;&quot;&lt;/div&gt;&lt;div&gt;&lt;span&gt;BeforeQuicksave:&quot;&quot;&lt;/span&gt;&lt;/div&gt;&lt;div&gt;BeforeSelect:&quot;&quot;&lt;/div&gt;" style="shape=document;whiteSpace=wrap;html=1;boundedLbl=1;size=0;align=left;verticalAlign=top;fillColor=#fff2cc;strokeColor=#d6b656;" parent="1" vertex="1">
                    <mxGeometry x="250" y="407.5" width="150" height="145" as="geometry"/>
                </mxCell>
                <mxCell id="AAM7cWJRhjay-pPcj6Ib-108" value="&lt;div&gt;&lt;span&gt;AfterSave:&quot;&quot;&lt;/span&gt;&lt;br&gt;&lt;/div&gt;&lt;div&gt;&lt;span&gt;AfterDelete:&quot;&quot;&lt;/span&gt;&lt;br&gt;&lt;/div&gt;&lt;div&gt;&lt;span&gt;AfterInsert:&quot;&quot;&lt;/span&gt;&lt;br&gt;&lt;/div&gt;&lt;div&gt;&lt;span&gt;AfterDeleteIn:&quot;&quot;&lt;/span&gt;&lt;br&gt;&lt;/div&gt;&lt;div&gt;&lt;span&gt;AfterDeleteWhere:&quot;&quot;&lt;/span&gt;&lt;br&gt;&lt;/div&gt;&lt;div&gt;&lt;span&gt;AfterUpdateIn:&quot;&quot;&lt;/span&gt;&lt;br&gt;&lt;/div&gt;&lt;div&gt;&lt;span&gt;AfterUpdateWhere:&quot;&quot;&lt;/span&gt;&lt;br&gt;&lt;/div&gt;&lt;div&gt;&lt;span&gt;AfterQuicksave:&quot;&quot;&lt;/span&gt;&lt;br&gt;&lt;/div&gt;&lt;div&gt;&lt;span&gt;AfterSelec&lt;/span&gt;&lt;br&gt;&lt;/div&gt;" style="shape=document;whiteSpace=wrap;html=1;boundedLbl=1;size=0;align=left;verticalAlign=top;fillColor=#fff2cc;strokeColor=#d6b656;" parent="1" vertex="1">
                    <mxGeometry x="255" y="1961.25" width="150" height="142.5" as="geometry"/>
                </mxCell>
                <mxCell id="AAM7cWJRhjay-pPcj6Ib-110" value="" style="edgeStyle=orthogonalEdgeStyle;rounded=0;orthogonalLoop=1;jettySize=auto;html=1;" parent="1" source="AAM7cWJRhjay-pPcj6Ib-111" target="AAM7cWJRhjay-pPcj6Ib-112" edge="1">
                    <mxGeometry relative="1" as="geometry"/>
                </mxCell>
                <mxCell id="AAM7cWJRhjay-pPcj6Ib-111" value="gou/process.go" style="rounded=1;whiteSpace=wrap;html=1;" parent="1" vertex="1">
                    <mxGeometry x="-380" y="2002.5" width="220" height="60" as="geometry"/>
                </mxCell>
                <mxCell id="AAM7cWJRhjay-pPcj6Ib-114" value="" style="edgeStyle=orthogonalEdgeStyle;rounded=0;orthogonalLoop=1;jettySize=auto;html=1;" parent="1" source="AAM7cWJRhjay-pPcj6Ib-112" target="AAM7cWJRhjay-pPcj6Ib-108" edge="1">
                    <mxGeometry relative="1" as="geometry"/>
                </mxCell>
                <mxCell id="AAM7cWJRhjay-pPcj6Ib-112" value="After Hook" style="rounded=1;whiteSpace=wrap;html=1;" parent="1" vertex="1">
                    <mxGeometry x="-80" y="2002.5" width="220" height="60" as="geometry"/>
                </mxCell>
                <mxCell id="AAM7cWJRhjay-pPcj6Ib-118" value="" style="edgeStyle=orthogonalEdgeStyle;rounded=0;orthogonalLoop=1;jettySize=auto;html=1;" parent="1" source="AAM7cWJRhjay-pPcj6Ib-115" target="AAM7cWJRhjay-pPcj6Ib-117" edge="1">
                    <mxGeometry relative="1" as="geometry"/>
                </mxCell>
                <mxCell id="AAM7cWJRhjay-pPcj6Ib-115" value="table.process" style="rounded=1;whiteSpace=wrap;html=1;" parent="1" vertex="1">
                    <mxGeometry x="-580" y="310" width="120" height="60" as="geometry"/>
                </mxCell>
                <mxCell id="AAM7cWJRhjay-pPcj6Ib-117" value="model.process" style="rounded=1;whiteSpace=wrap;html=1;" parent="1" vertex="1">
                    <mxGeometry x="-580" y="450" width="120" height="60" as="geometry"/>
                </mxCell>
                <mxCell id="aWTvnrf7jYt7v-6Bq4SA-1" value="&lt;h1&gt;数据库更新数据流程&lt;/h1&gt;&lt;p&gt;&lt;br&gt;&lt;/p&gt;" style="text;html=1;strokeColor=#6c8ebf;fillColor=#dae8fc;spacing=5;spacingTop=-20;whiteSpace=wrap;overflow=hidden;rounded=0;" vertex="1" parent="1">
                    <mxGeometry x="-790" y="30" width="190" height="120" as="geometry"/>
                </mxCell>
            </root>
        </mxGraphModel>
    </diagram>
    <diagram id="0HdjAJJeohZ_gEebstOU" name="Query执行过程">
        <mxGraphModel dx="4047" dy="1264" grid="1" gridSize="10" guides="1" tooltips="1" connect="1" arrows="1" fold="1" page="1" pageScale="1" pageWidth="827" pageHeight="1169" math="0" shadow="0">
            <root>
                <mxCell id="0"/>
                <mxCell id="1" parent="0"/>
                <mxCell id="9vw2iH_w66iAd9Mb8LxG-9" value="" style="edgeStyle=orthogonalEdgeStyle;curved=1;rounded=0;orthogonalLoop=1;jettySize=auto;html=1;" parent="1" source="9vw2iH_w66iAd9Mb8LxG-1" target="9vw2iH_w66iAd9Mb8LxG-8" edge="1">
                    <mxGeometry relative="1" as="geometry"/>
                </mxCell>
                <mxCell id="9vw2iH_w66iAd9Mb8LxG-11" style="edgeStyle=orthogonalEdgeStyle;curved=1;rounded=0;orthogonalLoop=1;jettySize=auto;html=1;exitX=1;exitY=0.5;exitDx=0;exitDy=0;entryX=0;entryY=0.5;entryDx=0;entryDy=0;" parent="1" source="9vw2iH_w66iAd9Mb8LxG-1" target="9vw2iH_w66iAd9Mb8LxG-10" edge="1">
                    <mxGeometry relative="1" as="geometry"/>
                </mxCell>
                <mxCell id="9vw2iH_w66iAd9Mb8LxG-13" style="edgeStyle=orthogonalEdgeStyle;curved=1;rounded=0;orthogonalLoop=1;jettySize=auto;html=1;exitX=1;exitY=0.5;exitDx=0;exitDy=0;entryX=0;entryY=0.5;entryDx=0;entryDy=0;" parent="1" source="9vw2iH_w66iAd9Mb8LxG-1" target="9vw2iH_w66iAd9Mb8LxG-12" edge="1">
                    <mxGeometry relative="1" as="geometry"/>
                </mxCell>
                <mxCell id="9vw2iH_w66iAd9Mb8LxG-1" value="QueryStackBuilder" style="rounded=1;whiteSpace=wrap;html=1;" parent="1" vertex="1">
                    <mxGeometry x="-140" y="115" width="120" height="60" as="geometry"/>
                </mxCell>
                <mxCell id="9vw2iH_w66iAd9Mb8LxG-3" style="edgeStyle=orthogonalEdgeStyle;curved=1;rounded=0;orthogonalLoop=1;jettySize=auto;html=1;exitX=1;exitY=0.5;exitDx=0;exitDy=0;entryX=0;entryY=0.5;entryDx=0;entryDy=0;" parent="1" source="9vw2iH_w66iAd9Mb8LxG-2" target="9vw2iH_w66iAd9Mb8LxG-1" edge="1">
                    <mxGeometry relative="1" as="geometry">
                        <mxPoint x="-260" y="285" as="sourcePoint"/>
                    </mxGeometry>
                </mxCell>
                <mxCell id="9vw2iH_w66iAd9Mb8LxG-5" style="edgeStyle=orthogonalEdgeStyle;curved=1;rounded=0;orthogonalLoop=1;jettySize=auto;html=1;exitX=1;exitY=0.5;exitDx=0;exitDy=0;entryX=0;entryY=0.5;entryDx=0;entryDy=0;" parent="1" source="9vw2iH_w66iAd9Mb8LxG-2" target="9vw2iH_w66iAd9Mb8LxG-4" edge="1">
                    <mxGeometry relative="1" as="geometry"/>
                </mxCell>
                <mxCell id="9vw2iH_w66iAd9Mb8LxG-2" value="QueryStack&lt;br&gt;查询栈" style="rounded=1;whiteSpace=wrap;html=1;" parent="1" vertex="1">
                    <mxGeometry x="-380" y="195" width="120" height="60" as="geometry"/>
                </mxCell>
                <mxCell id="9vw2iH_w66iAd9Mb8LxG-7" value="" style="edgeStyle=orthogonalEdgeStyle;curved=1;rounded=0;orthogonalLoop=1;jettySize=auto;html=1;" parent="1" source="9vw2iH_w66iAd9Mb8LxG-4" target="9vw2iH_w66iAd9Mb8LxG-6" edge="1">
                    <mxGeometry relative="1" as="geometry"/>
                </mxCell>
                <mxCell id="9vw2iH_w66iAd9Mb8LxG-4" value="QueryStackParam" style="rounded=1;whiteSpace=wrap;html=1;" parent="1" vertex="1">
                    <mxGeometry x="-140" y="335" width="120" height="60" as="geometry"/>
                </mxCell>
                <mxCell id="9vw2iH_w66iAd9Mb8LxG-6" value="QueryParam" style="rounded=1;whiteSpace=wrap;html=1;" parent="1" vertex="1">
                    <mxGeometry x="100" y="335" width="120" height="60" as="geometry"/>
                </mxCell>
                <mxCell id="XFLC6vvb9SGxg-yfXjd_-4" style="edgeStyle=orthogonalEdgeStyle;curved=1;rounded=0;orthogonalLoop=1;jettySize=auto;html=1;exitX=1;exitY=0.5;exitDx=0;exitDy=0;" parent="1" source="9vw2iH_w66iAd9Mb8LxG-8" target="KgaDuPcTvqmgSFb9li3d-1" edge="1">
                    <mxGeometry relative="1" as="geometry"/>
                </mxCell>
                <mxCell id="9vw2iH_w66iAd9Mb8LxG-8" value="query.Query" style="rounded=1;whiteSpace=wrap;html=1;" parent="1" vertex="1">
                    <mxGeometry x="100" y="105" width="120" height="60" as="geometry"/>
                </mxCell>
                <mxCell id="9vw2iH_w66iAd9Mb8LxG-10" value="Model" style="rounded=1;whiteSpace=wrap;html=1;" parent="1" vertex="1">
                    <mxGeometry x="100" y="15" width="120" height="60" as="geometry"/>
                </mxCell>
                <mxCell id="9vw2iH_w66iAd9Mb8LxG-12" value="ColumnMap" style="rounded=1;whiteSpace=wrap;html=1;" parent="1" vertex="1">
                    <mxGeometry x="100" y="205" width="120" height="60" as="geometry"/>
                </mxCell>
                <mxCell id="9vw2iH_w66iAd9Mb8LxG-22" value="" style="edgeStyle=orthogonalEdgeStyle;curved=1;rounded=0;orthogonalLoop=1;jettySize=auto;html=1;" parent="1" source="9vw2iH_w66iAd9Mb8LxG-20" target="9vw2iH_w66iAd9Mb8LxG-21" edge="1">
                    <mxGeometry relative="1" as="geometry"/>
                </mxCell>
                <mxCell id="9vw2iH_w66iAd9Mb8LxG-20" value="QueryStack" style="rounded=1;whiteSpace=wrap;html=1;fillColor=#dae8fc;strokeColor=#6c8ebf;" parent="1" vertex="1">
                    <mxGeometry x="-260" y="555" width="120" height="60" as="geometry"/>
                </mxCell>
                <mxCell id="9vw2iH_w66iAd9Mb8LxG-26" value="" style="edgeStyle=orthogonalEdgeStyle;curved=1;rounded=0;orthogonalLoop=1;jettySize=auto;html=1;" parent="1" source="9vw2iH_w66iAd9Mb8LxG-21" target="9vw2iH_w66iAd9Mb8LxG-25" edge="1">
                    <mxGeometry relative="1" as="geometry"/>
                </mxCell>
                <mxCell id="9vw2iH_w66iAd9Mb8LxG-21" value="paginate" style="rounded=1;whiteSpace=wrap;html=1;" parent="1" vertex="1">
                    <mxGeometry x="-260" y="705" width="120" height="60" as="geometry"/>
                </mxCell>
                <mxCell id="9vw2iH_w66iAd9Mb8LxG-31" value="" style="edgeStyle=orthogonalEdgeStyle;curved=1;rounded=0;orthogonalLoop=1;jettySize=auto;html=1;" parent="1" source="9vw2iH_w66iAd9Mb8LxG-25" target="9vw2iH_w66iAd9Mb8LxG-30" edge="1">
                    <mxGeometry relative="1" as="geometry"/>
                </mxCell>
                <mxCell id="9vw2iH_w66iAd9Mb8LxG-25" value="builder.Query&lt;br&gt;MustPaginate" style="rounded=1;whiteSpace=wrap;html=1;" parent="1" vertex="1">
                    <mxGeometry x="-60" y="705" width="120" height="60" as="geometry"/>
                </mxCell>
                <mxCell id="9vw2iH_w66iAd9Mb8LxG-62" value="" style="edgeStyle=orthogonalEdgeStyle;curved=1;rounded=0;orthogonalLoop=1;jettySize=auto;html=1;" parent="1" source="9vw2iH_w66iAd9Mb8LxG-30" target="9vw2iH_w66iAd9Mb8LxG-61" edge="1">
                    <mxGeometry relative="1" as="geometry"/>
                </mxCell>
                <mxCell id="9vw2iH_w66iAd9Mb8LxG-30" value="Paginate" style="rounded=1;whiteSpace=wrap;html=1;" parent="1" vertex="1">
                    <mxGeometry x="140" y="705" width="120" height="60" as="geometry"/>
                </mxCell>
                <mxCell id="9vw2iH_w66iAd9Mb8LxG-143" style="edgeStyle=orthogonalEdgeStyle;curved=1;rounded=0;orthogonalLoop=1;jettySize=auto;html=1;exitX=0.5;exitY=1;exitDx=0;exitDy=0;entryX=0.5;entryY=0;entryDx=0;entryDy=0;" parent="1" source="9vw2iH_w66iAd9Mb8LxG-33" target="9vw2iH_w66iAd9Mb8LxG-35" edge="1">
                    <mxGeometry relative="1" as="geometry"/>
                </mxCell>
                <mxCell id="9vw2iH_w66iAd9Mb8LxG-33" value="gou/model.atomic.go" style="rounded=1;whiteSpace=wrap;html=1;" parent="1" vertex="1">
                    <mxGeometry x="-460" y="435" width="120" height="60" as="geometry"/>
                </mxCell>
                <mxCell id="9vw2iH_w66iAd9Mb8LxG-38" style="edgeStyle=orthogonalEdgeStyle;curved=1;rounded=0;orthogonalLoop=1;jettySize=auto;html=1;exitX=1;exitY=0.5;exitDx=0;exitDy=0;" parent="1" source="9vw2iH_w66iAd9Mb8LxG-34" target="9vw2iH_w66iAd9Mb8LxG-21" edge="1">
                    <mxGeometry relative="1" as="geometry"/>
                </mxCell>
                <mxCell id="9vw2iH_w66iAd9Mb8LxG-34" value="MustPaginate" style="rounded=1;whiteSpace=wrap;html=1;" parent="1" vertex="1">
                    <mxGeometry x="-460" y="705" width="120" height="60" as="geometry"/>
                </mxCell>
                <mxCell id="9vw2iH_w66iAd9Mb8LxG-36" value="" style="edgeStyle=orthogonalEdgeStyle;curved=1;rounded=0;orthogonalLoop=1;jettySize=auto;html=1;" parent="1" source="9vw2iH_w66iAd9Mb8LxG-35" target="9vw2iH_w66iAd9Mb8LxG-34" edge="1">
                    <mxGeometry relative="1" as="geometry"/>
                </mxCell>
                <mxCell id="9vw2iH_w66iAd9Mb8LxG-35" value="Model" style="rounded=1;whiteSpace=wrap;html=1;fillColor=#dae8fc;strokeColor=#6c8ebf;" parent="1" vertex="1">
                    <mxGeometry x="-460" y="555" width="120" height="60" as="geometry"/>
                </mxCell>
                <mxCell id="9vw2iH_w66iAd9Mb8LxG-44" value="" style="edgeStyle=orthogonalEdgeStyle;curved=1;rounded=0;orthogonalLoop=1;jettySize=auto;html=1;" parent="1" source="9vw2iH_w66iAd9Mb8LxG-39" target="9vw2iH_w66iAd9Mb8LxG-34" edge="1">
                    <mxGeometry relative="1" as="geometry"/>
                </mxCell>
                <mxCell id="9vw2iH_w66iAd9Mb8LxG-39" value="processPaginate" style="rounded=1;whiteSpace=wrap;html=1;" parent="1" vertex="1">
                    <mxGeometry x="-660" y="705" width="120" height="60" as="geometry"/>
                </mxCell>
                <mxCell id="XFLC6vvb9SGxg-yfXjd_-17" value="" style="edgeStyle=orthogonalEdgeStyle;curved=1;rounded=0;orthogonalLoop=1;jettySize=auto;html=1;" parent="1" source="9vw2iH_w66iAd9Mb8LxG-41" target="XFLC6vvb9SGxg-yfXjd_-16" edge="1">
                    <mxGeometry relative="1" as="geometry"/>
                </mxCell>
                <mxCell id="9vw2iH_w66iAd9Mb8LxG-41" value="gou/model.process.go" style="rounded=1;whiteSpace=wrap;html=1;" parent="1" vertex="1">
                    <mxGeometry x="-660" y="435" width="120" height="60" as="geometry"/>
                </mxCell>
                <mxCell id="9vw2iH_w66iAd9Mb8LxG-51" value="" style="edgeStyle=orthogonalEdgeStyle;curved=1;rounded=0;orthogonalLoop=1;jettySize=auto;html=1;entryX=0.5;entryY=0;entryDx=0;entryDy=0;exitX=0.5;exitY=1;exitDx=0;exitDy=0;" parent="1" source="9vw2iH_w66iAd9Mb8LxG-48" target="9vw2iH_w66iAd9Mb8LxG-25" edge="1">
                    <mxGeometry relative="1" as="geometry">
                        <mxPoint x="200" y="575" as="targetPoint"/>
                    </mxGeometry>
                </mxCell>
                <mxCell id="wagm8GXT-jJfZ06G-gbX-2" style="edgeStyle=orthogonalEdgeStyle;curved=1;rounded=0;orthogonalLoop=1;jettySize=auto;html=1;exitX=0.5;exitY=1;exitDx=0;exitDy=0;" parent="1" source="9vw2iH_w66iAd9Mb8LxG-48" target="9vw2iH_w66iAd9Mb8LxG-30" edge="1">
                    <mxGeometry relative="1" as="geometry"/>
                </mxCell>
                <mxCell id="wagm8GXT-jJfZ06G-gbX-3" style="edgeStyle=orthogonalEdgeStyle;curved=1;rounded=0;orthogonalLoop=1;jettySize=auto;html=1;exitX=0.5;exitY=1;exitDx=0;exitDy=0;" parent="1" source="9vw2iH_w66iAd9Mb8LxG-48" target="9vw2iH_w66iAd9Mb8LxG-61" edge="1">
                    <mxGeometry relative="1" as="geometry"/>
                </mxCell>
                <mxCell id="9vw2iH_w66iAd9Mb8LxG-48" value="xun/dbal/query/paginate.go" style="rounded=1;whiteSpace=wrap;html=1;" parent="1" vertex="1">
                    <mxGeometry x="110" y="555" width="180" height="60" as="geometry"/>
                </mxCell>
                <mxCell id="9vw2iH_w66iAd9Mb8LxG-87" value="" style="edgeStyle=orthogonalEdgeStyle;curved=1;rounded=0;orthogonalLoop=1;jettySize=auto;html=1;" parent="1" source="9vw2iH_w66iAd9Mb8LxG-52" target="9vw2iH_w66iAd9Mb8LxG-67" edge="1">
                    <mxGeometry relative="1" as="geometry"/>
                </mxCell>
                <mxCell id="9vw2iH_w66iAd9Mb8LxG-52" value="forPage" style="rounded=1;whiteSpace=wrap;html=1;" parent="1" vertex="1">
                    <mxGeometry x="355" y="805" width="120" height="60" as="geometry"/>
                </mxCell>
                <mxCell id="9vw2iH_w66iAd9Mb8LxG-92" value="" style="edgeStyle=orthogonalEdgeStyle;curved=1;rounded=0;orthogonalLoop=1;jettySize=auto;html=1;" parent="1" source="9vw2iH_w66iAd9Mb8LxG-54" target="9vw2iH_w66iAd9Mb8LxG-91" edge="1">
                    <mxGeometry relative="1" as="geometry"/>
                </mxCell>
                <mxCell id="9vw2iH_w66iAd9Mb8LxG-54" value="Get" style="rounded=1;whiteSpace=wrap;html=1;" parent="1" vertex="1">
                    <mxGeometry x="587" y="705" width="120" height="60" as="geometry"/>
                </mxCell>
                <mxCell id="9vw2iH_w66iAd9Mb8LxG-65" style="edgeStyle=orthogonalEdgeStyle;curved=1;rounded=0;orthogonalLoop=1;jettySize=auto;html=1;exitX=0.5;exitY=1;exitDx=0;exitDy=0;entryX=0.5;entryY=0;entryDx=0;entryDy=0;" parent="1" source="9vw2iH_w66iAd9Mb8LxG-56" target="9vw2iH_w66iAd9Mb8LxG-54" edge="1">
                    <mxGeometry relative="1" as="geometry">
                        <mxPoint x="647" y="595" as="targetPoint"/>
                    </mxGeometry>
                </mxCell>
                <mxCell id="9vw2iH_w66iAd9Mb8LxG-56" value="xun/dbal/query/query.go" style="rounded=1;whiteSpace=wrap;html=1;" parent="1" vertex="1">
                    <mxGeometry x="557" y="555" width="180" height="60" as="geometry"/>
                </mxCell>
                <mxCell id="9vw2iH_w66iAd9Mb8LxG-66" style="edgeStyle=orthogonalEdgeStyle;curved=1;rounded=0;orthogonalLoop=1;jettySize=auto;html=1;exitX=1;exitY=0.5;exitDx=0;exitDy=0;" parent="1" source="9vw2iH_w66iAd9Mb8LxG-61" target="9vw2iH_w66iAd9Mb8LxG-54" edge="1">
                    <mxGeometry relative="1" as="geometry"/>
                </mxCell>
                <mxCell id="9vw2iH_w66iAd9Mb8LxG-86" value="" style="edgeStyle=orthogonalEdgeStyle;curved=1;rounded=0;orthogonalLoop=1;jettySize=auto;html=1;" parent="1" source="9vw2iH_w66iAd9Mb8LxG-61" target="9vw2iH_w66iAd9Mb8LxG-52" edge="1">
                    <mxGeometry relative="1" as="geometry"/>
                </mxCell>
                <mxCell id="9vw2iH_w66iAd9Mb8LxG-61" value="getCountForPagination" style="rounded=1;whiteSpace=wrap;html=1;" parent="1" vertex="1">
                    <mxGeometry x="340" y="705" width="150" height="60" as="geometry"/>
                </mxCell>
                <mxCell id="9vw2iH_w66iAd9Mb8LxG-81" value="" style="edgeStyle=orthogonalEdgeStyle;curved=1;rounded=0;orthogonalLoop=1;jettySize=auto;html=1;" parent="1" source="9vw2iH_w66iAd9Mb8LxG-67" target="9vw2iH_w66iAd9Mb8LxG-80" edge="1">
                    <mxGeometry relative="1" as="geometry"/>
                </mxCell>
                <mxCell id="9vw2iH_w66iAd9Mb8LxG-67" value="Offset" style="rounded=1;whiteSpace=wrap;html=1;" parent="1" vertex="1">
                    <mxGeometry x="355" y="915" width="120" height="60" as="geometry"/>
                </mxCell>
                <mxCell id="9vw2iH_w66iAd9Mb8LxG-89" style="edgeStyle=orthogonalEdgeStyle;curved=1;rounded=0;orthogonalLoop=1;jettySize=auto;html=1;exitX=1;exitY=0.5;exitDx=0;exitDy=0;" parent="1" source="9vw2iH_w66iAd9Mb8LxG-74" target="9vw2iH_w66iAd9Mb8LxG-67" edge="1">
                    <mxGeometry relative="1" as="geometry"/>
                </mxCell>
                <mxCell id="9vw2iH_w66iAd9Mb8LxG-90" style="edgeStyle=orthogonalEdgeStyle;curved=1;rounded=0;orthogonalLoop=1;jettySize=auto;html=1;exitX=1;exitY=0.5;exitDx=0;exitDy=0;entryX=0;entryY=0.5;entryDx=0;entryDy=0;" parent="1" source="9vw2iH_w66iAd9Mb8LxG-74" target="9vw2iH_w66iAd9Mb8LxG-80" edge="1">
                    <mxGeometry relative="1" as="geometry"/>
                </mxCell>
                <mxCell id="9vw2iH_w66iAd9Mb8LxG-74" value="xun/dbal/query/limit.go" style="rounded=1;whiteSpace=wrap;html=1;" parent="1" vertex="1">
                    <mxGeometry x="80" y="964" width="180" height="60" as="geometry"/>
                </mxCell>
                <mxCell id="9vw2iH_w66iAd9Mb8LxG-88" style="edgeStyle=orthogonalEdgeStyle;curved=1;rounded=0;orthogonalLoop=1;jettySize=auto;html=1;exitX=1;exitY=0.5;exitDx=0;exitDy=0;entryX=0;entryY=0.5;entryDx=0;entryDy=0;" parent="1" source="9vw2iH_w66iAd9Mb8LxG-80" target="9vw2iH_w66iAd9Mb8LxG-54" edge="1">
                    <mxGeometry relative="1" as="geometry"/>
                </mxCell>
                <mxCell id="9vw2iH_w66iAd9Mb8LxG-80" value="Limit" style="rounded=1;whiteSpace=wrap;html=1;" parent="1" vertex="1">
                    <mxGeometry x="355" y="1015" width="120" height="60" as="geometry"/>
                </mxCell>
                <mxCell id="9vw2iH_w66iAd9Mb8LxG-94" value="" style="edgeStyle=orthogonalEdgeStyle;curved=1;rounded=0;orthogonalLoop=1;jettySize=auto;html=1;" parent="1" source="9vw2iH_w66iAd9Mb8LxG-91" target="9vw2iH_w66iAd9Mb8LxG-127" edge="1">
                    <mxGeometry relative="1" as="geometry">
                        <mxPoint x="950" y="735" as="targetPoint"/>
                    </mxGeometry>
                </mxCell>
                <mxCell id="9vw2iH_w66iAd9Mb8LxG-91" value="DB()" style="rounded=1;whiteSpace=wrap;html=1;" parent="1" vertex="1">
                    <mxGeometry x="787" y="705" width="120" height="60" as="geometry"/>
                </mxCell>
                <mxCell id="9vw2iH_w66iAd9Mb8LxG-100" style="edgeStyle=orthogonalEdgeStyle;curved=1;rounded=0;orthogonalLoop=1;jettySize=auto;html=1;exitX=0.5;exitY=1;exitDx=0;exitDy=0;" parent="1" source="9vw2iH_w66iAd9Mb8LxG-95" target="9vw2iH_w66iAd9Mb8LxG-91" edge="1">
                    <mxGeometry relative="1" as="geometry">
                        <mxPoint x="847" y="595" as="targetPoint"/>
                    </mxGeometry>
                </mxCell>
                <mxCell id="9vw2iH_w66iAd9Mb8LxG-95" value="xun/dbal/query/connection.go" style="rounded=1;whiteSpace=wrap;html=1;" parent="1" vertex="1">
                    <mxGeometry x="757" y="555" width="180" height="60" as="geometry"/>
                </mxCell>
                <mxCell id="9vw2iH_w66iAd9Mb8LxG-104" value="" style="edgeStyle=orthogonalEdgeStyle;curved=1;rounded=0;orthogonalLoop=1;jettySize=auto;html=1;" parent="1" source="9vw2iH_w66iAd9Mb8LxG-101" target="9vw2iH_w66iAd9Mb8LxG-103" edge="1">
                    <mxGeometry relative="1" as="geometry"/>
                </mxCell>
                <mxCell id="9vw2iH_w66iAd9Mb8LxG-101" value="dbal/query/builder.go" style="rounded=1;whiteSpace=wrap;html=1;" parent="1" vertex="1">
                    <mxGeometry x="570" y="964" width="180" height="60" as="geometry"/>
                </mxCell>
                <mxCell id="9vw2iH_w66iAd9Mb8LxG-108" style="edgeStyle=orthogonalEdgeStyle;curved=1;rounded=0;orthogonalLoop=1;jettySize=auto;html=1;exitX=0.5;exitY=0;exitDx=0;exitDy=0;" parent="1" source="9vw2iH_w66iAd9Mb8LxG-103" target="9vw2iH_w66iAd9Mb8LxG-91" edge="1">
                    <mxGeometry relative="1" as="geometry"/>
                </mxCell>
                <mxCell id="9vw2iH_w66iAd9Mb8LxG-139" value="" style="edgeStyle=orthogonalEdgeStyle;curved=1;rounded=0;orthogonalLoop=1;jettySize=auto;html=1;" parent="1" source="9vw2iH_w66iAd9Mb8LxG-103" target="9vw2iH_w66iAd9Mb8LxG-138" edge="1">
                    <mxGeometry relative="1" as="geometry"/>
                </mxCell>
                <mxCell id="9vw2iH_w66iAd9Mb8LxG-103" value="连接数据库类型&lt;br&gt;new()" style="rounded=1;whiteSpace=wrap;html=1;" parent="1" vertex="1">
                    <mxGeometry x="807" y="964" width="80" height="60" as="geometry"/>
                </mxCell>
                <mxCell id="XFLC6vvb9SGxg-yfXjd_-11" value="" style="edgeStyle=orthogonalEdgeStyle;curved=1;rounded=0;orthogonalLoop=1;jettySize=auto;html=1;" parent="1" source="9vw2iH_w66iAd9Mb8LxG-109" target="XFLC6vvb9SGxg-yfXjd_-10" edge="1">
                    <mxGeometry relative="1" as="geometry"/>
                </mxCell>
                <mxCell id="9vw2iH_w66iAd9Mb8LxG-109" value="stmt.Query" style="rounded=1;whiteSpace=wrap;html=1;" parent="1" vertex="1">
                    <mxGeometry x="1400" y="705" width="120" height="60" as="geometry"/>
                </mxCell>
                <mxCell id="9vw2iH_w66iAd9Mb8LxG-114" style="edgeStyle=orthogonalEdgeStyle;curved=1;rounded=0;orthogonalLoop=1;jettySize=auto;html=1;exitX=0.5;exitY=1;exitDx=0;exitDy=0;" parent="1" source="9vw2iH_w66iAd9Mb8LxG-112" target="9vw2iH_w66iAd9Mb8LxG-109" edge="1">
                    <mxGeometry relative="1" as="geometry"/>
                </mxCell>
                <mxCell id="XFLC6vvb9SGxg-yfXjd_-6" style="edgeStyle=orthogonalEdgeStyle;curved=1;rounded=0;orthogonalLoop=1;jettySize=auto;html=1;exitX=0.5;exitY=1;exitDx=0;exitDy=0;" parent="1" source="9vw2iH_w66iAd9Mb8LxG-112" target="9vw2iH_w66iAd9Mb8LxG-115" edge="1">
                    <mxGeometry relative="1" as="geometry"/>
                </mxCell>
                <mxCell id="9vw2iH_w66iAd9Mb8LxG-112" value="&lt;span&gt;标准库&lt;/span&gt;&lt;br&gt;&lt;div&gt;/sql/sql.go&lt;/div&gt;" style="rounded=1;whiteSpace=wrap;html=1;" parent="1" vertex="1">
                    <mxGeometry x="1280" y="555" width="180" height="60" as="geometry"/>
                </mxCell>
                <mxCell id="9vw2iH_w66iAd9Mb8LxG-142" style="edgeStyle=orthogonalEdgeStyle;curved=1;rounded=0;orthogonalLoop=1;jettySize=auto;html=1;exitX=1;exitY=0.5;exitDx=0;exitDy=0;" parent="1" source="9vw2iH_w66iAd9Mb8LxG-115" target="9vw2iH_w66iAd9Mb8LxG-109" edge="1">
                    <mxGeometry relative="1" as="geometry"/>
                </mxCell>
                <mxCell id="9vw2iH_w66iAd9Mb8LxG-115" value="db.Prepare" style="rounded=1;whiteSpace=wrap;html=1;" parent="1" vertex="1">
                    <mxGeometry x="1230" y="705" width="120" height="60" as="geometry"/>
                </mxCell>
                <mxCell id="9vw2iH_w66iAd9Mb8LxG-125" value="" style="edgeStyle=orthogonalEdgeStyle;curved=1;rounded=0;orthogonalLoop=1;jettySize=auto;html=1;" parent="1" source="9vw2iH_w66iAd9Mb8LxG-122" target="9vw2iH_w66iAd9Mb8LxG-127" edge="1">
                    <mxGeometry relative="1" as="geometry">
                        <mxPoint x="1090" y="595" as="targetPoint"/>
                    </mxGeometry>
                </mxCell>
                <mxCell id="9vw2iH_w66iAd9Mb8LxG-122" value="xun/dbal/query/query.go" style="rounded=1;whiteSpace=wrap;html=1;" parent="1" vertex="1">
                    <mxGeometry x="1000" y="555" width="180" height="60" as="geometry"/>
                </mxCell>
                <mxCell id="9vw2iH_w66iAd9Mb8LxG-135" value="" style="edgeStyle=orthogonalEdgeStyle;curved=1;rounded=0;orthogonalLoop=1;jettySize=auto;html=1;" parent="1" source="9vw2iH_w66iAd9Mb8LxG-127" target="9vw2iH_w66iAd9Mb8LxG-130" edge="1">
                    <mxGeometry relative="1" as="geometry"/>
                </mxCell>
                <mxCell id="9vw2iH_w66iAd9Mb8LxG-141" style="edgeStyle=orthogonalEdgeStyle;curved=1;rounded=0;orthogonalLoop=1;jettySize=auto;html=1;exitX=1;exitY=0.5;exitDx=0;exitDy=0;" parent="1" source="9vw2iH_w66iAd9Mb8LxG-127" target="9vw2iH_w66iAd9Mb8LxG-115" edge="1">
                    <mxGeometry relative="1" as="geometry"/>
                </mxCell>
                <mxCell id="9vw2iH_w66iAd9Mb8LxG-127" value="ToSQL" style="rounded=1;whiteSpace=wrap;html=1;" parent="1" vertex="1">
                    <mxGeometry x="1030" y="705" width="120" height="60" as="geometry"/>
                </mxCell>
                <mxCell id="9vw2iH_w66iAd9Mb8LxG-137" value="" style="edgeStyle=orthogonalEdgeStyle;curved=1;rounded=0;orthogonalLoop=1;jettySize=auto;html=1;" parent="1" source="9vw2iH_w66iAd9Mb8LxG-130" target="9vw2iH_w66iAd9Mb8LxG-136" edge="1">
                    <mxGeometry relative="1" as="geometry"/>
                </mxCell>
                <mxCell id="9vw2iH_w66iAd9Mb8LxG-130" value="CompileSelect" style="rounded=1;whiteSpace=wrap;html=1;" parent="1" vertex="1">
                    <mxGeometry x="1025" y="825" width="130" height="60" as="geometry"/>
                </mxCell>
                <mxCell id="9vw2iH_w66iAd9Mb8LxG-136" value="不同的数据库有不同的Grammar" style="rounded=1;whiteSpace=wrap;html=1;" parent="1" vertex="1">
                    <mxGeometry x="1025" y="964" width="130" height="60" as="geometry"/>
                </mxCell>
                <mxCell id="9vw2iH_w66iAd9Mb8LxG-140" value="" style="edgeStyle=orthogonalEdgeStyle;curved=1;rounded=0;orthogonalLoop=1;jettySize=auto;html=1;" parent="1" source="9vw2iH_w66iAd9Mb8LxG-138" target="9vw2iH_w66iAd9Mb8LxG-136" edge="1">
                    <mxGeometry relative="1" as="geometry"/>
                </mxCell>
                <mxCell id="9vw2iH_w66iAd9Mb8LxG-138" value="根据数据库类型选择语法适配器&lt;br&gt;newGrammar" style="rounded=1;whiteSpace=wrap;html=1;" parent="1" vertex="1">
                    <mxGeometry x="795.5" y="1095" width="103" height="60" as="geometry"/>
                </mxCell>
                <mxCell id="9vw2iH_w66iAd9Mb8LxG-147" value="" style="edgeStyle=orthogonalEdgeStyle;curved=1;rounded=0;orthogonalLoop=1;jettySize=auto;html=1;" parent="1" source="9vw2iH_w66iAd9Mb8LxG-145" target="9vw2iH_w66iAd9Mb8LxG-130" edge="1">
                    <mxGeometry relative="1" as="geometry"/>
                </mxCell>
                <mxCell id="9vw2iH_w66iAd9Mb8LxG-145" value="xun/grammar/sqlite3/compile.go" style="rounded=1;whiteSpace=wrap;html=1;" parent="1" vertex="1">
                    <mxGeometry x="1220" y="825" width="195" height="60" as="geometry"/>
                </mxCell>
                <mxCell id="wagm8GXT-jJfZ06G-gbX-4" style="edgeStyle=orthogonalEdgeStyle;curved=1;rounded=0;orthogonalLoop=1;jettySize=auto;html=1;exitX=0.5;exitY=1;exitDx=0;exitDy=0;" parent="1" source="wagm8GXT-jJfZ06G-gbX-1" target="9vw2iH_w66iAd9Mb8LxG-48" edge="1">
                    <mxGeometry relative="1" as="geometry"/>
                </mxCell>
                <mxCell id="wagm8GXT-jJfZ06G-gbX-5" style="edgeStyle=orthogonalEdgeStyle;curved=1;rounded=0;orthogonalLoop=1;jettySize=auto;html=1;exitX=0.5;exitY=1;exitDx=0;exitDy=0;" parent="1" source="wagm8GXT-jJfZ06G-gbX-1" target="9vw2iH_w66iAd9Mb8LxG-56" edge="1">
                    <mxGeometry relative="1" as="geometry"/>
                </mxCell>
                <mxCell id="wagm8GXT-jJfZ06G-gbX-6" style="edgeStyle=orthogonalEdgeStyle;curved=1;rounded=0;orthogonalLoop=1;jettySize=auto;html=1;exitX=0.5;exitY=1;exitDx=0;exitDy=0;" parent="1" source="wagm8GXT-jJfZ06G-gbX-1" target="9vw2iH_w66iAd9Mb8LxG-95" edge="1">
                    <mxGeometry relative="1" as="geometry"/>
                </mxCell>
                <mxCell id="wagm8GXT-jJfZ06G-gbX-7" style="edgeStyle=orthogonalEdgeStyle;curved=1;rounded=0;orthogonalLoop=1;jettySize=auto;html=1;exitX=0.5;exitY=1;exitDx=0;exitDy=0;" parent="1" source="wagm8GXT-jJfZ06G-gbX-1" target="9vw2iH_w66iAd9Mb8LxG-122" edge="1">
                    <mxGeometry relative="1" as="geometry"/>
                </mxCell>
                <mxCell id="wagm8GXT-jJfZ06G-gbX-1" value="builder" style="rounded=1;whiteSpace=wrap;html=1;fillColor=#dae8fc;strokeColor=#6c8ebf;" parent="1" vertex="1">
                    <mxGeometry x="500" y="385" width="120" height="60" as="geometry"/>
                </mxCell>
                <mxCell id="-VEwrL0JN7dvzHvKn0rr-2" value="" style="edgeStyle=orthogonalEdgeStyle;curved=1;rounded=0;orthogonalLoop=1;jettySize=auto;html=1;" parent="1" source="-VEwrL0JN7dvzHvKn0rr-1" target="wagm8GXT-jJfZ06G-gbX-1" edge="1">
                    <mxGeometry relative="1" as="geometry"/>
                </mxCell>
                <mxCell id="-VEwrL0JN7dvzHvKn0rr-1" value="dbal/query/types.go" style="rounded=1;whiteSpace=wrap;html=1;" parent="1" vertex="1">
                    <mxGeometry x="323" y="385" width="120" height="60" as="geometry"/>
                </mxCell>
                <mxCell id="KgaDuPcTvqmgSFb9li3d-3" value="" style="edgeStyle=orthogonalEdgeStyle;curved=1;rounded=0;orthogonalLoop=1;jettySize=auto;html=1;" parent="1" source="KgaDuPcTvqmgSFb9li3d-1" target="wagm8GXT-jJfZ06G-gbX-1" edge="1">
                    <mxGeometry relative="1" as="geometry"/>
                </mxCell>
                <mxCell id="KgaDuPcTvqmgSFb9li3d-1" value="接口&lt;br&gt;Query" style="rounded=1;whiteSpace=wrap;html=1;" parent="1" vertex="1">
                    <mxGeometry x="500" y="275" width="120" height="60" as="geometry"/>
                </mxCell>
                <mxCell id="KgaDuPcTvqmgSFb9li3d-4" value="" style="edgeStyle=orthogonalEdgeStyle;curved=1;rounded=0;orthogonalLoop=1;jettySize=auto;html=1;" parent="1" source="KgaDuPcTvqmgSFb9li3d-2" target="KgaDuPcTvqmgSFb9li3d-1" edge="1">
                    <mxGeometry relative="1" as="geometry"/>
                </mxCell>
                <mxCell id="KgaDuPcTvqmgSFb9li3d-2" value="dbal/query/interfaces.go" style="rounded=1;whiteSpace=wrap;html=1;" parent="1" vertex="1">
                    <mxGeometry x="309.5" y="275" width="147" height="60" as="geometry"/>
                </mxCell>
                <mxCell id="XFLC6vvb9SGxg-yfXjd_-3" value="" style="edgeStyle=orthogonalEdgeStyle;curved=1;rounded=0;orthogonalLoop=1;jettySize=auto;html=1;" parent="1" source="XFLC6vvb9SGxg-yfXjd_-2" target="9vw2iH_w66iAd9Mb8LxG-2" edge="1">
                    <mxGeometry relative="1" as="geometry"/>
                </mxCell>
                <mxCell id="XFLC6vvb9SGxg-yfXjd_-5" value="" style="edgeStyle=orthogonalEdgeStyle;curved=1;rounded=0;orthogonalLoop=1;jettySize=auto;html=1;" parent="1" source="XFLC6vvb9SGxg-yfXjd_-2" target="9vw2iH_w66iAd9Mb8LxG-20" edge="1">
                    <mxGeometry relative="1" as="geometry"/>
                </mxCell>
                <mxCell id="XFLC6vvb9SGxg-yfXjd_-2" value="gou/query.stack.go" style="rounded=1;whiteSpace=wrap;html=1;" parent="1" vertex="1">
                    <mxGeometry x="-260" y="435" width="120" height="60" as="geometry"/>
                </mxCell>
                <mxCell id="XFLC6vvb9SGxg-yfXjd_-9" value="" style="edgeStyle=orthogonalEdgeStyle;curved=1;rounded=0;orthogonalLoop=1;jettySize=auto;html=1;" parent="1" source="XFLC6vvb9SGxg-yfXjd_-7" target="9vw2iH_w66iAd9Mb8LxG-112" edge="1">
                    <mxGeometry relative="1" as="geometry"/>
                </mxCell>
                <mxCell id="XFLC6vvb9SGxg-yfXjd_-7" value="&lt;span&gt;sqlx.DB&lt;/span&gt;" style="rounded=1;whiteSpace=wrap;html=1;fillColor=#dae8fc;strokeColor=#6c8ebf;" parent="1" vertex="1">
                    <mxGeometry x="1280" y="415" width="180" height="60" as="geometry"/>
                </mxCell>
                <mxCell id="XFLC6vvb9SGxg-yfXjd_-10" value="结果" style="rounded=1;whiteSpace=wrap;html=1;" parent="1" vertex="1">
                    <mxGeometry x="1600" y="705" width="120" height="60" as="geometry"/>
                </mxCell>
                <mxCell id="XFLC6vvb9SGxg-yfXjd_-13" value="" style="edgeStyle=orthogonalEdgeStyle;curved=1;rounded=0;orthogonalLoop=1;jettySize=auto;html=1;" parent="1" source="XFLC6vvb9SGxg-yfXjd_-12" target="9vw2iH_w66iAd9Mb8LxG-39" edge="1">
                    <mxGeometry relative="1" as="geometry"/>
                </mxCell>
                <mxCell id="XFLC6vvb9SGxg-yfXjd_-12" value="extraProcess" style="rounded=1;whiteSpace=wrap;html=1;" parent="1" vertex="1">
                    <mxGeometry x="-850" y="705" width="120" height="60" as="geometry"/>
                </mxCell>
                <mxCell id="XFLC6vvb9SGxg-yfXjd_-20" value="" style="edgeStyle=orthogonalEdgeStyle;curved=1;rounded=0;orthogonalLoop=1;jettySize=auto;html=1;" parent="1" source="XFLC6vvb9SGxg-yfXjd_-14" target="XFLC6vvb9SGxg-yfXjd_-19" edge="1">
                    <mxGeometry relative="1" as="geometry"/>
                </mxCell>
                <mxCell id="XFLC6vvb9SGxg-yfXjd_-14" value="gou/process.go" style="rounded=1;whiteSpace=wrap;html=1;" parent="1" vertex="1">
                    <mxGeometry x="-940" y="435" width="120" height="60" as="geometry"/>
                </mxCell>
                <mxCell id="XFLC6vvb9SGxg-yfXjd_-18" value="" style="edgeStyle=orthogonalEdgeStyle;curved=1;rounded=0;orthogonalLoop=1;jettySize=auto;html=1;" parent="1" source="XFLC6vvb9SGxg-yfXjd_-16" target="9vw2iH_w66iAd9Mb8LxG-39" edge="1">
                    <mxGeometry relative="1" as="geometry"/>
                </mxCell>
                <mxCell id="XFLC6vvb9SGxg-yfXjd_-16" value="Process" style="rounded=1;whiteSpace=wrap;html=1;fillColor=#dae8fc;strokeColor=#6c8ebf;" parent="1" vertex="1">
                    <mxGeometry x="-660" y="555" width="120" height="60" as="geometry"/>
                </mxCell>
                <mxCell id="XFLC6vvb9SGxg-yfXjd_-21" value="" style="edgeStyle=orthogonalEdgeStyle;curved=1;rounded=0;orthogonalLoop=1;jettySize=auto;html=1;" parent="1" source="XFLC6vvb9SGxg-yfXjd_-19" target="XFLC6vvb9SGxg-yfXjd_-12" edge="1">
                    <mxGeometry relative="1" as="geometry"/>
                </mxCell>
                <mxCell id="XFLC6vvb9SGxg-yfXjd_-25" style="edgeStyle=orthogonalEdgeStyle;curved=1;rounded=0;orthogonalLoop=1;jettySize=auto;html=1;exitX=0.5;exitY=1;exitDx=0;exitDy=0;" parent="1" source="XFLC6vvb9SGxg-yfXjd_-19" target="XFLC6vvb9SGxg-yfXjd_-22" edge="1">
                    <mxGeometry relative="1" as="geometry"/>
                </mxCell>
                <mxCell id="XFLC6vvb9SGxg-yfXjd_-19" value="Process" style="rounded=1;whiteSpace=wrap;html=1;fillColor=#dae8fc;strokeColor=#6c8ebf;" parent="1" vertex="1">
                    <mxGeometry x="-940" y="565" width="120" height="60" as="geometry"/>
                </mxCell>
                <mxCell id="XFLC6vvb9SGxg-yfXjd_-24" value="" style="edgeStyle=orthogonalEdgeStyle;curved=1;rounded=0;orthogonalLoop=1;jettySize=auto;html=1;" parent="1" source="XFLC6vvb9SGxg-yfXjd_-22" target="XFLC6vvb9SGxg-yfXjd_-12" edge="1">
                    <mxGeometry relative="1" as="geometry"/>
                </mxCell>
                <mxCell id="XFLC6vvb9SGxg-yfXjd_-22" value="NewProcess" style="rounded=1;whiteSpace=wrap;html=1;" parent="1" vertex="1">
                    <mxGeometry x="-1030" y="705" width="120" height="60" as="geometry"/>
                </mxCell>
                <mxCell id="XFLC6vvb9SGxg-yfXjd_-29" value="" style="edgeStyle=orthogonalEdgeStyle;curved=1;rounded=0;orthogonalLoop=1;jettySize=auto;html=1;" parent="1" source="XFLC6vvb9SGxg-yfXjd_-26" target="XFLC6vvb9SGxg-yfXjd_-28" edge="1">
                    <mxGeometry relative="1" as="geometry"/>
                </mxCell>
                <mxCell id="XFLC6vvb9SGxg-yfXjd_-26" value="gou/flow.process.go" style="rounded=1;whiteSpace=wrap;html=1;" parent="1" vertex="1">
                    <mxGeometry x="-1610" y="645" width="120" height="60" as="geometry"/>
                </mxCell>
                <mxCell id="XFLC6vvb9SGxg-yfXjd_-31" value="" style="edgeStyle=orthogonalEdgeStyle;curved=1;rounded=0;orthogonalLoop=1;jettySize=auto;html=1;" parent="1" source="XFLC6vvb9SGxg-yfXjd_-28" target="XFLC6vvb9SGxg-yfXjd_-30" edge="1">
                    <mxGeometry relative="1" as="geometry"/>
                </mxCell>
                <mxCell id="XFLC6vvb9SGxg-yfXjd_-28" value="Flow" style="rounded=1;whiteSpace=wrap;html=1;fillColor=#dae8fc;strokeColor=#6c8ebf;" parent="1" vertex="1">
                    <mxGeometry x="-1450" y="645" width="120" height="60" as="geometry"/>
                </mxCell>
                <mxCell id="XFLC6vvb9SGxg-yfXjd_-32" value="" style="edgeStyle=orthogonalEdgeStyle;curved=1;rounded=0;orthogonalLoop=1;jettySize=auto;html=1;" parent="1" source="XFLC6vvb9SGxg-yfXjd_-30" target="XFLC6vvb9SGxg-yfXjd_-22" edge="1">
                    <mxGeometry relative="1" as="geometry"/>
                </mxCell>
                <mxCell id="XFLC6vvb9SGxg-yfXjd_-30" value="RunProcess" style="rounded=1;whiteSpace=wrap;html=1;" parent="1" vertex="1">
                    <mxGeometry x="-1270" y="645" width="120" height="60" as="geometry"/>
                </mxCell>
                <mxCell id="XFLC6vvb9SGxg-yfXjd_-46" value="" style="edgeStyle=orthogonalEdgeStyle;curved=1;rounded=0;orthogonalLoop=1;jettySize=auto;html=1;" parent="1" source="XFLC6vvb9SGxg-yfXjd_-33" target="XFLC6vvb9SGxg-yfXjd_-45" edge="1">
                    <mxGeometry relative="1" as="geometry"/>
                </mxCell>
                <mxCell id="XFLC6vvb9SGxg-yfXjd_-33" value="gou/api.http.go" style="rounded=1;whiteSpace=wrap;html=1;" parent="1" vertex="1">
                    <mxGeometry x="-1610" y="755" width="120" height="60" as="geometry"/>
                </mxCell>
                <mxCell id="XFLC6vvb9SGxg-yfXjd_-36" style="edgeStyle=orthogonalEdgeStyle;curved=1;rounded=0;orthogonalLoop=1;jettySize=auto;html=1;exitX=1;exitY=0.5;exitDx=0;exitDy=0;entryX=0;entryY=0.5;entryDx=0;entryDy=0;" parent="1" source="XFLC6vvb9SGxg-yfXjd_-34" target="XFLC6vvb9SGxg-yfXjd_-22" edge="1">
                    <mxGeometry relative="1" as="geometry"/>
                </mxCell>
                <mxCell id="XFLC6vvb9SGxg-yfXjd_-34" value="Route" style="rounded=1;whiteSpace=wrap;html=1;" parent="1" vertex="1">
                    <mxGeometry x="-1270" y="755" width="120" height="60" as="geometry"/>
                </mxCell>
                <mxCell id="XFLC6vvb9SGxg-yfXjd_-43" value="" style="edgeStyle=orthogonalEdgeStyle;curved=1;rounded=0;orthogonalLoop=1;jettySize=auto;html=1;" parent="1" source="XFLC6vvb9SGxg-yfXjd_-37" target="XFLC6vvb9SGxg-yfXjd_-42" edge="1">
                    <mxGeometry relative="1" as="geometry"/>
                </mxCell>
                <mxCell id="XFLC6vvb9SGxg-yfXjd_-37" value="gou/api.ws.go" style="rounded=1;whiteSpace=wrap;html=1;" parent="1" vertex="1">
                    <mxGeometry x="-1610" y="545" width="120" height="60" as="geometry"/>
                </mxCell>
                <mxCell id="XFLC6vvb9SGxg-yfXjd_-41" style="edgeStyle=orthogonalEdgeStyle;curved=1;rounded=0;orthogonalLoop=1;jettySize=auto;html=1;exitX=1;exitY=0.5;exitDx=0;exitDy=0;entryX=0;entryY=0.5;entryDx=0;entryDy=0;" parent="1" source="XFLC6vvb9SGxg-yfXjd_-39" target="XFLC6vvb9SGxg-yfXjd_-22" edge="1">
                    <mxGeometry relative="1" as="geometry"/>
                </mxCell>
                <mxCell id="XFLC6vvb9SGxg-yfXjd_-39" value="LoadWebSocket" style="rounded=1;whiteSpace=wrap;html=1;" parent="1" vertex="1">
                    <mxGeometry x="-1270" y="545" width="120" height="60" as="geometry"/>
                </mxCell>
                <mxCell id="XFLC6vvb9SGxg-yfXjd_-44" value="" style="edgeStyle=orthogonalEdgeStyle;curved=1;rounded=0;orthogonalLoop=1;jettySize=auto;html=1;" parent="1" source="XFLC6vvb9SGxg-yfXjd_-42" target="XFLC6vvb9SGxg-yfXjd_-39" edge="1">
                    <mxGeometry relative="1" as="geometry"/>
                </mxCell>
                <mxCell id="XFLC6vvb9SGxg-yfXjd_-42" value="Web Socket" style="rounded=1;whiteSpace=wrap;html=1;fillColor=#dae8fc;strokeColor=#6c8ebf;" parent="1" vertex="1">
                    <mxGeometry x="-1450" y="545" width="120" height="60" as="geometry"/>
                </mxCell>
                <mxCell id="XFLC6vvb9SGxg-yfXjd_-47" value="" style="edgeStyle=orthogonalEdgeStyle;curved=1;rounded=0;orthogonalLoop=1;jettySize=auto;html=1;" parent="1" source="XFLC6vvb9SGxg-yfXjd_-45" target="XFLC6vvb9SGxg-yfXjd_-34" edge="1">
                    <mxGeometry relative="1" as="geometry"/>
                </mxCell>
                <mxCell id="XFLC6vvb9SGxg-yfXjd_-45" value="HTTP" style="rounded=1;whiteSpace=wrap;html=1;fillColor=#dae8fc;strokeColor=#6c8ebf;" parent="1" vertex="1">
                    <mxGeometry x="-1450" y="755" width="120" height="60" as="geometry"/>
                </mxCell>
                <mxCell id="XFLC6vvb9SGxg-yfXjd_-48" value="" style="edgeStyle=orthogonalEdgeStyle;curved=1;rounded=0;orthogonalLoop=1;jettySize=auto;html=1;" parent="1" source="XFLC6vvb9SGxg-yfXjd_-49" target="XFLC6vvb9SGxg-yfXjd_-52" edge="1">
                    <mxGeometry relative="1" as="geometry"/>
                </mxCell>
                <mxCell id="XFLC6vvb9SGxg-yfXjd_-49" value="yao/cmd/run.go" style="rounded=1;whiteSpace=wrap;html=1;" parent="1" vertex="1">
                    <mxGeometry x="-1610" y="855" width="120" height="60" as="geometry"/>
                </mxCell>
                <mxCell id="XFLC6vvb9SGxg-yfXjd_-53" style="edgeStyle=orthogonalEdgeStyle;curved=1;rounded=0;orthogonalLoop=1;jettySize=auto;html=1;exitX=1;exitY=0.5;exitDx=0;exitDy=0;entryX=0;entryY=0.5;entryDx=0;entryDy=0;" parent="1" source="XFLC6vvb9SGxg-yfXjd_-52" target="XFLC6vvb9SGxg-yfXjd_-22" edge="1">
                    <mxGeometry relative="1" as="geometry"/>
                </mxCell>
                <mxCell id="XFLC6vvb9SGxg-yfXjd_-52" value="runCmd" style="rounded=1;whiteSpace=wrap;html=1;" parent="1" vertex="1">
                    <mxGeometry x="-1270" y="855" width="120" height="60" as="geometry"/>
                </mxCell>
                <mxCell id="Ixq7kiKj42Teq3OHVY18-4" value="" style="edgeStyle=orthogonalEdgeStyle;rounded=0;orthogonalLoop=1;jettySize=auto;html=1;" parent="1" source="Ixq7kiKj42Teq3OHVY18-1" target="Ixq7kiKj42Teq3OHVY18-3" edge="1">
                    <mxGeometry relative="1" as="geometry"/>
                </mxCell>
                <mxCell id="Ixq7kiKj42Teq3OHVY18-1" value="yao/helper/process.go" style="rounded=1;whiteSpace=wrap;html=1;" parent="1" vertex="1">
                    <mxGeometry x="-1610" y="955" width="120" height="60" as="geometry"/>
                </mxCell>
                <mxCell id="Ixq7kiKj42Teq3OHVY18-5" style="edgeStyle=orthogonalEdgeStyle;rounded=0;orthogonalLoop=1;jettySize=auto;html=1;exitX=1;exitY=0.5;exitDx=0;exitDy=0;entryX=0;entryY=0.5;entryDx=0;entryDy=0;curved=1;" parent="1" source="Ixq7kiKj42Teq3OHVY18-3" target="XFLC6vvb9SGxg-yfXjd_-22" edge="1">
                    <mxGeometry relative="1" as="geometry"/>
                </mxCell>
                <mxCell id="Ixq7kiKj42Teq3OHVY18-3" value="helper" style="rounded=1;whiteSpace=wrap;html=1;" parent="1" vertex="1">
                    <mxGeometry x="-1270" y="955" width="120" height="60" as="geometry"/>
                </mxCell>
                <mxCell id="RFSLeqy_KOyXr4OKLnsI-1" value="&lt;h1&gt;Query执行过程&lt;/h1&gt;&lt;p&gt;数据库读取数据的全流程&lt;/p&gt;" style="text;html=1;strokeColor=#6c8ebf;fillColor=#dae8fc;spacing=5;spacingTop=-20;whiteSpace=wrap;overflow=hidden;rounded=0;" vertex="1" parent="1">
                    <mxGeometry x="-1640" y="30" width="190" height="120" as="geometry"/>
                </mxCell>
            </root>
        </mxGraphModel>
    </diagram>
    <diagram id="FYEyMTsSIDZhmcw9kDWi" name="gRPC插件逻辑">
        <mxGraphModel dx="2632" dy="1390" grid="1" gridSize="10" guides="1" tooltips="1" connect="1" arrows="1" fold="1" page="1" pageScale="1" pageWidth="827" pageHeight="1169" math="0" shadow="0">
            <root>
                <mxCell id="0"/>
                <mxCell id="1" parent="0"/>
                <mxCell id="oxouKHVBT4n6t-2mjdCC-18" value="" style="edgeStyle=none;rounded=0;orthogonalLoop=1;jettySize=auto;html=1;" parent="1" source="lD-KVsaU5yZpkKz-LqvG-1" target="oxouKHVBT4n6t-2mjdCC-17" edge="1">
                    <mxGeometry relative="1" as="geometry"/>
                </mxCell>
                <mxCell id="lD-KVsaU5yZpkKz-LqvG-1" value="server" style="rounded=1;whiteSpace=wrap;html=1;" parent="1" vertex="1">
                    <mxGeometry x="60" y="450" width="120" height="60" as="geometry"/>
                </mxCell>
                <mxCell id="oxouKHVBT4n6t-2mjdCC-4" style="rounded=0;orthogonalLoop=1;jettySize=auto;html=1;exitX=0.5;exitY=1;exitDx=0;exitDy=0;entryX=0.5;entryY=0;entryDx=0;entryDy=0;" parent="1" source="oxouKHVBT4n6t-2mjdCC-2" target="lD-KVsaU5yZpkKz-LqvG-1" edge="1">
                    <mxGeometry relative="1" as="geometry"/>
                </mxCell>
                <mxCell id="oxouKHVBT4n6t-2mjdCC-5" style="rounded=0;orthogonalLoop=1;jettySize=auto;html=1;exitX=0.5;exitY=1;exitDx=0;exitDy=0;entryX=0.5;entryY=0;entryDx=0;entryDy=0;" parent="1" source="oxouKHVBT4n6t-2mjdCC-2" target="oxouKHVBT4n6t-2mjdCC-3" edge="1">
                    <mxGeometry relative="1" as="geometry"/>
                </mxCell>
                <mxCell id="oxouKHVBT4n6t-2mjdCC-27" value="" style="edgeStyle=none;rounded=0;orthogonalLoop=1;jettySize=auto;html=1;" parent="1" source="oxouKHVBT4n6t-2mjdCC-2" target="oxouKHVBT4n6t-2mjdCC-26" edge="1">
                    <mxGeometry relative="1" as="geometry"/>
                </mxCell>
                <mxCell id="oxouKHVBT4n6t-2mjdCC-2" value="Plugin" style="rounded=1;whiteSpace=wrap;html=1;" parent="1" vertex="1">
                    <mxGeometry x="150" y="340" width="120" height="60" as="geometry"/>
                </mxCell>
                <mxCell id="oxouKHVBT4n6t-2mjdCC-16" value="" style="edgeStyle=none;rounded=0;orthogonalLoop=1;jettySize=auto;html=1;" parent="1" source="oxouKHVBT4n6t-2mjdCC-3" target="oxouKHVBT4n6t-2mjdCC-15" edge="1">
                    <mxGeometry relative="1" as="geometry"/>
                </mxCell>
                <mxCell id="oxouKHVBT4n6t-2mjdCC-3" value="Client" style="rounded=1;whiteSpace=wrap;html=1;" parent="1" vertex="1">
                    <mxGeometry x="240" y="450" width="120" height="60" as="geometry"/>
                </mxCell>
                <mxCell id="oxouKHVBT4n6t-2mjdCC-43" value="" style="edgeStyle=none;rounded=0;orthogonalLoop=1;jettySize=auto;html=1;exitX=1;exitY=0.5;exitDx=0;exitDy=0;" parent="1" source="oxouKHVBT4n6t-2mjdCC-62" target="oxouKHVBT4n6t-2mjdCC-42" edge="1">
                    <mxGeometry relative="1" as="geometry"/>
                </mxCell>
                <mxCell id="oxouKHVBT4n6t-2mjdCC-63" value="" style="edgeStyle=none;rounded=0;orthogonalLoop=1;jettySize=auto;html=1;" parent="1" source="oxouKHVBT4n6t-2mjdCC-10" target="oxouKHVBT4n6t-2mjdCC-62" edge="1">
                    <mxGeometry relative="1" as="geometry"/>
                </mxCell>
                <mxCell id="oxouKHVBT4n6t-2mjdCC-10" value="GRPCServer" style="rounded=1;whiteSpace=wrap;html=1;" parent="1" vertex="1">
                    <mxGeometry x="717" y="640" width="120" height="60" as="geometry"/>
                </mxCell>
                <mxCell id="oxouKHVBT4n6t-2mjdCC-11" style="rounded=0;orthogonalLoop=1;jettySize=auto;html=1;exitX=0.5;exitY=1;exitDx=0;exitDy=0;entryX=0.5;entryY=0;entryDx=0;entryDy=0;" parent="1" source="oxouKHVBT4n6t-2mjdCC-13" target="oxouKHVBT4n6t-2mjdCC-10" edge="1">
                    <mxGeometry relative="1" as="geometry"/>
                </mxCell>
                <mxCell id="oxouKHVBT4n6t-2mjdCC-12" style="rounded=0;orthogonalLoop=1;jettySize=auto;html=1;exitX=0.5;exitY=1;exitDx=0;exitDy=0;entryX=0.5;entryY=0;entryDx=0;entryDy=0;" parent="1" source="oxouKHVBT4n6t-2mjdCC-13" target="oxouKHVBT4n6t-2mjdCC-14" edge="1">
                    <mxGeometry relative="1" as="geometry"/>
                </mxCell>
                <mxCell id="oxouKHVBT4n6t-2mjdCC-56" style="edgeStyle=none;rounded=0;orthogonalLoop=1;jettySize=auto;html=1;exitX=0.5;exitY=0;exitDx=0;exitDy=0;" parent="1" source="oxouKHVBT4n6t-2mjdCC-13" target="oxouKHVBT4n6t-2mjdCC-54" edge="1">
                    <mxGeometry relative="1" as="geometry"/>
                </mxCell>
                <mxCell id="oxouKHVBT4n6t-2mjdCC-13" value="GRPCPlugin" style="rounded=1;whiteSpace=wrap;html=1;" parent="1" vertex="1">
                    <mxGeometry x="570" y="520" width="120" height="60" as="geometry"/>
                </mxCell>
                <mxCell id="oxouKHVBT4n6t-2mjdCC-79" style="edgeStyle=none;rounded=0;orthogonalLoop=1;jettySize=auto;html=1;exitX=0.5;exitY=1;exitDx=0;exitDy=0;" parent="1" source="oxouKHVBT4n6t-2mjdCC-14" target="oxouKHVBT4n6t-2mjdCC-70" edge="1">
                    <mxGeometry relative="1" as="geometry"/>
                </mxCell>
                <mxCell id="oxouKHVBT4n6t-2mjdCC-14" value="GRPCClient" style="rounded=1;whiteSpace=wrap;html=1;" parent="1" vertex="1">
                    <mxGeometry x="440" y="640" width="120" height="60" as="geometry"/>
                </mxCell>
                <mxCell id="oxouKHVBT4n6t-2mjdCC-20" value="" style="edgeStyle=none;rounded=0;orthogonalLoop=1;jettySize=auto;html=1;" parent="1" source="oxouKHVBT4n6t-2mjdCC-15" target="oxouKHVBT4n6t-2mjdCC-19" edge="1">
                    <mxGeometry relative="1" as="geometry"/>
                </mxCell>
                <mxCell id="oxouKHVBT4n6t-2mjdCC-15" value="ClientConfig" style="rounded=1;whiteSpace=wrap;html=1;" parent="1" vertex="1">
                    <mxGeometry x="240" y="590" width="120" height="60" as="geometry"/>
                </mxCell>
                <mxCell id="oxouKHVBT4n6t-2mjdCC-21" style="edgeStyle=none;rounded=0;orthogonalLoop=1;jettySize=auto;html=1;exitX=0.5;exitY=1;exitDx=0;exitDy=0;" parent="1" source="oxouKHVBT4n6t-2mjdCC-17" target="oxouKHVBT4n6t-2mjdCC-19" edge="1">
                    <mxGeometry relative="1" as="geometry"/>
                </mxCell>
                <mxCell id="oxouKHVBT4n6t-2mjdCC-17" value="ServeConfig" style="rounded=1;whiteSpace=wrap;html=1;" parent="1" vertex="1">
                    <mxGeometry x="60" y="590" width="120" height="60" as="geometry"/>
                </mxCell>
                <mxCell id="oxouKHVBT4n6t-2mjdCC-19" value="HandshakeConfig" style="rounded=1;whiteSpace=wrap;html=1;" parent="1" vertex="1">
                    <mxGeometry x="150" y="720" width="120" height="60" as="geometry"/>
                </mxCell>
                <mxCell id="oxouKHVBT4n6t-2mjdCC-26" value="net/rpc" style="rounded=1;whiteSpace=wrap;html=1;" parent="1" vertex="1">
                    <mxGeometry x="150" y="200" width="120" height="60" as="geometry"/>
                </mxCell>
                <mxCell id="oxouKHVBT4n6t-2mjdCC-55" value="" style="edgeStyle=none;rounded=0;orthogonalLoop=1;jettySize=auto;html=1;" parent="1" source="oxouKHVBT4n6t-2mjdCC-28" target="oxouKHVBT4n6t-2mjdCC-54" edge="1">
                    <mxGeometry relative="1" as="geometry"/>
                </mxCell>
                <mxCell id="oxouKHVBT4n6t-2mjdCC-28" value="gRPC" style="rounded=1;whiteSpace=wrap;html=1;" parent="1" vertex="1">
                    <mxGeometry x="570" y="200" width="120" height="60" as="geometry"/>
                </mxCell>
                <mxCell id="oxouKHVBT4n6t-2mjdCC-32" style="edgeStyle=none;rounded=0;orthogonalLoop=1;jettySize=auto;html=1;exitX=1;exitY=1;exitDx=0;exitDy=0;entryX=0.5;entryY=0;entryDx=0;entryDy=0;" parent="1" source="oxouKHVBT4n6t-2mjdCC-30" target="oxouKHVBT4n6t-2mjdCC-28" edge="1">
                    <mxGeometry relative="1" as="geometry"/>
                </mxCell>
                <mxCell id="oxouKHVBT4n6t-2mjdCC-33" style="edgeStyle=none;rounded=0;orthogonalLoop=1;jettySize=auto;html=1;exitX=0;exitY=1;exitDx=0;exitDy=0;entryX=0.5;entryY=0;entryDx=0;entryDy=0;" parent="1" source="oxouKHVBT4n6t-2mjdCC-30" target="oxouKHVBT4n6t-2mjdCC-26" edge="1">
                    <mxGeometry relative="1" as="geometry"/>
                </mxCell>
                <mxCell id="oxouKHVBT4n6t-2mjdCC-30" value="Plugin" style="rounded=1;whiteSpace=wrap;html=1;" parent="1" vertex="1">
                    <mxGeometry x="360" y="60" width="120" height="60" as="geometry"/>
                </mxCell>
                <mxCell id="oxouKHVBT4n6t-2mjdCC-41" value="" style="edgeStyle=none;rounded=0;orthogonalLoop=1;jettySize=auto;html=1;" parent="1" source="oxouKHVBT4n6t-2mjdCC-34" target="oxouKHVBT4n6t-2mjdCC-40" edge="1">
                    <mxGeometry relative="1" as="geometry"/>
                </mxCell>
                <mxCell id="oxouKHVBT4n6t-2mjdCC-106" value="" style="edgeStyle=none;rounded=0;orthogonalLoop=1;jettySize=auto;html=1;" parent="1" source="oxouKHVBT4n6t-2mjdCC-34" target="oxouKHVBT4n6t-2mjdCC-105" edge="1">
                    <mxGeometry relative="1" as="geometry"/>
                </mxCell>
                <mxCell id="oxouKHVBT4n6t-2mjdCC-34" value="Proto定义" style="rounded=1;whiteSpace=wrap;html=1;" parent="1" vertex="1">
                    <mxGeometry x="1131" y="250" width="120" height="60" as="geometry"/>
                </mxCell>
                <mxCell id="oxouKHVBT4n6t-2mjdCC-37" value="" style="edgeStyle=none;rounded=0;orthogonalLoop=1;jettySize=auto;html=1;" parent="1" source="oxouKHVBT4n6t-2mjdCC-35" target="oxouKHVBT4n6t-2mjdCC-36" edge="1">
                    <mxGeometry relative="1" as="geometry"/>
                </mxCell>
                <mxCell id="oxouKHVBT4n6t-2mjdCC-39" value="" style="edgeStyle=none;rounded=0;orthogonalLoop=1;jettySize=auto;html=1;" parent="1" source="oxouKHVBT4n6t-2mjdCC-35" target="oxouKHVBT4n6t-2mjdCC-38" edge="1">
                    <mxGeometry relative="1" as="geometry"/>
                </mxCell>
                <mxCell id="oxouKHVBT4n6t-2mjdCC-35" value="插件接口" style="rounded=1;whiteSpace=wrap;html=1;" parent="1" vertex="1">
                    <mxGeometry x="1510" y="300" width="120" height="60" as="geometry"/>
                </mxCell>
                <mxCell id="oxouKHVBT4n6t-2mjdCC-36" value="&lt;div&gt;业务接口&lt;/div&gt;" style="rounded=1;whiteSpace=wrap;html=1;" parent="1" vertex="1">
                    <mxGeometry x="1610" y="400" width="120" height="60" as="geometry"/>
                </mxCell>
                <mxCell id="oxouKHVBT4n6t-2mjdCC-38" value="plugin.Plugin" style="rounded=1;whiteSpace=wrap;html=1;" parent="1" vertex="1">
                    <mxGeometry x="1430" y="400" width="120" height="60" as="geometry"/>
                </mxCell>
                <mxCell id="oxouKHVBT4n6t-2mjdCC-65" value="" style="edgeStyle=none;rounded=0;orthogonalLoop=1;jettySize=auto;html=1;" parent="1" source="oxouKHVBT4n6t-2mjdCC-40" target="oxouKHVBT4n6t-2mjdCC-64" edge="1">
                    <mxGeometry relative="1" as="geometry"/>
                </mxCell>
                <mxCell id="oxouKHVBT4n6t-2mjdCC-68" style="edgeStyle=none;rounded=0;orthogonalLoop=1;jettySize=auto;html=1;exitX=0.75;exitY=1;exitDx=0;exitDy=0;entryX=0.5;entryY=0;entryDx=0;entryDy=0;" parent="1" source="oxouKHVBT4n6t-2mjdCC-40" target="oxouKHVBT4n6t-2mjdCC-66" edge="1">
                    <mxGeometry relative="1" as="geometry"/>
                </mxCell>
                <mxCell id="oxouKHVBT4n6t-2mjdCC-40" value="服务定义" style="rounded=1;whiteSpace=wrap;html=1;" parent="1" vertex="1">
                    <mxGeometry x="1131" y="410" width="120" height="60" as="geometry"/>
                </mxCell>
                <mxCell id="oxouKHVBT4n6t-2mjdCC-42" value="注册服务&lt;br&gt;proto.RegisterModelServer" style="rounded=1;whiteSpace=wrap;html=1;" parent="1" vertex="1">
                    <mxGeometry x="1210" y="780" width="160" height="60" as="geometry"/>
                </mxCell>
                <mxCell id="oxouKHVBT4n6t-2mjdCC-83" style="edgeStyle=none;rounded=0;orthogonalLoop=1;jettySize=auto;html=1;exitX=0.5;exitY=1;exitDx=0;exitDy=0;entryX=0.5;entryY=0.167;entryDx=0;entryDy=0;entryPerimeter=0;" parent="1" source="oxouKHVBT4n6t-2mjdCC-49" target="oxouKHVBT4n6t-2mjdCC-64" edge="1">
                    <mxGeometry relative="1" as="geometry"/>
                </mxCell>
                <mxCell id="oxouKHVBT4n6t-2mjdCC-84" style="edgeStyle=none;rounded=0;orthogonalLoop=1;jettySize=auto;html=1;exitX=0.5;exitY=1;exitDx=0;exitDy=0;entryX=0.5;entryY=0;entryDx=0;entryDy=0;" parent="1" source="oxouKHVBT4n6t-2mjdCC-49" target="oxouKHVBT4n6t-2mjdCC-66" edge="1">
                    <mxGeometry relative="1" as="geometry"/>
                </mxCell>
                <mxCell id="oxouKHVBT4n6t-2mjdCC-85" style="edgeStyle=none;rounded=0;orthogonalLoop=1;jettySize=auto;html=1;exitX=0.5;exitY=0;exitDx=0;exitDy=0;entryX=0;entryY=0.5;entryDx=0;entryDy=0;" parent="1" source="oxouKHVBT4n6t-2mjdCC-49" target="oxouKHVBT4n6t-2mjdCC-105" edge="1">
                    <mxGeometry relative="1" as="geometry"/>
                </mxCell>
                <mxCell id="oxouKHVBT4n6t-2mjdCC-49" value="业务逻辑实现" style="rounded=1;whiteSpace=wrap;html=1;fillColor=#d5e8d4;strokeColor=#82b366;" parent="1" vertex="1">
                    <mxGeometry x="920" y="410" width="120" height="60" as="geometry"/>
                </mxCell>
                <mxCell id="oxouKHVBT4n6t-2mjdCC-57" style="edgeStyle=none;rounded=0;orthogonalLoop=1;jettySize=auto;html=1;exitX=0;exitY=0.5;exitDx=0;exitDy=0;entryX=1;entryY=0.5;entryDx=0;entryDy=0;" parent="1" source="oxouKHVBT4n6t-2mjdCC-51" target="oxouKHVBT4n6t-2mjdCC-54" edge="1">
                    <mxGeometry relative="1" as="geometry"/>
                </mxCell>
                <mxCell id="oxouKHVBT4n6t-2mjdCC-59" style="edgeStyle=none;rounded=0;orthogonalLoop=1;jettySize=auto;html=1;exitX=1;exitY=0.5;exitDx=0;exitDy=0;entryX=0.5;entryY=0;entryDx=0;entryDy=0;" parent="1" source="oxouKHVBT4n6t-2mjdCC-51" target="oxouKHVBT4n6t-2mjdCC-49" edge="1">
                    <mxGeometry relative="1" as="geometry"/>
                </mxCell>
                <mxCell id="oxouKHVBT4n6t-2mjdCC-76" style="edgeStyle=none;rounded=0;orthogonalLoop=1;jettySize=auto;html=1;exitX=0.5;exitY=1;exitDx=0;exitDy=0;entryX=0.75;entryY=0;entryDx=0;entryDy=0;" parent="1" source="oxouKHVBT4n6t-2mjdCC-51" target="oxouKHVBT4n6t-2mjdCC-70" edge="1">
                    <mxGeometry relative="1" as="geometry"/>
                </mxCell>
                <mxCell id="oxouKHVBT4n6t-2mjdCC-78" style="edgeStyle=none;rounded=0;orthogonalLoop=1;jettySize=auto;html=1;exitX=0.5;exitY=1;exitDx=0;exitDy=0;entryX=0.75;entryY=0;entryDx=0;entryDy=0;" parent="1" source="oxouKHVBT4n6t-2mjdCC-51" target="oxouKHVBT4n6t-2mjdCC-62" edge="1">
                    <mxGeometry relative="1" as="geometry"/>
                </mxCell>
                <mxCell id="oxouKHVBT4n6t-2mjdCC-51" value="业务接口定义&lt;br&gt;Model" style="rounded=1;whiteSpace=wrap;html=1;" parent="1" vertex="1">
                    <mxGeometry x="750" y="340" width="120" height="60" as="geometry"/>
                </mxCell>
                <mxCell id="oxouKHVBT4n6t-2mjdCC-54" value="ModelGRPCPlugin" style="rounded=1;whiteSpace=wrap;html=1;fillColor=#dae8fc;strokeColor=#6c8ebf;" parent="1" vertex="1">
                    <mxGeometry x="570" y="340" width="120" height="60" as="geometry"/>
                </mxCell>
                <mxCell id="oxouKHVBT4n6t-2mjdCC-91" value="" style="edgeStyle=none;rounded=0;orthogonalLoop=1;jettySize=auto;html=1;" parent="1" source="oxouKHVBT4n6t-2mjdCC-62" target="oxouKHVBT4n6t-2mjdCC-90" edge="1">
                    <mxGeometry relative="1" as="geometry"/>
                </mxCell>
                <mxCell id="oxouKHVBT4n6t-2mjdCC-62" value="ServerGRPC" style="rounded=1;whiteSpace=wrap;html=1;" parent="1" vertex="1">
                    <mxGeometry x="717" y="780" width="120" height="60" as="geometry"/>
                </mxCell>
                <mxCell id="oxouKHVBT4n6t-2mjdCC-64" value="ModelClient" style="rounded=1;whiteSpace=wrap;html=1;" parent="1" vertex="1">
                    <mxGeometry x="920" y="600" width="120" height="60" as="geometry"/>
                </mxCell>
                <mxCell id="oxouKHVBT4n6t-2mjdCC-80" style="edgeStyle=none;rounded=0;orthogonalLoop=1;jettySize=auto;html=1;exitX=0.5;exitY=1;exitDx=0;exitDy=0;" parent="1" source="oxouKHVBT4n6t-2mjdCC-66" target="oxouKHVBT4n6t-2mjdCC-42" edge="1">
                    <mxGeometry relative="1" as="geometry"/>
                </mxCell>
                <mxCell id="oxouKHVBT4n6t-2mjdCC-82" style="edgeStyle=none;rounded=0;orthogonalLoop=1;jettySize=auto;html=1;exitX=0.25;exitY=1;exitDx=0;exitDy=0;entryX=1;entryY=0.25;entryDx=0;entryDy=0;" parent="1" source="oxouKHVBT4n6t-2mjdCC-66" target="oxouKHVBT4n6t-2mjdCC-62" edge="1">
                    <mxGeometry relative="1" as="geometry"/>
                </mxCell>
                <mxCell id="oxouKHVBT4n6t-2mjdCC-66" value="ModelServer" style="rounded=1;whiteSpace=wrap;html=1;" parent="1" vertex="1">
                    <mxGeometry x="1230" y="610" width="120" height="60" as="geometry"/>
                </mxCell>
                <mxCell id="oxouKHVBT4n6t-2mjdCC-81" style="edgeStyle=none;rounded=0;orthogonalLoop=1;jettySize=auto;html=1;exitX=1;exitY=0.5;exitDx=0;exitDy=0;entryX=0;entryY=0.5;entryDx=0;entryDy=0;" parent="1" source="oxouKHVBT4n6t-2mjdCC-70" target="oxouKHVBT4n6t-2mjdCC-64" edge="1">
                    <mxGeometry relative="1" as="geometry"/>
                </mxCell>
                <mxCell id="oxouKHVBT4n6t-2mjdCC-87" value="" style="edgeStyle=none;rounded=0;orthogonalLoop=1;jettySize=auto;html=1;" parent="1" source="oxouKHVBT4n6t-2mjdCC-70" target="oxouKHVBT4n6t-2mjdCC-86" edge="1">
                    <mxGeometry relative="1" as="geometry"/>
                </mxCell>
                <mxCell id="oxouKHVBT4n6t-2mjdCC-70" value="ClientGRPC" style="rounded=1;whiteSpace=wrap;html=1;" parent="1" vertex="1">
                    <mxGeometry x="440" y="780" width="120" height="60" as="geometry"/>
                </mxCell>
                <mxCell id="oxouKHVBT4n6t-2mjdCC-89" value="" style="edgeStyle=none;rounded=0;orthogonalLoop=1;jettySize=auto;html=1;" parent="1" source="oxouKHVBT4n6t-2mjdCC-86" target="oxouKHVBT4n6t-2mjdCC-88" edge="1">
                    <mxGeometry relative="1" as="geometry"/>
                </mxCell>
                <mxCell id="oxouKHVBT4n6t-2mjdCC-86" value="client" style="rounded=1;whiteSpace=wrap;html=1;" parent="1" vertex="1">
                    <mxGeometry x="440" y="900" width="120" height="60" as="geometry"/>
                </mxCell>
                <mxCell id="oxouKHVBT4n6t-2mjdCC-88" value="NewClient" style="rounded=1;whiteSpace=wrap;html=1;" parent="1" vertex="1">
                    <mxGeometry x="440" y="1030" width="120" height="60" as="geometry"/>
                </mxCell>
                <mxCell id="oxouKHVBT4n6t-2mjdCC-93" value="" style="edgeStyle=none;rounded=0;orthogonalLoop=1;jettySize=auto;html=1;" parent="1" source="oxouKHVBT4n6t-2mjdCC-90" target="oxouKHVBT4n6t-2mjdCC-92" edge="1">
                    <mxGeometry relative="1" as="geometry"/>
                </mxCell>
                <mxCell id="oxouKHVBT4n6t-2mjdCC-90" value="Server" style="rounded=1;whiteSpace=wrap;html=1;" parent="1" vertex="1">
                    <mxGeometry x="717" y="900" width="120" height="60" as="geometry"/>
                </mxCell>
                <mxCell id="oxouKHVBT4n6t-2mjdCC-92" value="serve" style="rounded=1;whiteSpace=wrap;html=1;" parent="1" vertex="1">
                    <mxGeometry x="717" y="1030" width="120" height="60" as="geometry"/>
                </mxCell>
                <mxCell id="oxouKHVBT4n6t-2mjdCC-101" value="" style="edgeStyle=none;rounded=0;orthogonalLoop=1;jettySize=auto;html=1;" parent="1" source="oxouKHVBT4n6t-2mjdCC-94" target="oxouKHVBT4n6t-2mjdCC-92" edge="1">
                    <mxGeometry relative="1" as="geometry"/>
                </mxCell>
                <mxCell id="oxouKHVBT4n6t-2mjdCC-94" value="pluginMap" style="rounded=1;whiteSpace=wrap;html=1;" parent="1" vertex="1">
                    <mxGeometry x="920" y="1030" width="120" height="60" as="geometry"/>
                </mxCell>
                <mxCell id="oxouKHVBT4n6t-2mjdCC-97" style="edgeStyle=none;rounded=0;orthogonalLoop=1;jettySize=auto;html=1;exitX=0;exitY=0.5;exitDx=0;exitDy=0;" parent="1" source="oxouKHVBT4n6t-2mjdCC-96" target="oxouKHVBT4n6t-2mjdCC-94" edge="1">
                    <mxGeometry relative="1" as="geometry"/>
                </mxCell>
                <mxCell id="oxouKHVBT4n6t-2mjdCC-96" value="插件的逻辑实现" style="rounded=1;whiteSpace=wrap;html=1;fillColor=#dae8fc;strokeColor=#6c8ebf;" parent="1" vertex="1">
                    <mxGeometry x="1100" y="1030" width="120" height="60" as="geometry"/>
                </mxCell>
                <mxCell id="oxouKHVBT4n6t-2mjdCC-100" style="edgeStyle=none;rounded=0;orthogonalLoop=1;jettySize=auto;html=1;exitX=1;exitY=0.5;exitDx=0;exitDy=0;" parent="1" source="oxouKHVBT4n6t-2mjdCC-98" target="oxouKHVBT4n6t-2mjdCC-88" edge="1">
                    <mxGeometry relative="1" as="geometry"/>
                </mxCell>
                <mxCell id="oxouKHVBT4n6t-2mjdCC-98" value="pluginMap" style="rounded=1;whiteSpace=wrap;html=1;" parent="1" vertex="1">
                    <mxGeometry x="240" y="1030" width="120" height="60" as="geometry"/>
                </mxCell>
                <mxCell id="oxouKHVBT4n6t-2mjdCC-104" style="edgeStyle=none;rounded=0;orthogonalLoop=1;jettySize=auto;html=1;exitX=0.5;exitY=1;exitDx=0;exitDy=0;" parent="1" source="oxouKHVBT4n6t-2mjdCC-102" target="oxouKHVBT4n6t-2mjdCC-98" edge="1">
                    <mxGeometry relative="1" as="geometry"/>
                </mxCell>
                <mxCell id="oxouKHVBT4n6t-2mjdCC-102" value="不需要实现" style="rounded=1;whiteSpace=wrap;html=1;fillColor=#dae8fc;strokeColor=#6c8ebf;" parent="1" vertex="1">
                    <mxGeometry x="240" y="890" width="120" height="60" as="geometry"/>
                </mxCell>
                <mxCell id="oxouKHVBT4n6t-2mjdCC-105" value="生成go源代码" style="rounded=1;whiteSpace=wrap;html=1;" parent="1" vertex="1">
                    <mxGeometry x="1131" y="110" width="120" height="60" as="geometry"/>
                </mxCell>
                <mxCell id="PKG6RoDWUa59EFFGlu6h-1" value="&lt;h1&gt;gRPC插件逻辑&lt;/h1&gt;&lt;p&gt;&lt;br&gt;&lt;/p&gt;" style="text;html=1;strokeColor=#6c8ebf;fillColor=#dae8fc;spacing=5;spacingTop=-20;whiteSpace=wrap;overflow=hidden;rounded=0;" vertex="1" parent="1">
                    <mxGeometry x="25" y="20" width="190" height="120" as="geometry"/>
                </mxCell>
            </root>
        </mxGraphModel>
    </diagram>
    <diagram id="2InAE3UfVtrLzKhAPb0E" name="table hooks">
        <mxGraphModel dx="1316" dy="695" grid="1" gridSize="10" guides="1" tooltips="1" connect="1" arrows="1" fold="1" page="1" pageScale="1" pageWidth="827" pageHeight="1169" math="0" shadow="0">
            <root>
                <mxCell id="0"/>
                <mxCell id="1" parent="0"/>
                <mxCell id="mKO82GOochpBONC4brew-5" value="" style="edgeStyle=orthogonalEdgeStyle;rounded=0;orthogonalLoop=1;jettySize=auto;html=1;" parent="1" source="mKO82GOochpBONC4brew-1" target="mKO82GOochpBONC4brew-2" edge="1">
                    <mxGeometry relative="1" as="geometry"/>
                </mxCell>
                <mxCell id="mKO82GOochpBONC4brew-1" value="注册hooks" style="rounded=1;whiteSpace=wrap;html=1;" parent="1" vertex="1">
                    <mxGeometry x="10" y="145" width="120" height="60" as="geometry"/>
                </mxCell>
                <mxCell id="mKO82GOochpBONC4brew-4" value="" style="edgeStyle=orthogonalEdgeStyle;rounded=0;orthogonalLoop=1;jettySize=auto;html=1;" parent="1" source="mKO82GOochpBONC4brew-2" target="mKO82GOochpBONC4brew-3" edge="1">
                    <mxGeometry relative="1" as="geometry"/>
                </mxCell>
                <mxCell id="mKO82GOochpBONC4brew-2" value="在table/form/list里注册hooks处理flow" style="shape=document;whiteSpace=wrap;html=1;boundedLbl=1;fillColor=#fff2cc;strokeColor=#d6b656;" parent="1" vertex="1">
                    <mxGeometry x="220" y="110" width="170" height="130" as="geometry"/>
                </mxCell>
                <mxCell id="mKO82GOochpBONC4brew-7" style="edgeStyle=orthogonalEdgeStyle;rounded=0;orthogonalLoop=1;jettySize=auto;html=1;" parent="1" source="mKO82GOochpBONC4brew-3" target="mKO82GOochpBONC4brew-6" edge="1">
                    <mxGeometry relative="1" as="geometry"/>
                </mxCell>
                <mxCell id="mKO82GOochpBONC4brew-3" value="&lt;div&gt;&amp;nbsp; &quot;action&quot;: {&lt;/div&gt;&lt;div&gt;&amp;nbsp; &amp;nbsp; &quot;before:find&quot;: &quot;flows.hooks.before_find&quot;,&lt;/div&gt;&lt;div&gt;&amp;nbsp; &amp;nbsp; &quot;after:find&quot;: &quot;flows.hooks.after_find&quot;&lt;/div&gt;&lt;div&gt;&amp;nbsp; },&lt;/div&gt;" style="shape=document;whiteSpace=wrap;html=1;boundedLbl=1;align=left;size=0.23076923076923078;fillColor=#fff2cc;strokeColor=#d6b656;" parent="1" vertex="1">
                    <mxGeometry x="470" y="110" width="240" height="130" as="geometry"/>
                </mxCell>
                <mxCell id="mKO82GOochpBONC4brew-6" value="调用flow" style="rounded=1;whiteSpace=wrap;html=1;" parent="1" vertex="1">
                    <mxGeometry x="530" y="350" width="120" height="60" as="geometry"/>
                </mxCell>
                <mxCell id="OZeIpISVJ5K7cdnKhgPR-1" value="&lt;h1&gt;table hooks&lt;/h1&gt;&lt;p&gt;&lt;br&gt;&lt;/p&gt;" style="text;html=1;strokeColor=#6c8ebf;fillColor=#dae8fc;spacing=5;spacingTop=-20;whiteSpace=wrap;overflow=hidden;rounded=0;" vertex="1" parent="1">
                    <mxGeometry x="10" y="10" width="190" height="120" as="geometry"/>
                </mxCell>
            </root>
        </mxGraphModel>
    </diagram>
    <diagram id="fIW4Wj6gxXsENDPKMZPx" name="api请求过程">
        <mxGraphModel dx="1645" dy="869" grid="1" gridSize="10" guides="1" tooltips="1" connect="1" arrows="1" fold="1" page="1" pageScale="1" pageWidth="827" pageHeight="1169" math="0" shadow="0">
            <root>
                <mxCell id="0"/>
                <mxCell id="1" parent="0"/>
                <mxCell id="0ubGVZVDLu3jDriEauES-3" value="" style="edgeStyle=orthogonalEdgeStyle;rounded=0;orthogonalLoop=1;jettySize=auto;html=1;curved=1;entryX=0;entryY=0.5;entryDx=0;entryDy=0;" parent="1" source="0ubGVZVDLu3jDriEauES-1" target="0ubGVZVDLu3jDriEauES-2" edge="1">
                    <mxGeometry relative="1" as="geometry"/>
                </mxCell>
                <mxCell id="0ubGVZVDLu3jDriEauES-1" value="处理器" style="rounded=1;whiteSpace=wrap;html=1;" parent="1" vertex="1">
                    <mxGeometry x="200" y="160" width="120" height="60" as="geometry"/>
                </mxCell>
                <mxCell id="0ubGVZVDLu3jDriEauES-11" value="" style="edgeStyle=orthogonalEdgeStyle;curved=1;rounded=0;orthogonalLoop=1;jettySize=auto;html=1;" parent="1" source="0ubGVZVDLu3jDriEauES-2" target="0ubGVZVDLu3jDriEauES-10" edge="1">
                    <mxGeometry relative="1" as="geometry"/>
                </mxCell>
                <mxCell id="0ubGVZVDLu3jDriEauES-2" value="table" style="rounded=1;whiteSpace=wrap;html=1;" parent="1" vertex="1">
                    <mxGeometry x="380" y="160" width="120" height="60" as="geometry"/>
                </mxCell>
                <mxCell id="8NJtxGSrjySUh3RyLvm8-2" style="edgeStyle=none;html=1;exitX=1;exitY=0.5;exitDx=0;exitDy=0;entryX=0;entryY=0.5;entryDx=0;entryDy=0;" edge="1" parent="1" source="0ubGVZVDLu3jDriEauES-4" target="0ubGVZVDLu3jDriEauES-12">
                    <mxGeometry relative="1" as="geometry"/>
                </mxCell>
                <mxCell id="0ubGVZVDLu3jDriEauES-4" value="model Save" style="rounded=1;whiteSpace=wrap;html=1;" parent="1" vertex="1">
                    <mxGeometry x="780" y="160" width="120" height="60" as="geometry"/>
                </mxCell>
                <mxCell id="yiN8aFSwZTINkuWJ8ypB-1" value="" style="edgeStyle=orthogonalEdgeStyle;curved=1;rounded=0;orthogonalLoop=1;jettySize=auto;html=1;" parent="1" source="0ubGVZVDLu3jDriEauES-7" target="0ubGVZVDLu3jDriEauES-1" edge="1">
                    <mxGeometry relative="1" as="geometry"/>
                </mxCell>
                <mxCell id="0ubGVZVDLu3jDriEauES-7" value="api" style="rounded=1;whiteSpace=wrap;html=1;" parent="1" vertex="1">
                    <mxGeometry x="20" y="160" width="120" height="60" as="geometry"/>
                </mxCell>
                <mxCell id="8NJtxGSrjySUh3RyLvm8-1" style="edgeStyle=none;html=1;exitX=1;exitY=0.5;exitDx=0;exitDy=0;entryX=0;entryY=0.5;entryDx=0;entryDy=0;" edge="1" parent="1" source="0ubGVZVDLu3jDriEauES-10" target="0ubGVZVDLu3jDriEauES-4">
                    <mxGeometry relative="1" as="geometry"/>
                </mxCell>
                <mxCell id="0ubGVZVDLu3jDriEauES-10" value="Before Save&lt;br&gt;Hook" style="rounded=1;whiteSpace=wrap;html=1;" parent="1" vertex="1">
                    <mxGeometry x="580" y="160" width="120" height="60" as="geometry"/>
                </mxCell>
                <mxCell id="0ubGVZVDLu3jDriEauES-12" value="After Save&lt;br&gt;Hook" style="rounded=1;whiteSpace=wrap;html=1;" parent="1" vertex="1">
                    <mxGeometry x="970" y="160" width="120" height="60" as="geometry"/>
                </mxCell>
                <mxCell id="yiN8aFSwZTINkuWJ8ypB-4" value="" style="edgeStyle=orthogonalEdgeStyle;curved=1;rounded=0;orthogonalLoop=1;jettySize=auto;html=1;" parent="1" source="yiN8aFSwZTINkuWJ8ypB-2" target="yiN8aFSwZTINkuWJ8ypB-3" edge="1">
                    <mxGeometry relative="1" as="geometry"/>
                </mxCell>
                <mxCell id="yiN8aFSwZTINkuWJ8ypB-2" value="http请求" style="rounded=1;whiteSpace=wrap;html=1;fillColor=#d5e8d4;strokeColor=#82b366;" parent="1" vertex="1">
                    <mxGeometry x="20" y="520" width="120" height="60" as="geometry"/>
                </mxCell>
                <mxCell id="yiN8aFSwZTINkuWJ8ypB-6" value="" style="edgeStyle=orthogonalEdgeStyle;curved=1;rounded=0;orthogonalLoop=1;jettySize=auto;html=1;" parent="1" source="yiN8aFSwZTINkuWJ8ypB-3" target="yiN8aFSwZTINkuWJ8ypB-5" edge="1">
                    <mxGeometry relative="1" as="geometry"/>
                </mxCell>
                <mxCell id="yiN8aFSwZTINkuWJ8ypB-3" value="gin路由" style="rounded=1;whiteSpace=wrap;html=1;" parent="1" vertex="1">
                    <mxGeometry x="210" y="520" width="120" height="60" as="geometry"/>
                </mxCell>
                <mxCell id="yiN8aFSwZTINkuWJ8ypB-14" value="" style="edgeStyle=orthogonalEdgeStyle;curved=1;rounded=0;orthogonalLoop=1;jettySize=auto;html=1;" parent="1" source="yiN8aFSwZTINkuWJ8ypB-5" target="yiN8aFSwZTINkuWJ8ypB-13" edge="1">
                    <mxGeometry relative="1" as="geometry"/>
                </mxCell>
                <mxCell id="yiN8aFSwZTINkuWJ8ypB-21" value="" style="edgeStyle=orthogonalEdgeStyle;curved=1;rounded=0;orthogonalLoop=1;jettySize=auto;html=1;" parent="1" source="yiN8aFSwZTINkuWJ8ypB-5" target="yiN8aFSwZTINkuWJ8ypB-20" edge="1">
                    <mxGeometry relative="1" as="geometry"/>
                </mxCell>
                <mxCell id="yiN8aFSwZTINkuWJ8ypB-5" value="请求参数" style="rounded=1;whiteSpace=wrap;html=1;" parent="1" vertex="1">
                    <mxGeometry x="410" y="520" width="120" height="60" as="geometry"/>
                </mxCell>
                <mxCell id="yiN8aFSwZTINkuWJ8ypB-10" value="" style="edgeStyle=orthogonalEdgeStyle;curved=1;rounded=0;orthogonalLoop=1;jettySize=auto;html=1;" parent="1" source="yiN8aFSwZTINkuWJ8ypB-7" target="yiN8aFSwZTINkuWJ8ypB-9" edge="1">
                    <mxGeometry relative="1" as="geometry"/>
                </mxCell>
                <mxCell id="yiN8aFSwZTINkuWJ8ypB-7" value="apis目录下的配置文件*.http.json" style="rounded=1;whiteSpace=wrap;html=1;" parent="1" vertex="1">
                    <mxGeometry x="20" y="370" width="120" height="60" as="geometry"/>
                </mxCell>
                <mxCell id="yiN8aFSwZTINkuWJ8ypB-11" value="" style="edgeStyle=orthogonalEdgeStyle;curved=1;rounded=0;orthogonalLoop=1;jettySize=auto;html=1;" parent="1" source="yiN8aFSwZTINkuWJ8ypB-9" target="yiN8aFSwZTINkuWJ8ypB-3" edge="1">
                    <mxGeometry relative="1" as="geometry"/>
                </mxCell>
                <mxCell id="yiN8aFSwZTINkuWJ8ypB-12" style="edgeStyle=orthogonalEdgeStyle;curved=1;rounded=0;orthogonalLoop=1;jettySize=auto;html=1;exitX=1;exitY=0.5;exitDx=0;exitDy=0;" parent="1" source="yiN8aFSwZTINkuWJ8ypB-9" target="yiN8aFSwZTINkuWJ8ypB-5" edge="1">
                    <mxGeometry relative="1" as="geometry"/>
                </mxCell>
                <mxCell id="yiN8aFSwZTINkuWJ8ypB-9" value="转换成路由，注册路由" style="rounded=1;whiteSpace=wrap;html=1;" parent="1" vertex="1">
                    <mxGeometry x="210" y="370" width="120" height="60" as="geometry"/>
                </mxCell>
                <mxCell id="yiN8aFSwZTINkuWJ8ypB-16" value="" style="edgeStyle=orthogonalEdgeStyle;curved=1;rounded=0;orthogonalLoop=1;jettySize=auto;html=1;" parent="1" source="yiN8aFSwZTINkuWJ8ypB-13" target="yiN8aFSwZTINkuWJ8ypB-15" edge="1">
                    <mxGeometry relative="1" as="geometry"/>
                </mxCell>
                <mxCell id="yiN8aFSwZTINkuWJ8ypB-13" value="调用处理器" style="rounded=1;whiteSpace=wrap;html=1;" parent="1" vertex="1">
                    <mxGeometry x="610" y="520" width="120" height="60" as="geometry"/>
                </mxCell>
                <mxCell id="yiN8aFSwZTINkuWJ8ypB-15" value="输出结果" style="rounded=1;whiteSpace=wrap;html=1;fillColor=#dae8fc;strokeColor=#6c8ebf;" parent="1" vertex="1">
                    <mxGeometry x="810" y="520" width="120" height="60" as="geometry"/>
                </mxCell>
                <mxCell id="yiN8aFSwZTINkuWJ8ypB-19" value="" style="edgeStyle=orthogonalEdgeStyle;curved=1;rounded=0;orthogonalLoop=1;jettySize=auto;html=1;" parent="1" source="yiN8aFSwZTINkuWJ8ypB-17" target="yiN8aFSwZTINkuWJ8ypB-18" edge="1">
                    <mxGeometry relative="1" as="geometry"/>
                </mxCell>
                <mxCell id="yiN8aFSwZTINkuWJ8ypB-17" value="查询字符串&lt;br&gt;URL Query String&amp;nbsp;" style="rounded=1;whiteSpace=wrap;html=1;" parent="1" vertex="1">
                    <mxGeometry x="610" y="900" width="120" height="60" as="geometry"/>
                </mxCell>
                <mxCell id="TFP7BQKD2Zk9wTwziyld-2" value="" style="edgeStyle=orthogonalEdgeStyle;rounded=0;orthogonalLoop=1;jettySize=auto;html=1;strokeWidth=1;fontColor=default;" parent="1" source="yiN8aFSwZTINkuWJ8ypB-18" target="TFP7BQKD2Zk9wTwziyld-1" edge="1">
                    <mxGeometry relative="1" as="geometry"/>
                </mxCell>
                <mxCell id="yiN8aFSwZTINkuWJ8ypB-18" value="转换成表查询参数&lt;br&gt;QueryParam" style="rounded=1;whiteSpace=wrap;html=1;" parent="1" vertex="1">
                    <mxGeometry x="810" y="900" width="120" height="60" as="geometry"/>
                </mxCell>
                <mxCell id="yiN8aFSwZTINkuWJ8ypB-23" value="" style="edgeStyle=orthogonalEdgeStyle;curved=1;rounded=0;orthogonalLoop=1;jettySize=auto;html=1;" parent="1" source="yiN8aFSwZTINkuWJ8ypB-20" target="yiN8aFSwZTINkuWJ8ypB-22" edge="1">
                    <mxGeometry relative="1" as="geometry"/>
                </mxCell>
                <mxCell id="yiN8aFSwZTINkuWJ8ypB-36" value="" style="edgeStyle=orthogonalEdgeStyle;curved=1;rounded=0;orthogonalLoop=1;jettySize=auto;html=1;" parent="1" source="yiN8aFSwZTINkuWJ8ypB-20" target="yiN8aFSwZTINkuWJ8ypB-35" edge="1">
                    <mxGeometry relative="1" as="geometry"/>
                </mxCell>
                <mxCell id="yiN8aFSwZTINkuWJ8ypB-20" value="parseIn" style="rounded=1;whiteSpace=wrap;html=1;" parent="1" vertex="1">
                    <mxGeometry x="410" y="660" width="120" height="60" as="geometry"/>
                </mxCell>
                <mxCell id="yiN8aFSwZTINkuWJ8ypB-25" value="" style="edgeStyle=orthogonalEdgeStyle;curved=1;rounded=0;orthogonalLoop=1;jettySize=auto;html=1;" parent="1" source="yiN8aFSwZTINkuWJ8ypB-22" target="yiN8aFSwZTINkuWJ8ypB-24" edge="1">
                    <mxGeometry relative="1" as="geometry"/>
                </mxCell>
                <mxCell id="yiN8aFSwZTINkuWJ8ypB-22" value=":params或是&lt;br&gt;:query-param" style="rounded=1;whiteSpace=wrap;html=1;" parent="1" vertex="1">
                    <mxGeometry x="410" y="780" width="120" height="60" as="geometry"/>
                </mxCell>
                <mxCell id="yiN8aFSwZTINkuWJ8ypB-26" value="" style="edgeStyle=orthogonalEdgeStyle;curved=1;rounded=0;orthogonalLoop=1;jettySize=auto;html=1;" parent="1" source="yiN8aFSwZTINkuWJ8ypB-24" target="yiN8aFSwZTINkuWJ8ypB-17" edge="1">
                    <mxGeometry relative="1" as="geometry"/>
                </mxCell>
                <mxCell id="yiN8aFSwZTINkuWJ8ypB-24" value="URLToQueryParam" style="rounded=1;whiteSpace=wrap;html=1;" parent="1" vertex="1">
                    <mxGeometry x="410" y="900" width="120" height="60" as="geometry"/>
                </mxCell>
                <mxCell id="yiN8aFSwZTINkuWJ8ypB-31" value="" style="edgeStyle=orthogonalEdgeStyle;curved=1;rounded=0;orthogonalLoop=1;jettySize=auto;html=1;" parent="1" source="yiN8aFSwZTINkuWJ8ypB-27" target="yiN8aFSwZTINkuWJ8ypB-20" edge="1">
                    <mxGeometry relative="1" as="geometry"/>
                </mxCell>
                <mxCell id="yiN8aFSwZTINkuWJ8ypB-27" value="gou/api.http.go" style="rounded=1;whiteSpace=wrap;html=1;" parent="1" vertex="1">
                    <mxGeometry x="210" y="660" width="120" height="60" as="geometry"/>
                </mxCell>
                <mxCell id="yiN8aFSwZTINkuWJ8ypB-34" value="" style="edgeStyle=orthogonalEdgeStyle;curved=1;rounded=0;orthogonalLoop=1;jettySize=auto;html=1;" parent="1" source="yiN8aFSwZTINkuWJ8ypB-32" target="yiN8aFSwZTINkuWJ8ypB-24" edge="1">
                    <mxGeometry relative="1" as="geometry"/>
                </mxCell>
                <mxCell id="yiN8aFSwZTINkuWJ8ypB-32" value="gou/query.url.go" style="rounded=1;whiteSpace=wrap;html=1;" parent="1" vertex="1">
                    <mxGeometry x="210" y="900" width="120" height="60" as="geometry"/>
                </mxCell>
                <mxCell id="yiN8aFSwZTINkuWJ8ypB-35" value="解析请求参数" style="rounded=1;whiteSpace=wrap;html=1;" parent="1" vertex="1">
                    <mxGeometry x="610" y="660" width="120" height="60" as="geometry"/>
                </mxCell>
                <mxCell id="TFP7BQKD2Zk9wTwziyld-3" style="edgeStyle=orthogonalEdgeStyle;rounded=0;orthogonalLoop=1;jettySize=auto;html=1;exitX=0.5;exitY=0;exitDx=0;exitDy=0;strokeWidth=1;fontColor=default;" parent="1" source="TFP7BQKD2Zk9wTwziyld-1" target="yiN8aFSwZTINkuWJ8ypB-15" edge="1">
                    <mxGeometry relative="1" as="geometry"/>
                </mxCell>
                <mxCell id="TFP7BQKD2Zk9wTwziyld-1" value="Xun查询" style="rounded=1;whiteSpace=wrap;html=1;" parent="1" vertex="1">
                    <mxGeometry x="810" y="780" width="120" height="60" as="geometry"/>
                </mxCell>
                <mxCell id="7HxdpqD-RnPec8BuViDl-1" value="&lt;h1&gt;api请求过程&lt;/h1&gt;" style="text;html=1;strokeColor=#6c8ebf;fillColor=#dae8fc;spacing=5;spacingTop=-20;whiteSpace=wrap;overflow=hidden;rounded=0;" vertex="1" parent="1">
                    <mxGeometry x="20" y="20" width="190" height="120" as="geometry"/>
                </mxCell>
            </root>
        </mxGraphModel>
    </diagram>
    <diagram id="1OqLBk5UOGPSffW91vYA" name="flow.process">
        <mxGraphModel dx="1548" dy="818" grid="1" gridSize="10" guides="1" tooltips="1" connect="1" arrows="1" fold="1" page="1" pageScale="1" pageWidth="827" pageHeight="1169" math="0" shadow="0">
            <root>
                <mxCell id="0"/>
                <mxCell id="1" parent="0"/>
                <mxCell id="i602M314lVkpdwRZUryv-5" value="" style="edgeStyle=orthogonalEdgeStyle;curved=1;rounded=0;orthogonalLoop=1;jettySize=auto;html=1;" parent="1" source="i602M314lVkpdwRZUryv-1" target="i602M314lVkpdwRZUryv-4" edge="1">
                    <mxGeometry relative="1" as="geometry"/>
                </mxCell>
                <mxCell id="i602M314lVkpdwRZUryv-1" value="yao/cmd/run.go" style="rounded=1;whiteSpace=wrap;html=1;" parent="1" vertex="1">
                    <mxGeometry x="240" y="40" width="120" height="60" as="geometry"/>
                </mxCell>
                <mxCell id="i602M314lVkpdwRZUryv-7" value="" style="edgeStyle=orthogonalEdgeStyle;curved=1;rounded=0;orthogonalLoop=1;jettySize=auto;html=1;" parent="1" source="i602M314lVkpdwRZUryv-4" target="i602M314lVkpdwRZUryv-6" edge="1">
                    <mxGeometry relative="1" as="geometry"/>
                </mxCell>
                <mxCell id="i602M314lVkpdwRZUryv-9" value="" style="edgeStyle=orthogonalEdgeStyle;curved=1;rounded=0;orthogonalLoop=1;jettySize=auto;html=1;" parent="1" source="i602M314lVkpdwRZUryv-4" target="i602M314lVkpdwRZUryv-8" edge="1">
                    <mxGeometry relative="1" as="geometry"/>
                </mxCell>
                <mxCell id="i602M314lVkpdwRZUryv-4" value="runCmd" style="rounded=1;whiteSpace=wrap;html=1;" parent="1" vertex="1">
                    <mxGeometry x="440" y="40" width="120" height="60" as="geometry"/>
                </mxCell>
                <mxCell id="i602M314lVkpdwRZUryv-6" value="解析命令参数" style="rounded=1;whiteSpace=wrap;html=1;" parent="1" vertex="1">
                    <mxGeometry x="640" y="40" width="120" height="60" as="geometry"/>
                </mxCell>
                <mxCell id="i602M314lVkpdwRZUryv-11" value="" style="edgeStyle=orthogonalEdgeStyle;curved=1;rounded=0;orthogonalLoop=1;jettySize=auto;html=1;" parent="1" source="i602M314lVkpdwRZUryv-8" target="i602M314lVkpdwRZUryv-10" edge="1">
                    <mxGeometry relative="1" as="geometry"/>
                </mxCell>
                <mxCell id="i602M314lVkpdwRZUryv-8" value="process" style="rounded=1;whiteSpace=wrap;html=1;" parent="1" vertex="1">
                    <mxGeometry x="440" y="180" width="120" height="60" as="geometry"/>
                </mxCell>
                <mxCell id="i602M314lVkpdwRZUryv-24" style="edgeStyle=orthogonalEdgeStyle;curved=1;rounded=0;orthogonalLoop=1;jettySize=auto;html=1;exitX=0.5;exitY=1;exitDx=0;exitDy=0;" parent="1" source="i602M314lVkpdwRZUryv-10" target="i602M314lVkpdwRZUryv-16" edge="1">
                    <mxGeometry relative="1" as="geometry"/>
                </mxCell>
                <mxCell id="i602M314lVkpdwRZUryv-10" value="Run" style="rounded=1;whiteSpace=wrap;html=1;" parent="1" vertex="1">
                    <mxGeometry x="640" y="180" width="120" height="60" as="geometry"/>
                </mxCell>
                <mxCell id="i602M314lVkpdwRZUryv-23" value="" style="edgeStyle=orthogonalEdgeStyle;curved=1;rounded=0;orthogonalLoop=1;jettySize=auto;html=1;" parent="1" source="i602M314lVkpdwRZUryv-12" target="i602M314lVkpdwRZUryv-8" edge="1">
                    <mxGeometry relative="1" as="geometry"/>
                </mxCell>
                <mxCell id="i602M314lVkpdwRZUryv-12" value="yao/cmd/run.go" style="rounded=1;whiteSpace=wrap;html=1;" parent="1" vertex="1">
                    <mxGeometry x="240" y="180" width="120" height="60" as="geometry"/>
                </mxCell>
                <mxCell id="i602M314lVkpdwRZUryv-17" value="" style="edgeStyle=orthogonalEdgeStyle;curved=1;rounded=0;orthogonalLoop=1;jettySize=auto;html=1;" parent="1" source="i602M314lVkpdwRZUryv-14" target="i602M314lVkpdwRZUryv-16" edge="1">
                    <mxGeometry relative="1" as="geometry"/>
                </mxCell>
                <mxCell id="i602M314lVkpdwRZUryv-14" value="gou/process.go" style="rounded=1;whiteSpace=wrap;html=1;" parent="1" vertex="1">
                    <mxGeometry x="240" y="320" width="120" height="60" as="geometry"/>
                </mxCell>
                <mxCell id="i602M314lVkpdwRZUryv-19" value="" style="edgeStyle=orthogonalEdgeStyle;curved=1;rounded=0;orthogonalLoop=1;jettySize=auto;html=1;" parent="1" source="i602M314lVkpdwRZUryv-16" target="i602M314lVkpdwRZUryv-18" edge="1">
                    <mxGeometry relative="1" as="geometry"/>
                </mxCell>
                <mxCell id="i602M314lVkpdwRZUryv-26" value="" style="edgeStyle=orthogonalEdgeStyle;curved=1;rounded=0;orthogonalLoop=1;jettySize=auto;html=1;" parent="1" source="i602M314lVkpdwRZUryv-16" target="i602M314lVkpdwRZUryv-25" edge="1">
                    <mxGeometry relative="1" as="geometry"/>
                </mxCell>
                <mxCell id="i602M314lVkpdwRZUryv-16" value="processFlow" style="rounded=1;whiteSpace=wrap;html=1;" parent="1" vertex="1">
                    <mxGeometry x="440" y="320" width="120" height="60" as="geometry"/>
                </mxCell>
                <mxCell id="i602M314lVkpdwRZUryv-28" value="" style="edgeStyle=orthogonalEdgeStyle;curved=1;rounded=0;orthogonalLoop=1;jettySize=auto;html=1;" parent="1" source="i602M314lVkpdwRZUryv-18" target="i602M314lVkpdwRZUryv-27" edge="1">
                    <mxGeometry relative="1" as="geometry"/>
                </mxCell>
                <mxCell id="i602M314lVkpdwRZUryv-33" value="" style="edgeStyle=orthogonalEdgeStyle;curved=1;rounded=0;orthogonalLoop=1;jettySize=auto;html=1;" parent="1" source="i602M314lVkpdwRZUryv-18" target="i602M314lVkpdwRZUryv-32" edge="1">
                    <mxGeometry relative="1" as="geometry"/>
                </mxCell>
                <mxCell id="i602M314lVkpdwRZUryv-18" value="Exec" style="rounded=1;whiteSpace=wrap;html=1;" parent="1" vertex="1">
                    <mxGeometry x="440" y="460" width="120" height="60" as="geometry"/>
                </mxCell>
                <mxCell id="i602M314lVkpdwRZUryv-22" value="" style="edgeStyle=orthogonalEdgeStyle;curved=1;rounded=0;orthogonalLoop=1;jettySize=auto;html=1;" parent="1" source="i602M314lVkpdwRZUryv-20" target="i602M314lVkpdwRZUryv-18" edge="1">
                    <mxGeometry relative="1" as="geometry"/>
                </mxCell>
                <mxCell id="i602M314lVkpdwRZUryv-20" value="gou/flow.process.go" style="rounded=1;whiteSpace=wrap;html=1;" parent="1" vertex="1">
                    <mxGeometry x="240" y="460" width="120" height="60" as="geometry"/>
                </mxCell>
                <mxCell id="i602M314lVkpdwRZUryv-70" value="" style="edgeStyle=orthogonalEdgeStyle;curved=1;rounded=0;orthogonalLoop=1;jettySize=auto;html=1;" parent="1" source="i602M314lVkpdwRZUryv-25" target="i602M314lVkpdwRZUryv-69" edge="1">
                    <mxGeometry relative="1" as="geometry"/>
                </mxCell>
                <mxCell id="i602M314lVkpdwRZUryv-25" value="NewProcess时&lt;br&gt;判断是何种类型的proccess" style="rounded=1;whiteSpace=wrap;html=1;" parent="1" vertex="1">
                    <mxGeometry x="640" y="320" width="120" height="60" as="geometry"/>
                </mxCell>
                <mxCell id="i602M314lVkpdwRZUryv-35" value="" style="edgeStyle=orthogonalEdgeStyle;curved=1;rounded=0;orthogonalLoop=1;jettySize=auto;html=1;" parent="1" source="i602M314lVkpdwRZUryv-27" target="i602M314lVkpdwRZUryv-34" edge="1">
                    <mxGeometry relative="1" as="geometry"/>
                </mxCell>
                <mxCell id="i602M314lVkpdwRZUryv-37" value="" style="edgeStyle=orthogonalEdgeStyle;curved=1;rounded=0;orthogonalLoop=1;jettySize=auto;html=1;" parent="1" source="i602M314lVkpdwRZUryv-27" target="i602M314lVkpdwRZUryv-36" edge="1">
                    <mxGeometry relative="1" as="geometry"/>
                </mxCell>
                <mxCell id="i602M314lVkpdwRZUryv-27" value="ExecNode" style="rounded=1;whiteSpace=wrap;html=1;" parent="1" vertex="1">
                    <mxGeometry x="440" y="600" width="120" height="60" as="geometry"/>
                </mxCell>
                <mxCell id="i602M314lVkpdwRZUryv-31" value="" style="edgeStyle=orthogonalEdgeStyle;curved=1;rounded=0;orthogonalLoop=1;jettySize=auto;html=1;" parent="1" source="i602M314lVkpdwRZUryv-29" target="i602M314lVkpdwRZUryv-27" edge="1">
                    <mxGeometry relative="1" as="geometry"/>
                </mxCell>
                <mxCell id="i602M314lVkpdwRZUryv-29" value="gou/flow.process.go" style="rounded=1;whiteSpace=wrap;html=1;" parent="1" vertex="1">
                    <mxGeometry x="240" y="600" width="120" height="60" as="geometry"/>
                </mxCell>
                <mxCell id="i602M314lVkpdwRZUryv-32" value="工作流执行" style="rounded=1;whiteSpace=wrap;html=1;" parent="1" vertex="1">
                    <mxGeometry x="640" y="460" width="120" height="60" as="geometry"/>
                </mxCell>
                <mxCell id="i602M314lVkpdwRZUryv-34" value="节点执行" style="rounded=1;whiteSpace=wrap;html=1;" parent="1" vertex="1">
                    <mxGeometry x="640" y="600" width="120" height="60" as="geometry"/>
                </mxCell>
                <mxCell id="i602M314lVkpdwRZUryv-42" value="" style="edgeStyle=orthogonalEdgeStyle;curved=1;rounded=0;orthogonalLoop=1;jettySize=auto;html=1;" parent="1" source="i602M314lVkpdwRZUryv-36" target="i602M314lVkpdwRZUryv-41" edge="1">
                    <mxGeometry relative="1" as="geometry"/>
                </mxCell>
                <mxCell id="i602M314lVkpdwRZUryv-44" value="" style="edgeStyle=orthogonalEdgeStyle;curved=1;rounded=0;orthogonalLoop=1;jettySize=auto;html=1;" parent="1" source="i602M314lVkpdwRZUryv-36" target="i602M314lVkpdwRZUryv-43" edge="1">
                    <mxGeometry relative="1" as="geometry"/>
                </mxCell>
                <mxCell id="i602M314lVkpdwRZUryv-36" value="RunProcess" style="rounded=1;whiteSpace=wrap;html=1;" parent="1" vertex="1">
                    <mxGeometry x="440" y="740" width="120" height="60" as="geometry"/>
                </mxCell>
                <mxCell id="i602M314lVkpdwRZUryv-40" value="" style="edgeStyle=orthogonalEdgeStyle;curved=1;rounded=0;orthogonalLoop=1;jettySize=auto;html=1;" parent="1" source="i602M314lVkpdwRZUryv-38" target="i602M314lVkpdwRZUryv-36" edge="1">
                    <mxGeometry relative="1" as="geometry"/>
                </mxCell>
                <mxCell id="i602M314lVkpdwRZUryv-38" value="gou/flow.process.go" style="rounded=1;whiteSpace=wrap;html=1;" parent="1" vertex="1">
                    <mxGeometry x="240" y="740" width="120" height="60" as="geometry"/>
                </mxCell>
                <mxCell id="i602M314lVkpdwRZUryv-46" value="" style="edgeStyle=orthogonalEdgeStyle;curved=1;rounded=0;orthogonalLoop=1;jettySize=auto;html=1;" parent="1" source="i602M314lVkpdwRZUryv-41" target="i602M314lVkpdwRZUryv-45" edge="1">
                    <mxGeometry relative="1" as="geometry"/>
                </mxCell>
                <mxCell id="i602M314lVkpdwRZUryv-52" value="" style="edgeStyle=orthogonalEdgeStyle;curved=1;rounded=0;orthogonalLoop=1;jettySize=auto;html=1;" parent="1" source="i602M314lVkpdwRZUryv-41" target="i602M314lVkpdwRZUryv-51" edge="1">
                    <mxGeometry relative="1" as="geometry"/>
                </mxCell>
                <mxCell id="i602M314lVkpdwRZUryv-41" value="解析输入参数" style="rounded=1;whiteSpace=wrap;html=1;" parent="1" vertex="1">
                    <mxGeometry x="640" y="740" width="120" height="60" as="geometry"/>
                </mxCell>
                <mxCell id="i602M314lVkpdwRZUryv-50" value="" style="edgeStyle=orthogonalEdgeStyle;curved=1;rounded=0;orthogonalLoop=1;jettySize=auto;html=1;" parent="1" source="i602M314lVkpdwRZUryv-43" target="i602M314lVkpdwRZUryv-49" edge="1">
                    <mxGeometry relative="1" as="geometry"/>
                </mxCell>
                <mxCell id="i602M314lVkpdwRZUryv-58" value="" style="edgeStyle=orthogonalEdgeStyle;curved=1;rounded=0;orthogonalLoop=1;jettySize=auto;html=1;" parent="1" source="i602M314lVkpdwRZUryv-43" target="i602M314lVkpdwRZUryv-57" edge="1">
                    <mxGeometry relative="1" as="geometry"/>
                </mxCell>
                <mxCell id="i602M314lVkpdwRZUryv-43" value="RunScript" style="rounded=1;whiteSpace=wrap;html=1;" parent="1" vertex="1">
                    <mxGeometry x="440" y="1100" width="120" height="60" as="geometry"/>
                </mxCell>
                <mxCell id="i602M314lVkpdwRZUryv-48" value="" style="edgeStyle=orthogonalEdgeStyle;curved=1;rounded=0;orthogonalLoop=1;jettySize=auto;html=1;" parent="1" source="i602M314lVkpdwRZUryv-45" target="i602M314lVkpdwRZUryv-47" edge="1">
                    <mxGeometry relative="1" as="geometry"/>
                </mxCell>
                <mxCell id="i602M314lVkpdwRZUryv-74" value="" style="edgeStyle=orthogonalEdgeStyle;curved=1;rounded=0;orthogonalLoop=1;jettySize=auto;html=1;" parent="1" source="i602M314lVkpdwRZUryv-45" target="i602M314lVkpdwRZUryv-73" edge="1">
                    <mxGeometry relative="1" as="geometry"/>
                </mxCell>
                <mxCell id="i602M314lVkpdwRZUryv-45" value="NewProcess" style="rounded=1;whiteSpace=wrap;html=1;" parent="1" vertex="1">
                    <mxGeometry x="840" y="740" width="120" height="60" as="geometry"/>
                </mxCell>
                <mxCell id="i602M314lVkpdwRZUryv-47" value="解析输出参数" style="rounded=1;whiteSpace=wrap;html=1;" parent="1" vertex="1">
                    <mxGeometry x="1040" y="740" width="120" height="60" as="geometry"/>
                </mxCell>
                <mxCell id="i602M314lVkpdwRZUryv-49" value="由V8go引擎执行脚本" style="rounded=1;whiteSpace=wrap;html=1;" parent="1" vertex="1">
                    <mxGeometry x="640" y="1100" width="120" height="60" as="geometry"/>
                </mxCell>
                <mxCell id="i602M314lVkpdwRZUryv-54" value="" style="edgeStyle=orthogonalEdgeStyle;curved=1;rounded=0;orthogonalLoop=1;jettySize=auto;html=1;" parent="1" source="i602M314lVkpdwRZUryv-51" target="i602M314lVkpdwRZUryv-53" edge="1">
                    <mxGeometry relative="1" as="geometry"/>
                </mxCell>
                <mxCell id="i602M314lVkpdwRZUryv-51" value="gou/query/share/bind.go" style="rounded=1;whiteSpace=wrap;html=1;" parent="1" vertex="1">
                    <mxGeometry x="640" y="830" width="120" height="60" as="geometry"/>
                </mxCell>
                <mxCell id="i602M314lVkpdwRZUryv-56" value="" style="edgeStyle=orthogonalEdgeStyle;curved=1;rounded=0;orthogonalLoop=1;jettySize=auto;html=1;" parent="1" source="i602M314lVkpdwRZUryv-53" target="i602M314lVkpdwRZUryv-55" edge="1">
                    <mxGeometry relative="1" as="geometry"/>
                </mxCell>
                <mxCell id="i602M314lVkpdwRZUryv-53" value="Bind(模板参数，全局引用的输入输出)" style="rounded=1;whiteSpace=wrap;html=1;" parent="1" vertex="1">
                    <mxGeometry x="640" y="910" width="120" height="60" as="geometry"/>
                </mxCell>
                <mxCell id="i602M314lVkpdwRZUryv-55" value="根据表达式返回绑定值" style="rounded=1;whiteSpace=wrap;html=1;" parent="1" vertex="1">
                    <mxGeometry x="640" y="990" width="120" height="60" as="geometry"/>
                </mxCell>
                <mxCell id="i602M314lVkpdwRZUryv-60" value="" style="edgeStyle=orthogonalEdgeStyle;curved=1;rounded=0;orthogonalLoop=1;jettySize=auto;html=1;" parent="1" source="i602M314lVkpdwRZUryv-57" target="i602M314lVkpdwRZUryv-59" edge="1">
                    <mxGeometry relative="1" as="geometry"/>
                </mxCell>
                <mxCell id="i602M314lVkpdwRZUryv-57" value="FormatResult" style="rounded=1;whiteSpace=wrap;html=1;" parent="1" vertex="1">
                    <mxGeometry x="440" y="1240" width="120" height="60" as="geometry"/>
                </mxCell>
                <mxCell id="i602M314lVkpdwRZUryv-62" value="" style="edgeStyle=orthogonalEdgeStyle;curved=1;rounded=0;orthogonalLoop=1;jettySize=auto;html=1;" parent="1" source="i602M314lVkpdwRZUryv-59" target="i602M314lVkpdwRZUryv-61" edge="1">
                    <mxGeometry relative="1" as="geometry"/>
                </mxCell>
                <mxCell id="i602M314lVkpdwRZUryv-59" value="flow.Output节点控制输出" style="rounded=1;whiteSpace=wrap;html=1;" parent="1" vertex="1">
                    <mxGeometry x="640" y="1240" width="120" height="60" as="geometry"/>
                </mxCell>
                <mxCell id="i602M314lVkpdwRZUryv-61" value="如果没有flow.Output节点，输出所有" style="rounded=1;whiteSpace=wrap;html=1;" parent="1" vertex="1">
                    <mxGeometry x="840" y="1240" width="120" height="60" as="geometry"/>
                </mxCell>
                <mxCell id="i602M314lVkpdwRZUryv-68" value="" style="edgeStyle=orthogonalEdgeStyle;curved=1;rounded=0;orthogonalLoop=1;jettySize=auto;html=1;" parent="1" source="i602M314lVkpdwRZUryv-63" target="i602M314lVkpdwRZUryv-57" edge="1">
                    <mxGeometry relative="1" as="geometry"/>
                </mxCell>
                <mxCell id="i602M314lVkpdwRZUryv-63" value="gou/flow.process.go" style="rounded=1;whiteSpace=wrap;html=1;" parent="1" vertex="1">
                    <mxGeometry x="240" y="1240" width="120" height="60" as="geometry"/>
                </mxCell>
                <mxCell id="i602M314lVkpdwRZUryv-67" value="" style="edgeStyle=orthogonalEdgeStyle;curved=1;rounded=0;orthogonalLoop=1;jettySize=auto;html=1;" parent="1" source="i602M314lVkpdwRZUryv-65" target="i602M314lVkpdwRZUryv-43" edge="1">
                    <mxGeometry relative="1" as="geometry"/>
                </mxCell>
                <mxCell id="i602M314lVkpdwRZUryv-65" value="gou/flow.process.go" style="rounded=1;whiteSpace=wrap;html=1;" parent="1" vertex="1">
                    <mxGeometry x="240" y="1100" width="120" height="60" as="geometry"/>
                </mxCell>
                <mxCell id="i602M314lVkpdwRZUryv-69" value="根据类型指定不同的处理器" style="rounded=1;whiteSpace=wrap;html=1;" parent="1" vertex="1">
                    <mxGeometry x="840" y="320" width="120" height="60" as="geometry"/>
                </mxCell>
                <mxCell id="i602M314lVkpdwRZUryv-73" value="新进程" style="rounded=1;whiteSpace=wrap;html=1;" parent="1" vertex="1">
                    <mxGeometry x="840" y="830" width="120" height="60" as="geometry"/>
                </mxCell>
                <mxCell id="MrUT-8f8d5osFHyO8keP-1" value="&lt;h1&gt;flow处理过程&lt;/h1&gt;" style="text;html=1;strokeColor=#6c8ebf;fillColor=#dae8fc;spacing=5;spacingTop=-20;whiteSpace=wrap;overflow=hidden;rounded=0;" vertex="1" parent="1">
                    <mxGeometry x="20" y="20" width="190" height="120" as="geometry"/>
                </mxCell>
            </root>
        </mxGraphModel>
    </diagram>
    <diagram name="flow.process2" id="Bul6fOVCaxMq7Jgh3TYV">
        <mxGraphModel dx="1880" dy="-176" grid="1" gridSize="10" guides="1" tooltips="1" connect="1" arrows="1" fold="1" page="1" pageScale="1" pageWidth="827" pageHeight="1169" math="0" shadow="0">
            <root>
                <mxCell id="IkhMqV0MzgVhcL27bbX7-0"/>
                <mxCell id="IkhMqV0MzgVhcL27bbX7-1" parent="IkhMqV0MzgVhcL27bbX7-0"/>
                <mxCell id="IkhMqV0MzgVhcL27bbX7-65" style="edgeStyle=orthogonalEdgeStyle;curved=1;rounded=0;orthogonalLoop=1;jettySize=auto;html=1;exitX=1;exitY=0.5;exitDx=0;exitDy=0;entryX=0;entryY=0.5;entryDx=0;entryDy=0;" parent="IkhMqV0MzgVhcL27bbX7-1" source="IkhMqV0MzgVhcL27bbX7-68" target="IkhMqV0MzgVhcL27bbX7-74" edge="1">
                    <mxGeometry relative="1" as="geometry"/>
                </mxCell>
                <mxCell id="IkhMqV0MzgVhcL27bbX7-66" style="edgeStyle=orthogonalEdgeStyle;curved=1;rounded=0;orthogonalLoop=1;jettySize=auto;html=1;exitX=1;exitY=0.5;exitDx=0;exitDy=0;" parent="IkhMqV0MzgVhcL27bbX7-1" source="IkhMqV0MzgVhcL27bbX7-68" target="IkhMqV0MzgVhcL27bbX7-90" edge="1">
                    <mxGeometry relative="1" as="geometry"/>
                </mxCell>
                <mxCell id="IkhMqV0MzgVhcL27bbX7-67" style="edgeStyle=orthogonalEdgeStyle;curved=1;rounded=0;orthogonalLoop=1;jettySize=auto;html=1;exitX=0.5;exitY=1;exitDx=0;exitDy=0;" parent="IkhMqV0MzgVhcL27bbX7-1" source="IkhMqV0MzgVhcL27bbX7-68" target="IkhMqV0MzgVhcL27bbX7-102" edge="1">
                    <mxGeometry relative="1" as="geometry"/>
                </mxCell>
                <mxCell id="IkhMqV0MzgVhcL27bbX7-68" value="flow node" style="rounded=1;whiteSpace=wrap;html=1;" parent="IkhMqV0MzgVhcL27bbX7-1" vertex="1">
                    <mxGeometry x="234" y="1410" width="120" height="60" as="geometry"/>
                </mxCell>
                <mxCell id="IkhMqV0MzgVhcL27bbX7-69" value="" style="edgeStyle=orthogonalEdgeStyle;curved=1;rounded=0;orthogonalLoop=1;jettySize=auto;html=1;" parent="IkhMqV0MzgVhcL27bbX7-1" source="IkhMqV0MzgVhcL27bbX7-70" target="IkhMqV0MzgVhcL27bbX7-78" edge="1">
                    <mxGeometry relative="1" as="geometry"/>
                </mxCell>
                <mxCell id="IkhMqV0MzgVhcL27bbX7-70" value="query" style="rounded=1;whiteSpace=wrap;html=1;" parent="IkhMqV0MzgVhcL27bbX7-1" vertex="1">
                    <mxGeometry x="590" y="1310" width="120" height="60" as="geometry"/>
                </mxCell>
                <mxCell id="IkhMqV0MzgVhcL27bbX7-71" value="" style="edgeStyle=orthogonalEdgeStyle;curved=1;rounded=0;orthogonalLoop=1;jettySize=auto;html=1;" parent="IkhMqV0MzgVhcL27bbX7-1" source="IkhMqV0MzgVhcL27bbX7-72" target="IkhMqV0MzgVhcL27bbX7-96" edge="1">
                    <mxGeometry relative="1" as="geometry"/>
                </mxCell>
                <mxCell id="IkhMqV0MzgVhcL27bbX7-72" value="flow process" style="rounded=1;whiteSpace=wrap;html=1;" parent="IkhMqV0MzgVhcL27bbX7-1" vertex="1">
                    <mxGeometry x="590" y="1420" width="120" height="60" as="geometry"/>
                </mxCell>
                <mxCell id="IkhMqV0MzgVhcL27bbX7-73" value="" style="edgeStyle=orthogonalEdgeStyle;curved=1;rounded=0;orthogonalLoop=1;jettySize=auto;html=1;" parent="IkhMqV0MzgVhcL27bbX7-1" source="IkhMqV0MzgVhcL27bbX7-74" target="IkhMqV0MzgVhcL27bbX7-84" edge="1">
                    <mxGeometry relative="1" as="geometry"/>
                </mxCell>
                <mxCell id="IkhMqV0MzgVhcL27bbX7-74" value="script" style="rounded=1;whiteSpace=wrap;html=1;" parent="IkhMqV0MzgVhcL27bbX7-1" vertex="1">
                    <mxGeometry x="430" y="1550" width="120" height="60" as="geometry"/>
                </mxCell>
                <mxCell id="CCoePhYC-K3fT263Jgc9-1" value="" style="edgeStyle=orthogonalEdgeStyle;rounded=0;orthogonalLoop=1;jettySize=auto;html=1;" parent="IkhMqV0MzgVhcL27bbX7-1" source="IkhMqV0MzgVhcL27bbX7-76" target="CCoePhYC-K3fT263Jgc9-0" edge="1">
                    <mxGeometry relative="1" as="geometry"/>
                </mxCell>
                <mxCell id="IkhMqV0MzgVhcL27bbX7-76" value="gou/flow.go" style="rounded=1;whiteSpace=wrap;html=1;" parent="IkhMqV0MzgVhcL27bbX7-1" vertex="1">
                    <mxGeometry x="20" y="1320" width="120" height="60" as="geometry"/>
                </mxCell>
                <mxCell id="IkhMqV0MzgVhcL27bbX7-77" value="" style="edgeStyle=orthogonalEdgeStyle;curved=1;rounded=0;orthogonalLoop=1;jettySize=auto;html=1;" parent="IkhMqV0MzgVhcL27bbX7-1" source="IkhMqV0MzgVhcL27bbX7-78" target="IkhMqV0MzgVhcL27bbX7-80" edge="1">
                    <mxGeometry relative="1" as="geometry"/>
                </mxCell>
                <mxCell id="IkhMqV0MzgVhcL27bbX7-78" value="query字段配置查询语句&lt;br&gt;输入参数{{$in}}" style="rounded=1;whiteSpace=wrap;html=1;" parent="IkhMqV0MzgVhcL27bbX7-1" vertex="1">
                    <mxGeometry x="790" y="1310" width="120" height="60" as="geometry"/>
                </mxCell>
                <mxCell id="IkhMqV0MzgVhcL27bbX7-79" style="edgeStyle=orthogonalEdgeStyle;curved=1;rounded=0;orthogonalLoop=1;jettySize=auto;html=1;exitX=1;exitY=0.5;exitDx=0;exitDy=0;" parent="IkhMqV0MzgVhcL27bbX7-1" source="IkhMqV0MzgVhcL27bbX7-80" target="IkhMqV0MzgVhcL27bbX7-101" edge="1">
                    <mxGeometry relative="1" as="geometry"/>
                </mxCell>
                <mxCell id="IkhMqV0MzgVhcL27bbX7-80" value="engine字段配置查询引擎，默认是xiang" style="rounded=1;whiteSpace=wrap;html=1;" parent="IkhMqV0MzgVhcL27bbX7-1" vertex="1">
                    <mxGeometry x="990" y="1310" width="120" height="60" as="geometry"/>
                </mxCell>
                <mxCell id="IkhMqV0MzgVhcL27bbX7-81" value="" style="edgeStyle=orthogonalEdgeStyle;curved=1;rounded=0;orthogonalLoop=1;jettySize=auto;html=1;" parent="IkhMqV0MzgVhcL27bbX7-1" source="IkhMqV0MzgVhcL27bbX7-82" target="IkhMqV0MzgVhcL27bbX7-80" edge="1">
                    <mxGeometry relative="1" as="geometry"/>
                </mxCell>
                <mxCell id="IkhMqV0MzgVhcL27bbX7-82" value="yao/query/query.go&lt;br&gt;加载引擎" style="rounded=1;whiteSpace=wrap;html=1;" parent="IkhMqV0MzgVhcL27bbX7-1" vertex="1">
                    <mxGeometry x="990" y="1200" width="120" height="60" as="geometry"/>
                </mxCell>
                <mxCell id="IkhMqV0MzgVhcL27bbX7-83" value="" style="edgeStyle=orthogonalEdgeStyle;curved=1;rounded=0;orthogonalLoop=1;jettySize=auto;html=1;" parent="IkhMqV0MzgVhcL27bbX7-1" source="IkhMqV0MzgVhcL27bbX7-84" target="IkhMqV0MzgVhcL27bbX7-92" edge="1">
                    <mxGeometry relative="1" as="geometry"/>
                </mxCell>
                <mxCell id="IkhMqV0MzgVhcL27bbX7-84" value="node.script配置同目录的脚本" style="rounded=1;whiteSpace=wrap;html=1;" parent="IkhMqV0MzgVhcL27bbX7-1" vertex="1">
                    <mxGeometry x="590" y="1550" width="120" height="60" as="geometry"/>
                </mxCell>
                <mxCell id="IkhMqV0MzgVhcL27bbX7-85" value="" style="edgeStyle=orthogonalEdgeStyle;curved=1;rounded=0;orthogonalLoop=1;jettySize=auto;html=1;entryX=0;entryY=0.5;entryDx=0;entryDy=0;" parent="IkhMqV0MzgVhcL27bbX7-1" source="IkhMqV0MzgVhcL27bbX7-87" target="IkhMqV0MzgVhcL27bbX7-68" edge="1">
                    <mxGeometry relative="1" as="geometry"/>
                </mxCell>
                <mxCell id="IkhMqV0MzgVhcL27bbX7-86" style="edgeStyle=orthogonalEdgeStyle;curved=1;rounded=0;orthogonalLoop=1;jettySize=auto;html=1;exitX=1;exitY=0.5;exitDx=0;exitDy=0;entryX=0;entryY=0.5;entryDx=0;entryDy=0;" parent="IkhMqV0MzgVhcL27bbX7-1" source="IkhMqV0MzgVhcL27bbX7-87" target="IkhMqV0MzgVhcL27bbX7-102" edge="1">
                    <mxGeometry relative="1" as="geometry"/>
                </mxCell>
                <mxCell id="CCoePhYC-K3fT263Jgc9-12" style="edgeStyle=orthogonalEdgeStyle;rounded=0;orthogonalLoop=1;jettySize=auto;html=1;exitX=0.5;exitY=1;exitDx=0;exitDy=0;entryX=0.5;entryY=0;entryDx=0;entryDy=0;" parent="IkhMqV0MzgVhcL27bbX7-1" source="IkhMqV0MzgVhcL27bbX7-87" target="CCoePhYC-K3fT263Jgc9-3" edge="1">
                    <mxGeometry relative="1" as="geometry"/>
                </mxCell>
                <mxCell id="IkhMqV0MzgVhcL27bbX7-87" value="flow" style="rounded=1;whiteSpace=wrap;html=1;fillColor=#dae8fc;strokeColor=#6c8ebf;" parent="IkhMqV0MzgVhcL27bbX7-1" vertex="1">
                    <mxGeometry x="20" y="1510" width="120" height="60" as="geometry"/>
                </mxCell>
                <mxCell id="IkhMqV0MzgVhcL27bbX7-88" style="edgeStyle=orthogonalEdgeStyle;curved=1;rounded=0;orthogonalLoop=1;jettySize=auto;html=1;exitX=1;exitY=0.5;exitDx=0;exitDy=0;entryX=0;entryY=0.5;entryDx=0;entryDy=0;" parent="IkhMqV0MzgVhcL27bbX7-1" source="IkhMqV0MzgVhcL27bbX7-90" target="IkhMqV0MzgVhcL27bbX7-70" edge="1">
                    <mxGeometry relative="1" as="geometry"/>
                </mxCell>
                <mxCell id="IkhMqV0MzgVhcL27bbX7-89" style="edgeStyle=orthogonalEdgeStyle;curved=1;rounded=0;orthogonalLoop=1;jettySize=auto;html=1;exitX=1;exitY=0.5;exitDx=0;exitDy=0;entryX=0;entryY=0.5;entryDx=0;entryDy=0;" parent="IkhMqV0MzgVhcL27bbX7-1" source="IkhMqV0MzgVhcL27bbX7-90" target="IkhMqV0MzgVhcL27bbX7-72" edge="1">
                    <mxGeometry relative="1" as="geometry"/>
                </mxCell>
                <mxCell id="IkhMqV0MzgVhcL27bbX7-90" value="二选一" style="rounded=1;whiteSpace=wrap;html=1;" parent="IkhMqV0MzgVhcL27bbX7-1" vertex="1">
                    <mxGeometry x="430" y="1360" width="120" height="60" as="geometry"/>
                </mxCell>
                <mxCell id="IkhMqV0MzgVhcL27bbX7-91" value="" style="edgeStyle=orthogonalEdgeStyle;curved=1;rounded=0;orthogonalLoop=1;jettySize=auto;html=1;" parent="IkhMqV0MzgVhcL27bbX7-1" source="IkhMqV0MzgVhcL27bbX7-92" target="IkhMqV0MzgVhcL27bbX7-94" edge="1">
                    <mxGeometry relative="1" as="geometry"/>
                </mxCell>
                <mxCell id="IkhMqV0MzgVhcL27bbX7-92" value="加载内存脚本" style="rounded=1;whiteSpace=wrap;html=1;" parent="IkhMqV0MzgVhcL27bbX7-1" vertex="1">
                    <mxGeometry x="790" y="1550" width="120" height="60" as="geometry"/>
                </mxCell>
                <mxCell id="IkhMqV0MzgVhcL27bbX7-93" value="" style="edgeStyle=orthogonalEdgeStyle;curved=1;rounded=0;orthogonalLoop=1;jettySize=auto;html=1;" parent="IkhMqV0MzgVhcL27bbX7-1" source="IkhMqV0MzgVhcL27bbX7-94" target="IkhMqV0MzgVhcL27bbX7-107" edge="1">
                    <mxGeometry relative="1" as="geometry"/>
                </mxCell>
                <mxCell id="IkhMqV0MzgVhcL27bbX7-94" value="存在script&lt;br&gt;则执行脚本" style="rounded=1;whiteSpace=wrap;html=1;" parent="IkhMqV0MzgVhcL27bbX7-1" vertex="1">
                    <mxGeometry x="990" y="1550" width="120" height="60" as="geometry"/>
                </mxCell>
                <mxCell id="IkhMqV0MzgVhcL27bbX7-95" value="" style="edgeStyle=orthogonalEdgeStyle;curved=1;rounded=0;orthogonalLoop=1;jettySize=auto;html=1;" parent="IkhMqV0MzgVhcL27bbX7-1" source="IkhMqV0MzgVhcL27bbX7-96" target="IkhMqV0MzgVhcL27bbX7-98" edge="1">
                    <mxGeometry relative="1" as="geometry"/>
                </mxCell>
                <mxCell id="IkhMqV0MzgVhcL27bbX7-96" value="解析参数args" style="rounded=1;whiteSpace=wrap;html=1;" parent="IkhMqV0MzgVhcL27bbX7-1" vertex="1">
                    <mxGeometry x="790" y="1420" width="120" height="60" as="geometry"/>
                </mxCell>
                <mxCell id="IkhMqV0MzgVhcL27bbX7-97" value="" style="edgeStyle=orthogonalEdgeStyle;curved=1;rounded=0;orthogonalLoop=1;jettySize=auto;html=1;" parent="IkhMqV0MzgVhcL27bbX7-1" source="IkhMqV0MzgVhcL27bbX7-98" target="IkhMqV0MzgVhcL27bbX7-101" edge="1">
                    <mxGeometry relative="1" as="geometry"/>
                </mxCell>
                <mxCell id="IkhMqV0MzgVhcL27bbX7-98" value="执行" style="rounded=1;whiteSpace=wrap;html=1;" parent="IkhMqV0MzgVhcL27bbX7-1" vertex="1">
                    <mxGeometry x="990" y="1420" width="120" height="60" as="geometry"/>
                </mxCell>
                <mxCell id="IkhMqV0MzgVhcL27bbX7-99" style="edgeStyle=orthogonalEdgeStyle;curved=1;rounded=0;orthogonalLoop=1;jettySize=auto;html=1;exitX=0.5;exitY=1;exitDx=0;exitDy=0;entryX=1;entryY=0.5;entryDx=0;entryDy=0;" parent="IkhMqV0MzgVhcL27bbX7-1" source="IkhMqV0MzgVhcL27bbX7-105" target="IkhMqV0MzgVhcL27bbX7-104" edge="1">
                    <mxGeometry relative="1" as="geometry">
                        <mxPoint x="1120.9999999999995" y="1699.9999999999995" as="targetPoint"/>
                    </mxGeometry>
                </mxCell>
                <mxCell id="IkhMqV0MzgVhcL27bbX7-100" value="" style="edgeStyle=orthogonalEdgeStyle;curved=1;rounded=0;orthogonalLoop=1;jettySize=auto;html=1;exitX=0.5;exitY=1;exitDx=0;exitDy=0;" parent="IkhMqV0MzgVhcL27bbX7-1" source="IkhMqV0MzgVhcL27bbX7-101" target="IkhMqV0MzgVhcL27bbX7-94" edge="1">
                    <mxGeometry relative="1" as="geometry"/>
                </mxCell>
                <mxCell id="CCoePhYC-K3fT263Jgc9-13" style="edgeStyle=orthogonalEdgeStyle;rounded=0;orthogonalLoop=1;jettySize=auto;html=1;exitX=1;exitY=0.5;exitDx=0;exitDy=0;entryX=0.5;entryY=0;entryDx=0;entryDy=0;" parent="IkhMqV0MzgVhcL27bbX7-1" source="IkhMqV0MzgVhcL27bbX7-101" target="IkhMqV0MzgVhcL27bbX7-105" edge="1">
                    <mxGeometry relative="1" as="geometry"/>
                </mxCell>
                <mxCell id="IkhMqV0MzgVhcL27bbX7-101" value="保存在outs" style="rounded=1;whiteSpace=wrap;html=1;" parent="IkhMqV0MzgVhcL27bbX7-1" vertex="1">
                    <mxGeometry x="1190" y="1420" width="120" height="60" as="geometry"/>
                </mxCell>
                <mxCell id="IkhMqV0MzgVhcL27bbX7-102" value="flow node" style="rounded=1;whiteSpace=wrap;html=1;" parent="IkhMqV0MzgVhcL27bbX7-1" vertex="1">
                    <mxGeometry x="234" y="1670" width="120" height="60" as="geometry"/>
                </mxCell>
                <mxCell id="IkhMqV0MzgVhcL27bbX7-103" style="edgeStyle=orthogonalEdgeStyle;curved=1;rounded=0;orthogonalLoop=1;jettySize=auto;html=1;exitX=0;exitY=0.5;exitDx=0;exitDy=0;" parent="IkhMqV0MzgVhcL27bbX7-1" source="IkhMqV0MzgVhcL27bbX7-104" target="IkhMqV0MzgVhcL27bbX7-102" edge="1">
                    <mxGeometry relative="1" as="geometry"/>
                </mxCell>
                <mxCell id="IkhMqV0MzgVhcL27bbX7-104" value="下一节点执行时，引用上一节点的输出" style="rounded=1;whiteSpace=wrap;html=1;" parent="IkhMqV0MzgVhcL27bbX7-1" vertex="1">
                    <mxGeometry x="790" y="1670" width="120" height="60" as="geometry"/>
                </mxCell>
                <mxCell id="CCoePhYC-K3fT263Jgc9-8" style="edgeStyle=orthogonalEdgeStyle;rounded=0;orthogonalLoop=1;jettySize=auto;html=1;exitX=0.75;exitY=1;exitDx=0;exitDy=0;entryX=0.75;entryY=0;entryDx=0;entryDy=0;" parent="IkhMqV0MzgVhcL27bbX7-1" source="IkhMqV0MzgVhcL27bbX7-105" target="CCoePhYC-K3fT263Jgc9-5" edge="1">
                    <mxGeometry relative="1" as="geometry"/>
                </mxCell>
                <mxCell id="IkhMqV0MzgVhcL27bbX7-105" value="结果保存在context中res" style="rounded=1;whiteSpace=wrap;html=1;" parent="IkhMqV0MzgVhcL27bbX7-1" vertex="1">
                    <mxGeometry x="1370" y="1550" width="120" height="60" as="geometry"/>
                </mxCell>
                <mxCell id="IkhMqV0MzgVhcL27bbX7-106" style="edgeStyle=orthogonalEdgeStyle;curved=1;rounded=0;orthogonalLoop=1;jettySize=auto;html=1;exitX=1;exitY=0.5;exitDx=0;exitDy=0;entryX=0;entryY=0.5;entryDx=0;entryDy=0;" parent="IkhMqV0MzgVhcL27bbX7-1" source="IkhMqV0MzgVhcL27bbX7-107" target="IkhMqV0MzgVhcL27bbX7-105" edge="1">
                    <mxGeometry relative="1" as="geometry"/>
                </mxCell>
                <mxCell id="IkhMqV0MzgVhcL27bbX7-107" value="保存在outs" style="rounded=1;whiteSpace=wrap;html=1;" parent="IkhMqV0MzgVhcL27bbX7-1" vertex="1">
                    <mxGeometry x="1190" y="1550" width="120" height="60" as="geometry"/>
                </mxCell>
                <mxCell id="CCoePhYC-K3fT263Jgc9-2" value="" style="edgeStyle=orthogonalEdgeStyle;rounded=0;orthogonalLoop=1;jettySize=auto;html=1;" parent="IkhMqV0MzgVhcL27bbX7-1" source="CCoePhYC-K3fT263Jgc9-0" target="IkhMqV0MzgVhcL27bbX7-87" edge="1">
                    <mxGeometry relative="1" as="geometry"/>
                </mxCell>
                <mxCell id="CCoePhYC-K3fT263Jgc9-0" value="gou/flow.process.go" style="rounded=1;whiteSpace=wrap;html=1;" parent="IkhMqV0MzgVhcL27bbX7-1" vertex="1">
                    <mxGeometry x="20" y="1410" width="120" height="60" as="geometry"/>
                </mxCell>
                <mxCell id="CCoePhYC-K3fT263Jgc9-6" value="" style="edgeStyle=orthogonalEdgeStyle;rounded=0;orthogonalLoop=1;jettySize=auto;html=1;" parent="IkhMqV0MzgVhcL27bbX7-1" source="CCoePhYC-K3fT263Jgc9-3" target="CCoePhYC-K3fT263Jgc9-5" edge="1">
                    <mxGeometry relative="1" as="geometry"/>
                </mxCell>
                <mxCell id="CCoePhYC-K3fT263Jgc9-3" value="整个flow最后的输出可以通过output定制" style="whiteSpace=wrap;html=1;rounded=1;" parent="IkhMqV0MzgVhcL27bbX7-1" vertex="1">
                    <mxGeometry x="20" y="1740" width="120" height="60" as="geometry"/>
                </mxCell>
                <mxCell id="CCoePhYC-K3fT263Jgc9-5" value="通过res引用整个flow节点中的输出内容" style="whiteSpace=wrap;html=1;rounded=1;" parent="IkhMqV0MzgVhcL27bbX7-1" vertex="1">
                    <mxGeometry x="1370" y="1740" width="120" height="60" as="geometry"/>
                </mxCell>
                <mxCell id="G5lT0sAbu44gbYI1Wjfu-0" value="&lt;h1&gt;flow处理过程&lt;/h1&gt;" style="text;html=1;strokeColor=#6c8ebf;fillColor=#dae8fc;spacing=5;spacingTop=-20;whiteSpace=wrap;overflow=hidden;rounded=0;" vertex="1" parent="IkhMqV0MzgVhcL27bbX7-1">
                    <mxGeometry x="10" y="1180" width="190" height="120" as="geometry"/>
                </mxCell>
            </root>
        </mxGraphModel>
    </diagram>
    <diagram id="AbX60dZSMkbLgTAIwh3m" name="条件执行">
        <mxGraphModel dx="1566" dy="1264" grid="1" gridSize="10" guides="1" tooltips="1" connect="1" arrows="1" fold="1" page="1" pageScale="1" pageWidth="827" pageHeight="1169" math="0" shadow="0">
            <root>
                <mxCell id="0"/>
                <mxCell id="1" parent="0"/>
                <mxCell id="V4vVftDneApAV8xTD_nd-70" value="" style="edgeStyle=orthogonalEdgeStyle;rounded=0;orthogonalLoop=1;jettySize=auto;html=1;" parent="1" source="V4vVftDneApAV8xTD_nd-1" target="V4vVftDneApAV8xTD_nd-69" edge="1">
                    <mxGeometry relative="1" as="geometry"/>
                </mxCell>
                <mxCell id="V4vVftDneApAV8xTD_nd-1" value="{&quot;用户&quot;: &quot;张三&quot;, &quot;=&quot;: &quot;张三&quot;}" style="shape=document;whiteSpace=wrap;html=1;boundedLbl=1;size=0.07142857142857142;align=center;verticalAlign=top;fillColor=#fff2cc;strokeColor=#d6b656;" parent="1" vertex="1">
                    <mxGeometry x="1390" y="410" width="200" height="120" as="geometry"/>
                </mxCell>
                <mxCell id="V4vVftDneApAV8xTD_nd-8" value="" style="edgeStyle=orthogonalEdgeStyle;curved=1;rounded=0;orthogonalLoop=1;jettySize=auto;html=1;" parent="1" source="V4vVftDneApAV8xTD_nd-6" target="V4vVftDneApAV8xTD_nd-7" edge="1">
                    <mxGeometry relative="1" as="geometry"/>
                </mxCell>
                <mxCell id="V4vVftDneApAV8xTD_nd-6" value="json" style="rounded=1;whiteSpace=wrap;html=1;" parent="1" vertex="1">
                    <mxGeometry x="840" y="180" width="120" height="60" as="geometry"/>
                </mxCell>
                <mxCell id="V4vVftDneApAV8xTD_nd-10" value="" style="edgeStyle=orthogonalEdgeStyle;curved=1;rounded=0;orthogonalLoop=1;jettySize=auto;html=1;" parent="1" source="V4vVftDneApAV8xTD_nd-7" target="V4vVftDneApAV8xTD_nd-9" edge="1">
                    <mxGeometry relative="1" as="geometry"/>
                </mxCell>
                <mxCell id="V4vVftDneApAV8xTD_nd-19" value="" style="edgeStyle=orthogonalEdgeStyle;curved=1;rounded=0;orthogonalLoop=1;jettySize=auto;html=1;" parent="1" source="V4vVftDneApAV8xTD_nd-7" target="V4vVftDneApAV8xTD_nd-18" edge="1">
                    <mxGeometry relative="1" as="geometry"/>
                </mxCell>
                <mxCell id="V4vVftDneApAV8xTD_nd-7" value="ConditionOf" style="rounded=1;whiteSpace=wrap;html=1;" parent="1" vertex="1">
                    <mxGeometry x="1040" y="180" width="120" height="60" as="geometry"/>
                </mxCell>
                <mxCell id="V4vVftDneApAV8xTD_nd-9" value="条件" style="rounded=1;whiteSpace=wrap;html=1;" parent="1" vertex="1">
                    <mxGeometry x="1230" y="180" width="120" height="60" as="geometry"/>
                </mxCell>
                <mxCell id="V4vVftDneApAV8xTD_nd-14" value="" style="edgeStyle=orthogonalEdgeStyle;curved=1;rounded=0;orthogonalLoop=1;jettySize=auto;html=1;" parent="1" source="V4vVftDneApAV8xTD_nd-11" target="V4vVftDneApAV8xTD_nd-7" edge="1">
                    <mxGeometry relative="1" as="geometry"/>
                </mxCell>
                <mxCell id="V4vVftDneApAV8xTD_nd-17" style="edgeStyle=orthogonalEdgeStyle;curved=1;rounded=0;orthogonalLoop=1;jettySize=auto;html=1;exitX=0.5;exitY=1;exitDx=0;exitDy=0;" parent="1" source="V4vVftDneApAV8xTD_nd-11" target="V4vVftDneApAV8xTD_nd-9" edge="1">
                    <mxGeometry relative="1" as="geometry"/>
                </mxCell>
                <mxCell id="V4vVftDneApAV8xTD_nd-11" value="helper/condition.go" style="rounded=1;whiteSpace=wrap;html=1;" parent="1" vertex="1">
                    <mxGeometry x="1130" y="20" width="120" height="60" as="geometry"/>
                </mxCell>
                <mxCell id="V4vVftDneApAV8xTD_nd-21" value="" style="edgeStyle=orthogonalEdgeStyle;curved=1;rounded=0;orthogonalLoop=1;jettySize=auto;html=1;" parent="1" source="V4vVftDneApAV8xTD_nd-18" target="V4vVftDneApAV8xTD_nd-20" edge="1">
                    <mxGeometry relative="1" as="geometry"/>
                </mxCell>
                <mxCell id="V4vVftDneApAV8xTD_nd-18" value="判断json的键与值" style="rounded=1;whiteSpace=wrap;html=1;" parent="1" vertex="1">
                    <mxGeometry x="1040" y="320" width="120" height="60" as="geometry"/>
                </mxCell>
                <mxCell id="V4vVftDneApAV8xTD_nd-23" value="" style="edgeStyle=orthogonalEdgeStyle;curved=1;rounded=0;orthogonalLoop=1;jettySize=auto;html=1;" parent="1" source="V4vVftDneApAV8xTD_nd-20" target="V4vVftDneApAV8xTD_nd-22" edge="1">
                    <mxGeometry relative="1" as="geometry"/>
                </mxCell>
                <mxCell id="V4vVftDneApAV8xTD_nd-20" value="键" style="rounded=1;whiteSpace=wrap;html=1;" parent="1" vertex="1">
                    <mxGeometry x="1040" y="430" width="120" height="60" as="geometry"/>
                </mxCell>
                <mxCell id="V4vVftDneApAV8xTD_nd-64" style="edgeStyle=orthogonalEdgeStyle;rounded=0;orthogonalLoop=1;jettySize=auto;html=1;exitX=0.5;exitY=0;exitDx=0;exitDy=0;entryX=0;entryY=0.5;entryDx=0;entryDy=0;" parent="1" source="V4vVftDneApAV8xTD_nd-22" target="V4vVftDneApAV8xTD_nd-29" edge="1">
                    <mxGeometry relative="1" as="geometry"/>
                </mxCell>
                <mxCell id="V4vVftDneApAV8xTD_nd-65" value="是" style="edgeLabel;html=1;align=center;verticalAlign=middle;resizable=0;points=[];" parent="V4vVftDneApAV8xTD_nd-64" vertex="1" connectable="0">
                    <mxGeometry x="-0.1516" relative="1" as="geometry">
                        <mxPoint as="offset"/>
                    </mxGeometry>
                </mxCell>
                <mxCell id="V4vVftDneApAV8xTD_nd-66" value="否" style="edgeStyle=orthogonalEdgeStyle;rounded=0;orthogonalLoop=1;jettySize=auto;html=1;" parent="1" source="V4vVftDneApAV8xTD_nd-22" target="V4vVftDneApAV8xTD_nd-36" edge="1">
                    <mxGeometry relative="1" as="geometry"/>
                </mxCell>
                <mxCell id="V4vVftDneApAV8xTD_nd-67" style="edgeStyle=orthogonalEdgeStyle;rounded=0;orthogonalLoop=1;jettySize=auto;html=1;exitX=1;exitY=0.5;exitDx=0;exitDy=0;" parent="1" source="V4vVftDneApAV8xTD_nd-36" target="V4vVftDneApAV8xTD_nd-26" edge="1">
                    <mxGeometry relative="1" as="geometry"/>
                </mxCell>
                <mxCell id="V4vVftDneApAV8xTD_nd-68" value="否" style="edgeLabel;html=1;align=center;verticalAlign=middle;resizable=0;points=[];" parent="V4vVftDneApAV8xTD_nd-67" vertex="1" connectable="0">
                    <mxGeometry x="-0.1333" y="2" relative="1" as="geometry">
                        <mxPoint as="offset"/>
                    </mxGeometry>
                </mxCell>
                <mxCell id="V4vVftDneApAV8xTD_nd-22" value="是否操作符" style="rhombus;whiteSpace=wrap;html=1;" parent="1" vertex="1">
                    <mxGeometry x="1230" y="420" width="80" height="80" as="geometry"/>
                </mxCell>
                <mxCell id="V4vVftDneApAV8xTD_nd-28" value="" style="edgeStyle=orthogonalEdgeStyle;curved=1;rounded=0;orthogonalLoop=1;jettySize=auto;html=1;" parent="1" source="V4vVftDneApAV8xTD_nd-26" target="V4vVftDneApAV8xTD_nd-27" edge="1">
                    <mxGeometry relative="1" as="geometry"/>
                </mxCell>
                <mxCell id="V4vVftDneApAV8xTD_nd-26" value="cond.Comment =&amp;nbsp; 键" style="rounded=1;whiteSpace=wrap;html=1;fillColor=#dae8fc;strokeColor=#6c8ebf;" parent="1" vertex="1">
                    <mxGeometry x="1390" y="540" width="120" height="60" as="geometry"/>
                </mxCell>
                <mxCell id="V4vVftDneApAV8xTD_nd-27" value="cond.Left = 值" style="rounded=1;whiteSpace=wrap;html=1;" parent="1" vertex="1">
                    <mxGeometry x="1570" y="540" width="120" height="60" as="geometry"/>
                </mxCell>
                <mxCell id="V4vVftDneApAV8xTD_nd-35" value="" style="edgeStyle=orthogonalEdgeStyle;rounded=0;orthogonalLoop=1;jettySize=auto;html=1;" parent="1" source="V4vVftDneApAV8xTD_nd-29" target="V4vVftDneApAV8xTD_nd-34" edge="1">
                    <mxGeometry relative="1" as="geometry"/>
                </mxCell>
                <mxCell id="V4vVftDneApAV8xTD_nd-29" value="cond.OP = 键" style="rounded=1;whiteSpace=wrap;html=1;fillColor=#dae8fc;strokeColor=#6c8ebf;" parent="1" vertex="1">
                    <mxGeometry x="1390" y="340" width="120" height="60" as="geometry"/>
                </mxCell>
                <mxCell id="V4vVftDneApAV8xTD_nd-34" value="&lt;div&gt;cond.Right = 值&lt;/div&gt;" style="rounded=1;whiteSpace=wrap;html=1;" parent="1" vertex="1">
                    <mxGeometry x="1570" y="340" width="120" height="60" as="geometry"/>
                </mxCell>
                <mxCell id="V4vVftDneApAV8xTD_nd-40" value="是" style="edgeStyle=orthogonalEdgeStyle;rounded=0;orthogonalLoop=1;jettySize=auto;html=1;" parent="1" source="V4vVftDneApAV8xTD_nd-36" target="V4vVftDneApAV8xTD_nd-39" edge="1">
                    <mxGeometry relative="1" as="geometry">
                        <Array as="points">
                            <mxPoint x="1270" y="610"/>
                            <mxPoint x="1270" y="610"/>
                        </Array>
                    </mxGeometry>
                </mxCell>
                <mxCell id="V4vVftDneApAV8xTD_nd-36" value="是否特别key" style="rhombus;whiteSpace=wrap;html=1;" parent="1" vertex="1">
                    <mxGeometry x="1230" y="530" width="80" height="80" as="geometry"/>
                </mxCell>
                <mxCell id="V4vVftDneApAV8xTD_nd-44" value="" style="edgeStyle=orthogonalEdgeStyle;rounded=0;orthogonalLoop=1;jettySize=auto;html=1;" parent="1" source="V4vVftDneApAV8xTD_nd-39" target="V4vVftDneApAV8xTD_nd-43" edge="1">
                    <mxGeometry relative="1" as="geometry"/>
                </mxCell>
                <mxCell id="V4vVftDneApAV8xTD_nd-48" value="" style="edgeStyle=orthogonalEdgeStyle;rounded=0;orthogonalLoop=1;jettySize=auto;html=1;" parent="1" source="V4vVftDneApAV8xTD_nd-39" target="V4vVftDneApAV8xTD_nd-46" edge="1">
                    <mxGeometry relative="1" as="geometry"/>
                </mxCell>
                <mxCell id="V4vVftDneApAV8xTD_nd-39" value="键=&quot;left&quot;" style="rounded=1;whiteSpace=wrap;html=1;" parent="1" vertex="1">
                    <mxGeometry x="1210" y="650" width="120" height="60" as="geometry"/>
                </mxCell>
                <mxCell id="V4vVftDneApAV8xTD_nd-43" value="cond.Left = 值" style="rounded=1;whiteSpace=wrap;html=1;" parent="1" vertex="1">
                    <mxGeometry x="1390" y="650" width="120" height="60" as="geometry"/>
                </mxCell>
                <mxCell id="V4vVftDneApAV8xTD_nd-45" value="" style="edgeStyle=orthogonalEdgeStyle;rounded=0;orthogonalLoop=1;jettySize=auto;html=1;" parent="1" source="V4vVftDneApAV8xTD_nd-46" target="V4vVftDneApAV8xTD_nd-47" edge="1">
                    <mxGeometry relative="1" as="geometry"/>
                </mxCell>
                <mxCell id="V4vVftDneApAV8xTD_nd-52" value="" style="edgeStyle=orthogonalEdgeStyle;rounded=0;orthogonalLoop=1;jettySize=auto;html=1;" parent="1" source="V4vVftDneApAV8xTD_nd-46" target="V4vVftDneApAV8xTD_nd-50" edge="1">
                    <mxGeometry relative="1" as="geometry"/>
                </mxCell>
                <mxCell id="V4vVftDneApAV8xTD_nd-46" value="键=&quot;right&quot;" style="rounded=1;whiteSpace=wrap;html=1;" parent="1" vertex="1">
                    <mxGeometry x="1210" y="760" width="120" height="60" as="geometry"/>
                </mxCell>
                <mxCell id="V4vVftDneApAV8xTD_nd-55" style="edgeStyle=orthogonalEdgeStyle;rounded=0;orthogonalLoop=1;jettySize=auto;html=1;exitX=1;exitY=0.5;exitDx=0;exitDy=0;" parent="1" source="V4vVftDneApAV8xTD_nd-47" target="V4vVftDneApAV8xTD_nd-53" edge="1">
                    <mxGeometry relative="1" as="geometry"/>
                </mxCell>
                <mxCell id="V4vVftDneApAV8xTD_nd-47" value="cond.Right = 值" style="rounded=1;whiteSpace=wrap;html=1;" parent="1" vertex="1">
                    <mxGeometry x="1390" y="760" width="120" height="60" as="geometry"/>
                </mxCell>
                <mxCell id="V4vVftDneApAV8xTD_nd-49" value="" style="edgeStyle=orthogonalEdgeStyle;rounded=0;orthogonalLoop=1;jettySize=auto;html=1;" parent="1" source="V4vVftDneApAV8xTD_nd-50" target="V4vVftDneApAV8xTD_nd-51" edge="1">
                    <mxGeometry relative="1" as="geometry"/>
                </mxCell>
                <mxCell id="V4vVftDneApAV8xTD_nd-57" value="" style="edgeStyle=orthogonalEdgeStyle;rounded=0;orthogonalLoop=1;jettySize=auto;html=1;" parent="1" source="V4vVftDneApAV8xTD_nd-50" target="V4vVftDneApAV8xTD_nd-56" edge="1">
                    <mxGeometry relative="1" as="geometry"/>
                </mxCell>
                <mxCell id="V4vVftDneApAV8xTD_nd-50" value="键=&quot;op&quot;" style="rounded=1;whiteSpace=wrap;html=1;" parent="1" vertex="1">
                    <mxGeometry x="1210" y="860" width="120" height="60" as="geometry"/>
                </mxCell>
                <mxCell id="V4vVftDneApAV8xTD_nd-54" value="" style="edgeStyle=orthogonalEdgeStyle;rounded=0;orthogonalLoop=1;jettySize=auto;html=1;" parent="1" source="V4vVftDneApAV8xTD_nd-51" target="V4vVftDneApAV8xTD_nd-53" edge="1">
                    <mxGeometry relative="1" as="geometry"/>
                </mxCell>
                <mxCell id="V4vVftDneApAV8xTD_nd-51" value="cond.OP = 值" style="rounded=1;whiteSpace=wrap;html=1;" parent="1" vertex="1">
                    <mxGeometry x="1390" y="860" width="120" height="60" as="geometry"/>
                </mxCell>
                <mxCell id="V4vVftDneApAV8xTD_nd-53" value="这种情况需要额外一个设置" style="rounded=1;whiteSpace=wrap;html=1;" parent="1" vertex="1">
                    <mxGeometry x="1590" y="860" width="120" height="60" as="geometry"/>
                </mxCell>
                <mxCell id="V4vVftDneApAV8xTD_nd-59" value="" style="edgeStyle=orthogonalEdgeStyle;rounded=0;orthogonalLoop=1;jettySize=auto;html=1;" parent="1" source="V4vVftDneApAV8xTD_nd-56" target="V4vVftDneApAV8xTD_nd-58" edge="1">
                    <mxGeometry relative="1" as="geometry"/>
                </mxCell>
                <mxCell id="V4vVftDneApAV8xTD_nd-61" value="" style="edgeStyle=orthogonalEdgeStyle;rounded=0;orthogonalLoop=1;jettySize=auto;html=1;" parent="1" source="V4vVftDneApAV8xTD_nd-56" target="V4vVftDneApAV8xTD_nd-60" edge="1">
                    <mxGeometry relative="1" as="geometry"/>
                </mxCell>
                <mxCell id="V4vVftDneApAV8xTD_nd-56" value="键=&quot;or&quot;" style="rounded=1;whiteSpace=wrap;html=1;" parent="1" vertex="1">
                    <mxGeometry x="1210" y="960" width="120" height="60" as="geometry"/>
                </mxCell>
                <mxCell id="V4vVftDneApAV8xTD_nd-72" value="" style="edgeStyle=orthogonalEdgeStyle;rounded=0;orthogonalLoop=1;jettySize=auto;html=1;" parent="1" source="V4vVftDneApAV8xTD_nd-58" target="V4vVftDneApAV8xTD_nd-71" edge="1">
                    <mxGeometry relative="1" as="geometry"/>
                </mxCell>
                <mxCell id="V4vVftDneApAV8xTD_nd-58" value="cond.OR = 值" style="rounded=1;whiteSpace=wrap;html=1;" parent="1" vertex="1">
                    <mxGeometry x="1390" y="960" width="120" height="60" as="geometry"/>
                </mxCell>
                <mxCell id="V4vVftDneApAV8xTD_nd-63" value="" style="edgeStyle=orthogonalEdgeStyle;rounded=0;orthogonalLoop=1;jettySize=auto;html=1;" parent="1" source="V4vVftDneApAV8xTD_nd-60" target="V4vVftDneApAV8xTD_nd-62" edge="1">
                    <mxGeometry relative="1" as="geometry"/>
                </mxCell>
                <mxCell id="V4vVftDneApAV8xTD_nd-60" value="键=&quot;comment&quot;" style="rounded=1;whiteSpace=wrap;html=1;" parent="1" vertex="1">
                    <mxGeometry x="1210" y="1060" width="120" height="60" as="geometry"/>
                </mxCell>
                <mxCell id="V4vVftDneApAV8xTD_nd-62" value="cond.Comment =&amp;nbsp; 值" style="rounded=1;whiteSpace=wrap;html=1;" parent="1" vertex="1">
                    <mxGeometry x="1390" y="1060" width="120" height="60" as="geometry"/>
                </mxCell>
                <mxCell id="V4vVftDneApAV8xTD_nd-69" value="&lt;div&gt;Left: : &quot;张三&quot;&lt;/div&gt;&lt;div&gt;Right : &quot;李四&quot;&lt;/div&gt;&lt;div&gt;&lt;span&gt;OP : &quot;=&quot;&lt;/span&gt;&lt;br&gt;&lt;/div&gt;&lt;div&gt;OR : false&lt;/div&gt;&lt;div&gt;Comment : &quot;用户&quot;&lt;/div&gt;" style="shape=document;whiteSpace=wrap;html=1;boundedLbl=1;size=0.07142857142857142;align=left;verticalAlign=top;fillColor=#fff2cc;strokeColor=#d6b656;" parent="1" vertex="1">
                    <mxGeometry x="1660" y="410" width="200" height="120" as="geometry"/>
                </mxCell>
                <mxCell id="V4vVftDneApAV8xTD_nd-74" value="" style="edgeStyle=orthogonalEdgeStyle;rounded=0;orthogonalLoop=1;jettySize=auto;html=1;" parent="1" source="V4vVftDneApAV8xTD_nd-71" target="V4vVftDneApAV8xTD_nd-73" edge="1">
                    <mxGeometry relative="1" as="geometry"/>
                </mxCell>
                <mxCell id="V4vVftDneApAV8xTD_nd-71" value="or默认=true" style="rounded=1;whiteSpace=wrap;html=1;" parent="1" vertex="1">
                    <mxGeometry x="1590" y="960" width="120" height="60" as="geometry"/>
                </mxCell>
                <mxCell id="V4vVftDneApAV8xTD_nd-73" value="存在在多个条件表达式时生效" style="rounded=1;whiteSpace=wrap;html=1;fillColor=#e1d5e7;strokeColor=#9673a6;" parent="1" vertex="1">
                    <mxGeometry x="1790" y="960" width="120" height="60" as="geometry"/>
                </mxCell>
                <mxCell id="V4vVftDneApAV8xTD_nd-75" value="{&quot;用户&quot;: &quot;张三&quot;, &quot;=&quot;: &quot;李四&quot;}, {&quot;or&quot;: true, &quot;用户&quot;: &quot;李四&quot;, &quot;=&quot;: &quot;李四&quot;}" style="shape=document;whiteSpace=wrap;html=1;boundedLbl=1;size=0.07142857142857142;align=center;verticalAlign=top;fillColor=#fff2cc;strokeColor=#d6b656;" parent="1" vertex="1">
                    <mxGeometry x="1950" y="930" width="200" height="120" as="geometry"/>
                </mxCell>
                <mxCell id="M2hhwYDpd_lP16iDZSC8-1" value="&lt;h1&gt;flow&amp;nbsp; 中使用条件执行&lt;/h1&gt;" style="text;html=1;strokeColor=#6c8ebf;fillColor=#dae8fc;spacing=5;spacingTop=-20;whiteSpace=wrap;overflow=hidden;rounded=0;" vertex="1" parent="1">
                    <mxGeometry x="840" y="20" width="190" height="120" as="geometry"/>
                </mxCell>
            </root>
        </mxGraphModel>
    </diagram>
    <diagram id="7txHQER5BtUjp0pUt8PE" name="charts">
        <mxGraphModel dx="1880" dy="993" grid="1" gridSize="10" guides="1" tooltips="1" connect="1" arrows="1" fold="1" page="1" pageScale="1" pageWidth="827" pageHeight="1169" math="0" shadow="0">
            <root>
                <mxCell id="0"/>
                <mxCell id="1" parent="0"/>
                <mxCell id="OQ7RCaRla4cQIF4lAfHG-3" value="" style="edgeStyle=orthogonalEdgeStyle;curved=1;rounded=0;orthogonalLoop=1;jettySize=auto;html=1;entryX=0;entryY=0.5;entryDx=0;entryDy=0;" parent="1" source="OQ7RCaRla4cQIF4lAfHG-1" target="OQ7RCaRla4cQIF4lAfHG-2" edge="1">
                    <mxGeometry relative="1" as="geometry"/>
                </mxCell>
                <mxCell id="OQ7RCaRla4cQIF4lAfHG-6" style="edgeStyle=orthogonalEdgeStyle;curved=1;rounded=0;orthogonalLoop=1;jettySize=auto;html=1;exitX=1;exitY=0.5;exitDx=0;exitDy=0;entryX=0;entryY=0.5;entryDx=0;entryDy=0;" parent="1" source="OQ7RCaRla4cQIF4lAfHG-1" target="OQ7RCaRla4cQIF4lAfHG-4" edge="1">
                    <mxGeometry relative="1" as="geometry"/>
                </mxCell>
                <mxCell id="OQ7RCaRla4cQIF4lAfHG-1" value="apis&lt;br&gt;请求" style="rounded=1;whiteSpace=wrap;html=1;fillColor=#dae8fc;strokeColor=#6c8ebf;" parent="1" vertex="1">
                    <mxGeometry x="40" y="460" width="120" height="60" as="geometry"/>
                </mxCell>
                <mxCell id="OQ7RCaRla4cQIF4lAfHG-8" value="" style="edgeStyle=orthogonalEdgeStyle;curved=1;rounded=0;orthogonalLoop=1;jettySize=auto;html=1;" parent="1" source="OQ7RCaRla4cQIF4lAfHG-2" target="OQ7RCaRla4cQIF4lAfHG-7" edge="1">
                    <mxGeometry relative="1" as="geometry"/>
                </mxCell>
                <mxCell id="OQ7RCaRla4cQIF4lAfHG-2" value="路由&lt;br&gt;xiang/chart/:name/data" style="rounded=1;whiteSpace=wrap;html=1;" parent="1" vertex="1">
                    <mxGeometry x="260" y="390" width="160" height="60" as="geometry"/>
                </mxCell>
                <mxCell id="OQ7RCaRla4cQIF4lAfHG-10" value="" style="edgeStyle=orthogonalEdgeStyle;curved=1;rounded=0;orthogonalLoop=1;jettySize=auto;html=1;" parent="1" source="OQ7RCaRla4cQIF4lAfHG-4" target="OQ7RCaRla4cQIF4lAfHG-9" edge="1">
                    <mxGeometry relative="1" as="geometry"/>
                </mxCell>
                <mxCell id="OQ7RCaRla4cQIF4lAfHG-4" value="&lt;div&gt;路由&lt;/div&gt;&lt;div&gt;xiang/chart/:name/setting&lt;/div&gt;" style="rounded=1;whiteSpace=wrap;html=1;" parent="1" vertex="1">
                    <mxGeometry x="260" y="560" width="160" height="60" as="geometry"/>
                </mxCell>
                <mxCell id="OQ7RCaRla4cQIF4lAfHG-12" value="" style="edgeStyle=orthogonalEdgeStyle;curved=1;rounded=0;orthogonalLoop=1;jettySize=auto;html=1;" parent="1" source="OQ7RCaRla4cQIF4lAfHG-7" target="OQ7RCaRla4cQIF4lAfHG-11" edge="1">
                    <mxGeometry relative="1" as="geometry"/>
                </mxCell>
                <mxCell id="OQ7RCaRla4cQIF4lAfHG-7" value="xiang.chart.data" style="rounded=1;whiteSpace=wrap;html=1;" parent="1" vertex="1">
                    <mxGeometry x="470" y="390" width="120" height="60" as="geometry"/>
                </mxCell>
                <mxCell id="OQ7RCaRla4cQIF4lAfHG-17" value="" style="edgeStyle=orthogonalEdgeStyle;curved=1;rounded=0;orthogonalLoop=1;jettySize=auto;html=1;" parent="1" source="OQ7RCaRla4cQIF4lAfHG-9" target="OQ7RCaRla4cQIF4lAfHG-16" edge="1">
                    <mxGeometry relative="1" as="geometry"/>
                </mxCell>
                <mxCell id="OQ7RCaRla4cQIF4lAfHG-9" value="xiang.chart.setting" style="rounded=1;whiteSpace=wrap;html=1;" parent="1" vertex="1">
                    <mxGeometry x="470" y="560" width="120" height="60" as="geometry"/>
                </mxCell>
                <mxCell id="OQ7RCaRla4cQIF4lAfHG-11" value="ProcessData" style="rounded=1;whiteSpace=wrap;html=1;" parent="1" vertex="1">
                    <mxGeometry x="630" y="390" width="120" height="60" as="geometry"/>
                </mxCell>
                <mxCell id="OQ7RCaRla4cQIF4lAfHG-16" value="ProcessSetting" style="rounded=1;whiteSpace=wrap;html=1;" parent="1" vertex="1">
                    <mxGeometry x="630" y="560" width="120" height="60" as="geometry"/>
                </mxCell>
                <mxCell id="OQ7RCaRla4cQIF4lAfHG-21" value="" style="edgeStyle=orthogonalEdgeStyle;curved=1;rounded=0;orthogonalLoop=1;jettySize=auto;html=1;" parent="1" source="OQ7RCaRla4cQIF4lAfHG-19" target="OQ7RCaRla4cQIF4lAfHG-20" edge="1">
                    <mxGeometry relative="1" as="geometry"/>
                </mxCell>
                <mxCell id="OQ7RCaRla4cQIF4lAfHG-19" value="配置文件" style="rounded=1;whiteSpace=wrap;html=1;" parent="1" vertex="1">
                    <mxGeometry x="530" y="30" width="120" height="60" as="geometry"/>
                </mxCell>
                <mxCell id="OQ7RCaRla4cQIF4lAfHG-23" value="" style="edgeStyle=orthogonalEdgeStyle;curved=1;rounded=0;orthogonalLoop=1;jettySize=auto;html=1;" parent="1" source="OQ7RCaRla4cQIF4lAfHG-20" target="OQ7RCaRla4cQIF4lAfHG-22" edge="1">
                    <mxGeometry relative="1" as="geometry"/>
                </mxCell>
                <mxCell id="OQ7RCaRla4cQIF4lAfHG-20" value="目录&lt;br&gt;/charts" style="rounded=1;whiteSpace=wrap;html=1;" parent="1" vertex="1">
                    <mxGeometry x="710" y="30" width="120" height="60" as="geometry"/>
                </mxCell>
                <mxCell id="OQ7RCaRla4cQIF4lAfHG-25" value="" style="edgeStyle=orthogonalEdgeStyle;curved=1;rounded=0;orthogonalLoop=1;jettySize=auto;html=1;exitX=0.5;exitY=1;exitDx=0;exitDy=0;" parent="1" source="OQ7RCaRla4cQIF4lAfHG-22" target="OQ7RCaRla4cQIF4lAfHG-24" edge="1">
                    <mxGeometry relative="1" as="geometry"/>
                </mxCell>
                <mxCell id="OQ7RCaRla4cQIF4lAfHG-28" style="edgeStyle=orthogonalEdgeStyle;curved=1;rounded=0;orthogonalLoop=1;jettySize=auto;html=1;exitX=0.5;exitY=1;exitDx=0;exitDy=0;" parent="1" source="OQ7RCaRla4cQIF4lAfHG-22" target="OQ7RCaRla4cQIF4lAfHG-26" edge="1">
                    <mxGeometry relative="1" as="geometry"/>
                </mxCell>
                <mxCell id="OQ7RCaRla4cQIF4lAfHG-22" value="配置包含了两部分" style="rounded=1;whiteSpace=wrap;html=1;" parent="1" vertex="1">
                    <mxGeometry x="900" y="30" width="120" height="60" as="geometry"/>
                </mxCell>
                <mxCell id="OQ7RCaRla4cQIF4lAfHG-35" value="" style="edgeStyle=orthogonalEdgeStyle;curved=1;rounded=0;orthogonalLoop=1;jettySize=auto;html=1;" parent="1" source="OQ7RCaRla4cQIF4lAfHG-24" target="OQ7RCaRla4cQIF4lAfHG-34" edge="1">
                    <mxGeometry relative="1" as="geometry"/>
                </mxCell>
                <mxCell id="OQ7RCaRla4cQIF4lAfHG-24" value="前端" style="rounded=1;whiteSpace=wrap;html=1;" parent="1" vertex="1">
                    <mxGeometry x="980" y="170" width="120" height="60" as="geometry"/>
                </mxCell>
                <mxCell id="OQ7RCaRla4cQIF4lAfHG-32" value="" style="edgeStyle=orthogonalEdgeStyle;curved=1;rounded=0;orthogonalLoop=1;jettySize=auto;html=1;" parent="1" source="OQ7RCaRla4cQIF4lAfHG-26" target="OQ7RCaRla4cQIF4lAfHG-31" edge="1">
                    <mxGeometry relative="1" as="geometry"/>
                </mxCell>
                <mxCell id="OQ7RCaRla4cQIF4lAfHG-26" value="后端" style="rounded=1;whiteSpace=wrap;html=1;" parent="1" vertex="1">
                    <mxGeometry x="810" y="170" width="120" height="60" as="geometry"/>
                </mxCell>
                <mxCell id="OQ7RCaRla4cQIF4lAfHG-33" style="edgeStyle=orthogonalEdgeStyle;curved=1;rounded=0;orthogonalLoop=1;jettySize=auto;html=1;exitX=0.5;exitY=1;exitDx=0;exitDy=0;entryX=1;entryY=0.5;entryDx=0;entryDy=0;" parent="1" source="OQ7RCaRla4cQIF4lAfHG-31" target="OQ7RCaRla4cQIF4lAfHG-11" edge="1">
                    <mxGeometry relative="1" as="geometry"/>
                </mxCell>
                <mxCell id="OQ7RCaRla4cQIF4lAfHG-31" value="flow&lt;br&gt;nodes" style="rounded=1;whiteSpace=wrap;html=1;" parent="1" vertex="1">
                    <mxGeometry x="810" y="290" width="120" height="60" as="geometry"/>
                </mxCell>
                <mxCell id="OQ7RCaRla4cQIF4lAfHG-37" value="" style="edgeStyle=orthogonalEdgeStyle;curved=1;rounded=0;orthogonalLoop=1;jettySize=auto;html=1;" parent="1" source="OQ7RCaRla4cQIF4lAfHG-34" target="OQ7RCaRla4cQIF4lAfHG-36" edge="1">
                    <mxGeometry relative="1" as="geometry"/>
                </mxCell>
                <mxCell id="OQ7RCaRla4cQIF4lAfHG-34" value="page" style="rounded=1;whiteSpace=wrap;html=1;" parent="1" vertex="1">
                    <mxGeometry x="980" y="290" width="120" height="60" as="geometry"/>
                </mxCell>
                <mxCell id="OQ7RCaRla4cQIF4lAfHG-38" style="edgeStyle=orthogonalEdgeStyle;curved=1;rounded=0;orthogonalLoop=1;jettySize=auto;html=1;exitX=0.5;exitY=1;exitDx=0;exitDy=0;entryX=1;entryY=0.5;entryDx=0;entryDy=0;" parent="1" source="OQ7RCaRla4cQIF4lAfHG-36" target="OQ7RCaRla4cQIF4lAfHG-16" edge="1">
                    <mxGeometry relative="1" as="geometry"/>
                </mxCell>
                <mxCell id="OQ7RCaRla4cQIF4lAfHG-36" value="fiters" style="rounded=1;whiteSpace=wrap;html=1;" parent="1" vertex="1">
                    <mxGeometry x="980" y="400" width="120" height="60" as="geometry"/>
                </mxCell>
                <mxCell id="575UNUMjiNS8IsQefi5n-2" value="&lt;h1&gt;Chart Process&lt;/h1&gt;&lt;p&gt;Chart Request Process&lt;/p&gt;" style="text;html=1;strokeColor=#6c8ebf;fillColor=#dae8fc;spacing=5;spacingTop=-20;whiteSpace=wrap;overflow=hidden;rounded=0;" vertex="1" parent="1">
                    <mxGeometry x="50" y="30" width="190" height="120" as="geometry"/>
                </mxCell>
            </root>
        </mxGraphModel>
    </diagram>
    <diagram id="np7VeXyvGECNCUhX1rnA" name="参数查询">
        <mxGraphModel dx="1880" dy="993" grid="1" gridSize="10" guides="1" tooltips="1" connect="1" arrows="1" fold="1" page="1" pageScale="1" pageWidth="827" pageHeight="1169" math="0" shadow="0">
            <root>
                <mxCell id="0"/>
                <mxCell id="1" parent="0"/>
                <mxCell id="DWJUnKyl3gu6mCYbQU5R-17" style="edgeStyle=orthogonalEdgeStyle;rounded=0;orthogonalLoop=1;jettySize=auto;html=1;exitX=1;exitY=0.5;exitDx=0;exitDy=0;strokeWidth=1;fontColor=#000000;" parent="1" source="DWJUnKyl3gu6mCYbQU5R-1" target="DWJUnKyl3gu6mCYbQU5R-11" edge="1">
                    <mxGeometry relative="1" as="geometry"/>
                </mxCell>
                <mxCell id="_iePCIHYdTUhaAArU5x5-15" style="edgeStyle=orthogonalEdgeStyle;rounded=0;orthogonalLoop=1;jettySize=auto;html=1;exitX=0.75;exitY=1;exitDx=0;exitDy=0;" parent="1" source="DWJUnKyl3gu6mCYbQU5R-1" target="_iePCIHYdTUhaAArU5x5-2" edge="1">
                    <mxGeometry relative="1" as="geometry"/>
                </mxCell>
                <mxCell id="DWJUnKyl3gu6mCYbQU5R-1" value="&lt;div style=&quot;line-height: 22px;&quot;&gt;&lt;font face=&quot;Consolas, Courier New, monospace&quot;&gt;&lt;span style=&quot;font-size: 16px;&quot;&gt;QueryParam&lt;/span&gt;&lt;/font&gt;&lt;br&gt;&lt;/div&gt;" style="rounded=0;whiteSpace=wrap;html=1;fillColor=#fff2cc;strokeColor=#d6b656;fontColor=default;labelBackgroundColor=none;" parent="1" vertex="1">
                    <mxGeometry x="510" y="250" width="120" height="60" as="geometry"/>
                </mxCell>
                <mxCell id="DWJUnKyl3gu6mCYbQU5R-10" value="" style="edgeStyle=orthogonalEdgeStyle;rounded=0;orthogonalLoop=1;jettySize=auto;html=1;strokeWidth=1;fontColor=#000000;exitX=0.5;exitY=0;exitDx=0;exitDy=0;entryX=0;entryY=0.5;entryDx=0;entryDy=0;" parent="1" source="DWJUnKyl3gu6mCYbQU5R-8" target="DWJUnKyl3gu6mCYbQU5R-9" edge="1">
                    <mxGeometry relative="1" as="geometry"/>
                </mxCell>
                <mxCell id="DWJUnKyl3gu6mCYbQU5R-26" style="edgeStyle=orthogonalEdgeStyle;rounded=0;orthogonalLoop=1;jettySize=auto;html=1;entryX=0;entryY=0.5;entryDx=0;entryDy=0;strokeWidth=1;fontColor=#000000;exitX=0.5;exitY=1;exitDx=0;exitDy=0;" parent="1" source="DWJUnKyl3gu6mCYbQU5R-8" target="DWJUnKyl3gu6mCYbQU5R-25" edge="1">
                    <mxGeometry relative="1" as="geometry"/>
                </mxCell>
                <mxCell id="DWJUnKyl3gu6mCYbQU5R-8" value="Model" style="rounded=0;whiteSpace=wrap;html=1;fontColor=#ffffff;fillColor=#1ba1e2;strokeColor=#006EAF;" parent="1" vertex="1">
                    <mxGeometry x="20" y="340" width="120" height="60" as="geometry"/>
                </mxCell>
                <mxCell id="Vsvt-fHxIzGGUa41ip-w-2" style="edgeStyle=orthogonalEdgeStyle;rounded=0;orthogonalLoop=1;jettySize=auto;html=1;exitX=1;exitY=0.5;exitDx=0;exitDy=0;entryX=0;entryY=0.5;entryDx=0;entryDy=0;strokeWidth=1;fontColor=default;" parent="1" source="DWJUnKyl3gu6mCYbQU5R-9" target="DWJUnKyl3gu6mCYbQU5R-21" edge="1">
                    <mxGeometry relative="1" as="geometry"/>
                </mxCell>
                <mxCell id="Vsvt-fHxIzGGUa41ip-w-3" style="edgeStyle=orthogonalEdgeStyle;rounded=0;orthogonalLoop=1;jettySize=auto;html=1;exitX=1;exitY=0.5;exitDx=0;exitDy=0;entryX=0;entryY=0.5;entryDx=0;entryDy=0;strokeWidth=1;fontColor=default;" parent="1" source="DWJUnKyl3gu6mCYbQU5R-9" target="DWJUnKyl3gu6mCYbQU5R-19" edge="1">
                    <mxGeometry relative="1" as="geometry"/>
                </mxCell>
                <mxCell id="_iePCIHYdTUhaAArU5x5-32" style="edgeStyle=orthogonalEdgeStyle;rounded=0;orthogonalLoop=1;jettySize=auto;html=1;exitX=0.5;exitY=1;exitDx=0;exitDy=0;" parent="1" source="DWJUnKyl3gu6mCYbQU5R-9" target="_iePCIHYdTUhaAArU5x5-28" edge="1">
                    <mxGeometry relative="1" as="geometry"/>
                </mxCell>
                <mxCell id="DWJUnKyl3gu6mCYbQU5R-9" value="查询" style="whiteSpace=wrap;html=1;fontColor=#000000;rounded=0;" parent="1" vertex="1">
                    <mxGeometry x="140" y="250" width="120" height="60" as="geometry"/>
                </mxCell>
                <mxCell id="Vsvt-fHxIzGGUa41ip-w-9" style="edgeStyle=orthogonalEdgeStyle;rounded=0;orthogonalLoop=1;jettySize=auto;html=1;entryX=0;entryY=0.5;entryDx=0;entryDy=0;strokeWidth=1;fontColor=default;" parent="1" source="DWJUnKyl3gu6mCYbQU5R-11" target="Vsvt-fHxIzGGUa41ip-w-8" edge="1">
                    <mxGeometry relative="1" as="geometry"/>
                </mxCell>
                <mxCell id="DWJUnKyl3gu6mCYbQU5R-11" value="NewQueryStack&lt;br&gt;新建查询栈" style="whiteSpace=wrap;html=1;fontColor=#000000;rounded=0;" parent="1" vertex="1">
                    <mxGeometry x="710" y="250" width="120" height="60" as="geometry"/>
                </mxCell>
                <mxCell id="DWJUnKyl3gu6mCYbQU5R-20" style="edgeStyle=orthogonalEdgeStyle;rounded=0;orthogonalLoop=1;jettySize=auto;html=1;exitX=1;exitY=0.5;exitDx=0;exitDy=0;strokeWidth=1;fontColor=#000000;entryX=0.5;entryY=1;entryDx=0;entryDy=0;" parent="1" source="DWJUnKyl3gu6mCYbQU5R-19" target="DWJUnKyl3gu6mCYbQU5R-1" edge="1">
                    <mxGeometry relative="1" as="geometry"/>
                </mxCell>
                <mxCell id="DWJUnKyl3gu6mCYbQU5R-19" value="Url转换成查询参数" style="rounded=0;whiteSpace=wrap;html=1;fontColor=#000000;" parent="1" vertex="1">
                    <mxGeometry x="340" y="310" width="120" height="60" as="geometry"/>
                </mxCell>
                <mxCell id="DWJUnKyl3gu6mCYbQU5R-22" style="edgeStyle=orthogonalEdgeStyle;rounded=0;orthogonalLoop=1;jettySize=auto;html=1;exitX=1;exitY=0.5;exitDx=0;exitDy=0;strokeWidth=1;fontColor=#000000;" parent="1" source="DWJUnKyl3gu6mCYbQU5R-21" target="DWJUnKyl3gu6mCYbQU5R-1" edge="1">
                    <mxGeometry relative="1" as="geometry"/>
                </mxCell>
                <mxCell id="DWJUnKyl3gu6mCYbQU5R-21" value="interface{}转换成查询参数" style="rounded=0;whiteSpace=wrap;html=1;fontColor=#000000;" parent="1" vertex="1">
                    <mxGeometry x="340" y="160" width="120" height="60" as="geometry"/>
                </mxCell>
                <mxCell id="DWJUnKyl3gu6mCYbQU5R-27" style="edgeStyle=orthogonalEdgeStyle;rounded=0;orthogonalLoop=1;jettySize=auto;html=1;exitX=0.5;exitY=0;exitDx=0;exitDy=0;strokeWidth=1;fontColor=#000000;entryX=0.5;entryY=1;entryDx=0;entryDy=0;" parent="1" source="DWJUnKyl3gu6mCYbQU5R-25" target="DWJUnKyl3gu6mCYbQU5R-11" edge="1">
                    <mxGeometry relative="1" as="geometry"/>
                </mxCell>
                <mxCell id="Vsvt-fHxIzGGUa41ip-w-14" style="edgeStyle=orthogonalEdgeStyle;rounded=0;orthogonalLoop=1;jettySize=auto;html=1;exitX=1;exitY=0.5;exitDx=0;exitDy=0;entryX=0;entryY=0.5;entryDx=0;entryDy=0;strokeWidth=1;fontColor=default;" parent="1" source="DWJUnKyl3gu6mCYbQU5R-25" target="Vsvt-fHxIzGGUa41ip-w-12" edge="1">
                    <mxGeometry relative="1" as="geometry"/>
                </mxCell>
                <mxCell id="DWJUnKyl3gu6mCYbQU5R-25" value="提供与模型相关的各项数据：&lt;br&gt;表名&lt;br&gt;表列名" style="rounded=0;whiteSpace=wrap;html=1;fontColor=#000000;" parent="1" vertex="1">
                    <mxGeometry x="710" y="400" width="120" height="60" as="geometry"/>
                </mxCell>
                <mxCell id="4nFJdqa-9u6a4rohXR7u-1" style="edgeStyle=orthogonalEdgeStyle;rounded=0;orthogonalLoop=1;jettySize=auto;html=1;exitX=0.5;exitY=1;exitDx=0;exitDy=0;entryX=0.5;entryY=0;entryDx=0;entryDy=0;strokeWidth=1;fontColor=#000000;" parent="1" source="DWJUnKyl3gu6mCYbQU5R-28" target="DWJUnKyl3gu6mCYbQU5R-11" edge="1">
                    <mxGeometry relative="1" as="geometry"/>
                </mxCell>
                <mxCell id="DWJUnKyl3gu6mCYbQU5R-28" value="&lt;div&gt;capsule.Query()&lt;/div&gt;&lt;div&gt;对外接口&lt;/div&gt;" style="rounded=0;whiteSpace=wrap;html=1;fontColor=#000000;" parent="1" vertex="1">
                    <mxGeometry x="710" y="120" width="120" height="60" as="geometry"/>
                </mxCell>
                <mxCell id="Vsvt-fHxIzGGUa41ip-w-1" value="&lt;h1&gt;QueryParm查询&lt;/h1&gt;&lt;p&gt;模型的带参数查询&lt;/p&gt;" style="text;html=1;strokeColor=#6c8ebf;fillColor=#dae8fc;spacing=5;spacingTop=-20;whiteSpace=wrap;overflow=hidden;rounded=0;" parent="1" vertex="1">
                    <mxGeometry x="30" y="30" width="190" height="120" as="geometry"/>
                </mxCell>
                <mxCell id="Vsvt-fHxIzGGUa41ip-w-7" value="" style="edgeStyle=orthogonalEdgeStyle;rounded=0;orthogonalLoop=1;jettySize=auto;html=1;strokeWidth=1;fontColor=default;" parent="1" source="Vsvt-fHxIzGGUa41ip-w-4" target="Vsvt-fHxIzGGUa41ip-w-6" edge="1">
                    <mxGeometry relative="1" as="geometry"/>
                </mxCell>
                <mxCell id="Vsvt-fHxIzGGUa41ip-w-4" value="Run" style="whiteSpace=wrap;html=1;fontColor=#000000;rounded=0;" parent="1" vertex="1">
                    <mxGeometry x="1080" y="250" width="120" height="60" as="geometry"/>
                </mxCell>
                <mxCell id="Vsvt-fHxIzGGUa41ip-w-6" value="返回结果" style="whiteSpace=wrap;html=1;fontColor=#000000;rounded=0;" parent="1" vertex="1">
                    <mxGeometry x="1280" y="250" width="120" height="60" as="geometry"/>
                </mxCell>
                <mxCell id="Vsvt-fHxIzGGUa41ip-w-10" style="edgeStyle=orthogonalEdgeStyle;rounded=0;orthogonalLoop=1;jettySize=auto;html=1;exitX=1;exitY=0.5;exitDx=0;exitDy=0;strokeWidth=1;fontColor=default;" parent="1" source="Vsvt-fHxIzGGUa41ip-w-8" target="Vsvt-fHxIzGGUa41ip-w-4" edge="1">
                    <mxGeometry relative="1" as="geometry"/>
                </mxCell>
                <mxCell id="Vsvt-fHxIzGGUa41ip-w-13" value="" style="edgeStyle=orthogonalEdgeStyle;rounded=0;orthogonalLoop=1;jettySize=auto;html=1;strokeWidth=1;fontColor=default;" parent="1" source="Vsvt-fHxIzGGUa41ip-w-8" target="Vsvt-fHxIzGGUa41ip-w-12" edge="1">
                    <mxGeometry relative="1" as="geometry"/>
                </mxCell>
                <mxCell id="Vsvt-fHxIzGGUa41ip-w-8" value="Stack()" style="rounded=0;whiteSpace=wrap;html=1;labelBackgroundColor=none;fontColor=default;" parent="1" vertex="1">
                    <mxGeometry x="900" y="250" width="120" height="60" as="geometry"/>
                </mxCell>
                <mxCell id="Vsvt-fHxIzGGUa41ip-w-12" value="处理模型与模型之间的关联关系" style="rounded=0;whiteSpace=wrap;html=1;labelBackgroundColor=none;fontColor=default;" parent="1" vertex="1">
                    <mxGeometry x="900" y="400" width="120" height="60" as="geometry"/>
                </mxCell>
                <mxCell id="_iePCIHYdTUhaAArU5x5-4" value="" style="edgeStyle=orthogonalEdgeStyle;rounded=0;orthogonalLoop=1;jettySize=auto;html=1;" parent="1" source="_iePCIHYdTUhaAArU5x5-2" target="_iePCIHYdTUhaAArU5x5-3" edge="1">
                    <mxGeometry relative="1" as="geometry"/>
                </mxCell>
                <mxCell id="_iePCIHYdTUhaAArU5x5-2" value="Select&lt;br&gt;筛选输出字段" style="rounded=0;whiteSpace=wrap;html=1;" parent="1" vertex="1">
                    <mxGeometry x="540" y="460" width="120" height="60" as="geometry"/>
                </mxCell>
                <mxCell id="_iePCIHYdTUhaAArU5x5-6" value="" style="edgeStyle=orthogonalEdgeStyle;rounded=0;orthogonalLoop=1;jettySize=auto;html=1;" parent="1" source="_iePCIHYdTUhaAArU5x5-3" target="_iePCIHYdTUhaAArU5x5-5" edge="1">
                    <mxGeometry relative="1" as="geometry"/>
                </mxCell>
                <mxCell id="_iePCIHYdTUhaAArU5x5-3" value="Wheres&lt;br&gt;SQL条件" style="rounded=0;whiteSpace=wrap;html=1;" parent="1" vertex="1">
                    <mxGeometry x="540" y="555" width="120" height="60" as="geometry"/>
                </mxCell>
                <mxCell id="_iePCIHYdTUhaAArU5x5-8" value="" style="edgeStyle=orthogonalEdgeStyle;rounded=0;orthogonalLoop=1;jettySize=auto;html=1;" parent="1" source="_iePCIHYdTUhaAArU5x5-5" target="_iePCIHYdTUhaAArU5x5-7" edge="1">
                    <mxGeometry relative="1" as="geometry"/>
                </mxCell>
                <mxCell id="_iePCIHYdTUhaAArU5x5-5" value="Orders&lt;br&gt;排序" style="rounded=0;whiteSpace=wrap;html=1;" parent="1" vertex="1">
                    <mxGeometry x="540" y="650" width="120" height="60" as="geometry"/>
                </mxCell>
                <mxCell id="_iePCIHYdTUhaAArU5x5-10" value="" style="edgeStyle=orthogonalEdgeStyle;rounded=0;orthogonalLoop=1;jettySize=auto;html=1;" parent="1" source="_iePCIHYdTUhaAArU5x5-7" target="_iePCIHYdTUhaAArU5x5-9" edge="1">
                    <mxGeometry relative="1" as="geometry"/>
                </mxCell>
                <mxCell id="_iePCIHYdTUhaAArU5x5-7" value="Limit&lt;br&gt;限制" style="rounded=0;whiteSpace=wrap;html=1;" parent="1" vertex="1">
                    <mxGeometry x="540" y="745" width="120" height="60" as="geometry"/>
                </mxCell>
                <mxCell id="_iePCIHYdTUhaAArU5x5-12" value="" style="edgeStyle=orthogonalEdgeStyle;rounded=0;orthogonalLoop=1;jettySize=auto;html=1;" parent="1" source="_iePCIHYdTUhaAArU5x5-9" target="_iePCIHYdTUhaAArU5x5-11" edge="1">
                    <mxGeometry relative="1" as="geometry"/>
                </mxCell>
                <mxCell id="_iePCIHYdTUhaAArU5x5-9" value="Page&lt;br&gt;页数" style="rounded=0;whiteSpace=wrap;html=1;" parent="1" vertex="1">
                    <mxGeometry x="540" y="830" width="120" height="60" as="geometry"/>
                </mxCell>
                <mxCell id="_iePCIHYdTUhaAArU5x5-14" value="" style="edgeStyle=orthogonalEdgeStyle;rounded=0;orthogonalLoop=1;jettySize=auto;html=1;" parent="1" source="_iePCIHYdTUhaAArU5x5-11" target="_iePCIHYdTUhaAArU5x5-13" edge="1">
                    <mxGeometry relative="1" as="geometry"/>
                </mxCell>
                <mxCell id="_iePCIHYdTUhaAArU5x5-11" value="PageSize&lt;br&gt;分页数量" style="rounded=0;whiteSpace=wrap;html=1;" parent="1" vertex="1">
                    <mxGeometry x="540" y="915" width="120" height="60" as="geometry"/>
                </mxCell>
                <mxCell id="_iePCIHYdTUhaAArU5x5-16" style="edgeStyle=orthogonalEdgeStyle;rounded=0;orthogonalLoop=1;jettySize=auto;html=1;exitX=1;exitY=0.5;exitDx=0;exitDy=0;entryX=0.5;entryY=1;entryDx=0;entryDy=0;" parent="1" source="_iePCIHYdTUhaAArU5x5-13" target="Vsvt-fHxIzGGUa41ip-w-12" edge="1">
                    <mxGeometry relative="1" as="geometry"/>
                </mxCell>
                <mxCell id="_iePCIHYdTUhaAArU5x5-13" value="Withs&lt;br&gt;关联表查询" style="rounded=0;whiteSpace=wrap;html=1;" parent="1" vertex="1">
                    <mxGeometry x="540" y="1005" width="120" height="60" as="geometry"/>
                </mxCell>
                <mxCell id="_iePCIHYdTUhaAArU5x5-19" value="" style="edgeStyle=orthogonalEdgeStyle;rounded=0;orthogonalLoop=1;jettySize=auto;html=1;" parent="1" source="_iePCIHYdTUhaAArU5x5-17" target="_iePCIHYdTUhaAArU5x5-18" edge="1">
                    <mxGeometry relative="1" as="geometry"/>
                </mxCell>
                <mxCell id="_iePCIHYdTUhaAArU5x5-17" value="processFind" style="rounded=0;whiteSpace=wrap;html=1;" parent="1" vertex="1">
                    <mxGeometry x="140" y="555" width="120" height="60" as="geometry"/>
                </mxCell>
                <mxCell id="_iePCIHYdTUhaAArU5x5-21" value="" style="edgeStyle=orthogonalEdgeStyle;rounded=0;orthogonalLoop=1;jettySize=auto;html=1;" parent="1" source="_iePCIHYdTUhaAArU5x5-18" target="_iePCIHYdTUhaAArU5x5-20" edge="1">
                    <mxGeometry relative="1" as="geometry"/>
                </mxCell>
                <mxCell id="_iePCIHYdTUhaAArU5x5-18" value="processGet" style="rounded=0;whiteSpace=wrap;html=1;" parent="1" vertex="1">
                    <mxGeometry x="140" y="645" width="120" height="60" as="geometry"/>
                </mxCell>
                <mxCell id="_iePCIHYdTUhaAArU5x5-23" value="" style="edgeStyle=orthogonalEdgeStyle;rounded=0;orthogonalLoop=1;jettySize=auto;html=1;" parent="1" source="_iePCIHYdTUhaAArU5x5-20" target="_iePCIHYdTUhaAArU5x5-22" edge="1">
                    <mxGeometry relative="1" as="geometry"/>
                </mxCell>
                <mxCell id="_iePCIHYdTUhaAArU5x5-20" value="processPaginate" style="rounded=0;whiteSpace=wrap;html=1;" parent="1" vertex="1">
                    <mxGeometry x="140" y="740" width="120" height="60" as="geometry"/>
                </mxCell>
                <mxCell id="_iePCIHYdTUhaAArU5x5-25" value="" style="edgeStyle=orthogonalEdgeStyle;rounded=0;orthogonalLoop=1;jettySize=auto;html=1;" parent="1" source="_iePCIHYdTUhaAArU5x5-22" target="_iePCIHYdTUhaAArU5x5-24" edge="1">
                    <mxGeometry relative="1" as="geometry"/>
                </mxCell>
                <mxCell id="_iePCIHYdTUhaAArU5x5-22" value="processUpdateWhere" style="rounded=0;whiteSpace=wrap;html=1;" parent="1" vertex="1">
                    <mxGeometry x="140" y="830" width="120" height="60" as="geometry"/>
                </mxCell>
                <mxCell id="_iePCIHYdTUhaAArU5x5-27" value="" style="edgeStyle=orthogonalEdgeStyle;rounded=0;orthogonalLoop=1;jettySize=auto;html=1;" parent="1" source="_iePCIHYdTUhaAArU5x5-24" target="_iePCIHYdTUhaAArU5x5-26" edge="1">
                    <mxGeometry relative="1" as="geometry"/>
                </mxCell>
                <mxCell id="_iePCIHYdTUhaAArU5x5-24" value="processDeleteWhere" style="rounded=0;whiteSpace=wrap;html=1;" parent="1" vertex="1">
                    <mxGeometry x="140" y="930" width="120" height="60" as="geometry"/>
                </mxCell>
                <mxCell id="_iePCIHYdTUhaAArU5x5-26" value="processDestroyWhere" style="rounded=0;whiteSpace=wrap;html=1;" parent="1" vertex="1">
                    <mxGeometry x="140" y="1030" width="120" height="60" as="geometry"/>
                </mxCell>
                <mxCell id="_iePCIHYdTUhaAArU5x5-29" style="edgeStyle=orthogonalEdgeStyle;rounded=0;orthogonalLoop=1;jettySize=auto;html=1;exitX=0.5;exitY=1;exitDx=0;exitDy=0;entryX=0.5;entryY=0;entryDx=0;entryDy=0;" parent="1" source="_iePCIHYdTUhaAArU5x5-28" target="_iePCIHYdTUhaAArU5x5-17" edge="1">
                    <mxGeometry relative="1" as="geometry"/>
                </mxCell>
                <mxCell id="_iePCIHYdTUhaAArU5x5-28" value="使用QueryParam的&lt;br&gt;场景" style="rounded=0;whiteSpace=wrap;html=1;" parent="1" vertex="1">
                    <mxGeometry x="140" y="460" width="120" height="60" as="geometry"/>
                </mxCell>
                <mxCell id="_iePCIHYdTUhaAArU5x5-31" value="依赖" style="text;html=1;strokeColor=none;fillColor=none;align=center;verticalAlign=middle;whiteSpace=wrap;rounded=0;" parent="1" vertex="1">
                    <mxGeometry x="770" y="190" width="60" height="30" as="geometry"/>
                </mxCell>
            </root>
        </mxGraphModel>
    </diagram>
</mxfile>